SplineFontDB: 3.0
FontName: Puritan-Italic
FullName: Puritan Italic
FamilyName: Puritan
Weight: Normal
Copyright: Copyright 1999-2010 Ben Weiner. Licensed under the Open Font License v1.1 (http://scripts.sil.org/OFL)
Version: 2.1
ItalicAngle: 0
UnderlinePosition: -133
UnderlineWidth: 20
Ascent: 800
Descent: 200
LayerCount: 2
Layer: 0 1 "Back"  1
Layer: 1 1 "Fore"  0
XUID: [1021 87 1747694147 2202046]
FSType: 0
OS2Version: 0
OS2_WeightWidthSlopeOnly: 0
OS2_UseTypoMetrics: 1
CreationTime: 988647238
ModificationTime: 1290780333
PfmFamily: 81
TTFWeight: 400
TTFWidth: 5
LineGap: 0
VLineGap: 0
Panose: 0 0 4 0 0 0 0 0 0 0
OS2TypoAscent: 60
OS2TypoAOffset: 1
OS2TypoDescent: -50
OS2TypoDOffset: 1
OS2TypoLinegap: 0
OS2WinAscent: 0
OS2WinAOffset: 1
OS2WinDescent: 0
OS2WinDOffset: 1
HheadAscent: 0
HheadAOffset: 1
HheadDescent: -1
HheadDOffset: 1
OS2SubXSize: 700
OS2SubYSize: 650
OS2SubXOff: 0
OS2SubYOff: 143
OS2SupXSize: 700
OS2SupYSize: 650
OS2SupXOff: 0
OS2SupYOff: 453
OS2StrikeYSize: 50
OS2StrikeYPos: 259
OS2Vendor: 'Alts'
Lookup: 4 0 0 "'frac' Diagonal Fractions lookup 0"  {"'frac' Diagonal Fractions lookup 0 subtable"  } ['frac' ('grek' <'dflt' > 'latn' <'dflt' > ) ]
MarkAttachClasses: 1
DEI: 91125
TtTable: prep
NPUSHB
 19
 12
 12
 11
 11
 10
 10
 9
 9
 4
 4
 3
 3
 2
 2
 1
 1
 0
 0
 1
SCANTYPE
PUSHW_1
 511
SCANCTRL
RCVT
ROUND[Grey]
WCVTP
RCVT
ROUND[Grey]
WCVTP
RCVT
ROUND[Grey]
WCVTP
RCVT
ROUND[Grey]
WCVTP
RCVT
ROUND[Grey]
WCVTP
RCVT
ROUND[Grey]
WCVTP
RCVT
ROUND[Grey]
WCVTP
RCVT
ROUND[Grey]
WCVTP
RCVT
ROUND[Grey]
WCVTP
PUSHB_4
 6
 5
 70
 0
CALL
PUSHB_4
 8
 7
 70
 0
CALL
PUSHB_2
 5
 5
RCVT
ROUND[Grey]
WCVTP
PUSHB_2
 7
 7
RCVT
ROUND[Grey]
WCVTP
EndTTInstrs
TtTable: fpgm
NPUSHB
 1
 0
FDEF
SROUND
RCVT
DUP
PUSHB_1
 3
CINDEX
RCVT
SWAP
SUB
ROUND[Grey]
RTG
SWAP
ROUND[Grey]
ADD
WCVTP
ENDF
EndTTInstrs
ShortTable: cvt  195
  -207
  -13
  504
  652
  698
  87
  77
  67
  76
  80
  60
  156
  182
  24040
  2432
  -9437
  15269
  21319
  -8265
  31685
  -6818
  -29824
  12729
  -26087

StartChar: .notdef
Encoding: 256 -1 0
Width: 500
Flags: W
LayerCount: 2
Fore
SplineSet
63 0 m 1,0,-1
 63 750 l 1,1,-1
 438 750 l 1,2,-1
 438 0 l 1,3,-1
 63 0 l 1,0,-1
125 63 m 1,4,-1
 375 63 l 1,5,-1
 375 688 l 1,6,-1
 125 688 l 1,7,-1
 125 63 l 1,4,-1
EndSplineSet
EndChar

StartChar: exclam
Encoding: 33 33 4
Width: 235
Flags: W
LayerCount: 2
Fore
SplineSet
145 192 m 1,0,-1
 60 192 l 1,1,-1
 114 706 l 1,2,-1
 199 706 l 1,3,-1
 145 192 l 1,0,-1
75 -13 m 0,4,5
 52 -13 52 -13 37 3.5 c 128,-1,6
 22 20 22 20 25 44 c 0,7,8
 27 68 27 68 45.5 85 c 128,-1,9
 64 102 64 102 87 102 c 0,10,11
 112 102 112 102 127 85 c 128,-1,12
 142 68 142 68 140 44 c 0,13,14
 137 20 137 20 118.5 3.5 c 128,-1,15
 100 -13 100 -13 75 -13 c 0,4,5
EndSplineSet
EndChar

StartChar: quotedbl
Encoding: 34 34 5
Width: 329
Flags: W
LayerCount: 2
Fore
SplineSet
269 681 m 0,0,1
 221 681 221 681 215 625 c 0,2,3
 213 603 213 603 222 550.5 c 128,-1,4
 231 498 231 498 241 475 c 1,5,-1
 255 475 l 1,6,7
 271 500 271 500 290 553 c 0,8,9
 308 603 308 603 310 625 c 0,10,11
 316 681 316 681 269 681 c 0,0,1
127 681 m 256,12,13
 80 681 80 681 74 625 c 0,14,15
 72 603 72 603 80.5 550.5 c 128,-1,16
 89 498 89 498 100 475 c 1,17,-1
 113 475 l 1,18,19
 129 500 129 500 148 553 c 0,20,21
 166 603 166 603 168 625 c 0,22,23
 174 681 174 681 127 681 c 256,12,13
EndSplineSet
EndChar

StartChar: numbersign
Encoding: 35 35 6
Width: 536
Flags: W
LayerCount: 2
Fore
SplineSet
452 560 m 1,0,-1
 371 551 l 1,1,-1
 363 473 l 1,2,-1
 443 481 l 1,3,-1
 437 429 l 1,4,-1
 357 421 l 1,5,-1
 346 324 l 1,6,-1
 289 318 l 1,7,-1
 300 415 l 1,8,-1
 219 406 l 1,9,-1
 208 309 l 1,10,-1
 150 303 l 1,11,-1
 161 400 l 1,12,-1
 58 389 l 1,13,-1
 64 441 l 1,14,-1
 167 452 l 1,15,-1
 175 531 l 1,16,-1
 73 520 l 1,17,-1
 79 572 l 1,18,-1
 182 583 l 1,19,-1
 190 658 l 1,20,-1
 247 664 l 1,21,-1
 238 589 l 1,22,-1
 320 597 l 1,23,-1
 328 672 l 1,24,-1
 387 680 l 1,25,-1
 377 603 l 1,26,-1
 458 612 l 1,27,-1
 452 560 l 1,0,-1
233 537 m 1,28,-1
 224 458 l 1,29,-1
 305 467 l 1,30,-1
 314 545 l 1,31,-1
 233 537 l 1,28,-1
EndSplineSet
EndChar

StartChar: dollar
Encoding: 36 36 7
Width: 536
Flags: W
LayerCount: 2
Fore
SplineSet
282 -6 m 1,0,-1
 272 -100 l 1,1,-1
 183 -100 l 1,2,-1
 193 -9 l 1,3,4
 93 5 93 5 53 69 c 1,5,-1
 107 131 l 1,6,7
 157 64 157 64 239 64 c 0,8,9
 285 64 285 64 319.5 91 c 128,-1,10
 354 118 354 118 358 167 c 0,11,12
 363 215 363 215 319 242 c 0,13,14
 306 250 306 250 234 277 c 0,15,16
 176 299 176 299 149 324 c 0,17,18
 111 361 111 361 111 422 c 0,19,20
 111 435 111 435 112 448 c 0,21,22
 118 504 118 504 160 547 c 0,23,24
 200 587 200 587 257 601 c 1,25,-1
 267 690 l 1,26,-1
 356 690 l 1,27,-1
 347 604 l 1,28,29
 407 593 407 593 460 545 c 1,30,-1
 410 487 l 1,31,32
 360 534 360 534 300 534 c 0,33,34
 211 534 211 534 202 443 c 0,35,36
 196 390 196 390 285 359 c 128,-1,37
 374 328 374 328 402 305 c 0,38,39
 445 270 445 270 445 201 c 0,40,41
 445 186 445 186 444 169 c 0,42,43
 429 24 429 24 282 -6 c 1,0,-1
EndSplineSet
EndChar

StartChar: percent
Encoding: 37 37 8
Width: 536
Flags: W
LayerCount: 2
Fore
SplineSet
142 410 m 0,0,1
 99 410 99 410 73 435.5 c 128,-1,2
 47 461 47 461 47 511 c 0,3,4
 47 520 47 520 48 531 c 0,5,6
 53 583 53 583 87 616.5 c 128,-1,7
 121 650 121 650 168 650 c 0,8,9
 214 650 214 650 241 616.5 c 128,-1,10
 268 583 268 583 263 531 c 0,11,12
 257 472 257 472 223.5 441 c 128,-1,13
 190 410 190 410 142 410 c 0,0,1
68 -78 m 1,14,-1
 -3 -53 l 1,15,-1
 446 628 l 1,16,-1
 512 602 l 1,17,-1
 68 -78 l 1,14,-1
370 -2 m 0,18,19
 272 -2 272 -2 272 100 c 0,20,21
 272 111 272 111 274 122 c 0,22,23
 279 175 279 175 314 209.5 c 128,-1,24
 349 244 349 244 397 244 c 0,25,26
 443 244 443 244 470.5 209.5 c 128,-1,27
 498 175 498 175 493 122 c 0,28,29
 486 61 486 61 452.5 29.5 c 128,-1,30
 419 -2 419 -2 370 -2 c 0,18,19
161 594 m 256,31,32
 145 594 145 594 130 579 c 0,33,34
 112 561 112 561 109 528 c 0,35,36
 105 495 105 495 120 478 c 0,37,38
 131 464 131 464 148 464 c 256,39,40
 165 464 165 464 179 478 c 0,41,42
 197 495 197 495 201 528 c 0,43,44
 204 561 204 561 189 579 c 0,45,46
 177 594 177 594 161 594 c 256,31,32
389 186 m 0,47,48
 373 186 373 186 358 171 c 0,49,50
 340 152 340 152 336 118 c 0,51,52
 333 84 333 84 348 67 c 0,53,54
 359 54 359 54 376 54 c 256,55,56
 393 54 393 54 407 67 c 0,57,58
 426 85 426 85 429 118 c 0,59,60
 433 152 433 152 418 171 c 0,61,62
 406 186 406 186 389 186 c 0,47,48
EndSplineSet
EndChar

StartChar: ampersand
Encoding: 38 38 9
Width: 555
Flags: W
LayerCount: 2
Fore
SplineSet
175 307 m 1,0,1
 92 263 92 263 83 178 c 0,2,3
 78 129 78 129 106 97 c 0,4,5
 136 61 136 61 195 61 c 0,6,7
 261 61 261 61 312 118 c 1,8,9
 213 232 213 232 175 307 c 1,0,1
446 4 m 1,10,11
 408 17 408 17 358 66 c 1,12,13
 276 -9 276 -9 193 -9 c 0,14,15
 102 -9 102 -9 53 38 c 0,16,17
 8 81 8 81 8 149 c 0,18,19
 8 213 8 213 48 272 c 0,20,21
 87 328 87 328 147 359 c 1,22,23
 108 421 108 421 115 484 c 0,24,25
 122 551 122 551 174 595.5 c 128,-1,26
 226 640 226 640 291 640 c 0,27,28
 375 640 375 640 434 568 c 1,29,-1
 382 520 l 1,30,31
 342 576 342 576 278 576 c 0,32,33
 204 576 204 576 195 499 c 0,34,35
 191 454 191 454 214 395 c 1,36,37
 270 417 270 417 328 419 c 1,38,-1
 336 358 l 1,39,40
 283 358 283 358 247 342 c 1,41,42
 313 233 313 233 359 182 c 1,43,44
 378 232 378 232 380 252 c 0,45,46
 383 275 383 275 377 315 c 1,47,-1
 448 321 l 1,48,49
 452 219 452 219 412 129 c 1,50,51
 435 99 435 99 499 66 c 1,52,-1
 446 4 l 1,10,11
EndSplineSet
EndChar

StartChar: quotesingle
Encoding: 39 39 10
Width: 194
Flags: W
LayerCount: 2
Fore
SplineSet
120 683 m 0,0,1
 72 683 72 683 66 627 c 0,2,3
 64 603 64 603 74 550 c 0,4,5
 85 493 85 493 99 475 c 1,6,7
 118 502 118 502 137.5 551 c 128,-1,8
 157 600 157 600 160 627 c 0,9,10
 166 683 166 683 120 683 c 0,0,1
EndSplineSet
EndChar

StartChar: parenleft
Encoding: 40 40 11
Width: 318
Flags: W
LayerCount: 2
Fore
SplineSet
125 -138 m 1,0,1
 41 39 41 39 41 236 c 0,2,3
 41 377 41 377 90 523 c 0,4,5
 138 665 138 665 223 783 c 1,6,-1
 283 753 l 1,7,8
 153 511 153 511 133 323 c 0,9,10
 128 279 128 279 128 237 c 0,11,12
 128 154 128 154 148 64 c 0,13,14
 158 18 158 18 194 -108 c 1,15,-1
 125 -138 l 1,0,1
EndSplineSet
EndChar

StartChar: parenright
Encoding: 41 41 12
Width: 316
Flags: W
LayerCount: 2
Fore
SplineSet
96 -138 m 1,0,-1
 32 -108 l 1,1,2
 110 48 110 48 130 98 c 0,3,4
 174 207 174 207 186 319 c 0,5,6
 190 362 190 362 190 405 c 0,7,8
 190 561 190 561 127 753 c 1,9,-1
 194 783 l 1,10,11
 274 623 274 623 274 422 c 0,12,13
 274 122 274 122 96 -138 c 1,0,-1
EndSplineSet
EndChar

StartChar: asterisk
Encoding: 42 42 13
Width: 275
Flags: W
LayerCount: 2
Fore
SplineSet
219 475 m 1,0,-1
 153 535 l 1,1,-1
 157 446 l 1,2,-1
 110 446 l 1,3,-1
 113 535 l 1,4,-1
 47 475 l 1,5,-1
 20 519 l 1,6,-1
 101 569 l 1,7,-1
 21 620 l 1,8,-1
 47 664 l 1,9,-1
 115 603 l 1,10,-1
 111 693 l 1,11,-1
 158 692 l 1,12,-1
 153 603 l 1,13,-1
 219 664 l 1,14,-1
 244 620 l 1,15,-1
 167 570 l 1,16,-1
 245 519 l 1,17,-1
 219 475 l 1,0,-1
EndSplineSet
EndChar

StartChar: plus
Encoding: 43 43 14
Width: 498
Flags: W
LayerCount: 2
Fore
SplineSet
279 282 m 1,0,-1
 279 96 l 1,1,-1
 218 96 l 1,2,-1
 218 282 l 1,3,-1
 53 282 l 1,4,-1
 53 345 l 1,5,-1
 218 345 l 1,6,-1
 218 521 l 1,7,-1
 279 521 l 1,8,-1
 279 345 l 1,9,-1
 446 345 l 1,10,-1
 446 282 l 1,11,-1
 279 282 l 1,0,-1
EndSplineSet
EndChar

StartChar: comma
Encoding: 44 44 15
Width: 254
Flags: W
LayerCount: 2
Fore
SplineSet
55 -72 m 1,0,-1
 98 -84 l 1,1,2
 202 35 202 35 212 120 c 1,3,-1
 115 120 l 1,4,5
 110 76 110 76 89 12 c 0,6,7
 70 -47 70 -47 55 -72 c 1,0,-1
EndSplineSet
EndChar

StartChar: hyphen
Encoding: 45 45 16
AltUni2: 002010.ffffffff.0
Width: 380
Flags: W
LayerCount: 2
Fore
SplineSet
50 267 m 1,0,-1
 50 360 l 1,1,-1
 330 360 l 1,2,-1
 330 267 l 1,3,-1
 50 267 l 1,0,-1
EndSplineSet
EndChar

StartChar: period
Encoding: 46 46 17
Width: 233
Flags: W
LayerCount: 2
Fore
SplineSet
120 -9 m 256,0,1
 93 -9 93 -9 75.5 12 c 128,-1,2
 58 33 58 33 61 64 c 256,3,4
 64 95 64 95 86.5 116 c 128,-1,5
 109 137 109 137 136 137 c 256,6,7
 163 137 163 137 180 116 c 128,-1,8
 197 95 197 95 194 64 c 256,9,10
 191 33 191 33 169 12 c 128,-1,11
 147 -9 147 -9 120 -9 c 256,0,1
EndSplineSet
EndChar

StartChar: slash
Encoding: 47 47 18
Width: 385
Flags: W
LayerCount: 2
Fore
SplineSet
47 -170 m 1,0,-1
 -32 -153 l 1,1,-1
 355 704 l 1,2,-1
 435 687 l 1,3,-1
 47 -170 l 1,0,-1
EndSplineSet
EndChar

StartChar: zero
Encoding: 48 48 19
Width: 536
Flags: W
LayerCount: 2
Fore
SplineSet
227 -9 m 0,0,1
 117 -9 117 -9 65 74 c 0,2,3
 20 143 20 143 20 259 c 0,4,5
 20 404 20 404 88 513 c 0,6,7
 167 642 167 642 303 642 c 0,8,9
 406 642 406 642 463 563 c 0,10,11
 515 490 515 490 515 376 c 0,12,13
 515 230 515 230 445 120 c 0,14,15
 364 -9 364 -9 227 -9 c 0,0,1
435 325 m 0,16,17
 438 352 438 352 438 377 c 0,18,19
 438 568 438 568 295 568 c 0,20,21
 192 568 192 568 139 464 c 0,22,23
 98 382 98 382 98 269 c 0,24,25
 98 181 98 181 127 129 c 0,26,27
 162 65 162 65 235 65 c 0,28,29
 322 65 322 65 378 152 c 0,30,31
 424 224 424 224 435 325 c 0,16,17
EndSplineSet
EndChar

StartChar: one
Encoding: 49 49 20
Width: 483
Flags: W
LayerCount: 2
Fore
SplineSet
269 0 m 1,0,-1
 180 0 l 1,1,-1
 241 577 l 1,2,-1
 103 577 l 1,3,-1
 110 637 l 1,4,-1
 337 637 l 1,5,-1
 269 0 l 1,0,-1
EndSplineSet
EndChar

StartChar: two
Encoding: 50 50 21
Width: 536
Flags: W
LayerCount: 2
Fore
SplineSet
39 0 m 1,0,-1
 47 77 l 1,1,-1
 253 289 l 2,2,3
 368 408 368 408 377 491 c 0,4,5
 381 527 381 527 352.5 558 c 128,-1,6
 324 589 324 589 286 589 c 0,7,8
 216 589 216 589 151 517 c 1,9,-1
 108 566 l 1,10,11
 201 659 201 659 292 659 c 0,12,13
 362 659 362 659 412.5 603 c 128,-1,14
 463 547 463 547 455 474 c 0,15,16
 446 384 446 384 331 260 c 2,17,-1
 160 77 l 1,18,-1
 453 77 l 1,19,-1
 445 0 l 1,20,-1
 39 0 l 1,0,-1
EndSplineSet
EndChar

StartChar: three
Encoding: 51 51 22
Width: 536
Flags: W
LayerCount: 2
Fore
SplineSet
43 46 m 1,0,-1
 84 94 l 1,1,2
 112 66 112 66 152 45 c 0,3,4
 198 21 198 21 234 21 c 0,5,6
 299 21 299 21 341 71 c 0,7,8
 376 114 376 114 383 172 c 0,9,10
 388 224 388 224 350 260.5 c 128,-1,11
 312 297 312 297 241 297 c 0,12,13
 229 297 229 297 206 298 c 0,14,15
 183 298 183 298 172 298 c 1,16,-1
 178 364 l 1,17,18
 182 364 182 364 200 364 c 0,19,20
 219 363 219 363 223 363 c 0,21,22
 240 363 240 363 276 374 c 0,23,24
 361 400 361 400 369 482 c 0,25,26
 375 531 375 531 351 568 c 0,27,28
 324 610 324 610 272 610 c 0,29,30
 242 610 242 610 200.5 585.5 c 128,-1,31
 159 561 159 561 140 536 c 1,32,-1
 101 582 l 1,33,34
 185 670 185 670 275 670 c 0,35,36
 352 670 352 670 404.5 616 c 128,-1,37
 457 562 457 562 449 489 c 0,38,39
 444 443 444 443 410 402 c 0,40,41
 373 358 373 358 321 347 c 1,42,43
 384 335 384 335 429 285 c 128,-1,44
 474 235 474 235 468 176 c 0,45,46
 459 90 459 90 398 31 c 0,47,48
 328 -36 328 -36 217 -36 c 0,49,50
 107 -36 107 -36 43 46 c 1,0,-1
EndSplineSet
EndChar

StartChar: four
Encoding: 52 52 23
Width: 536
Flags: W
LayerCount: 2
Fore
SplineSet
349 507 m 1,0,-1
 121 216 l 1,1,-1
 318 216 l 1,2,-1
 349 507 l 1,0,-1
378 140 m 1,3,-1
 360 -28 l 1,4,-1
 291 -28 l 1,5,-1
 310 140 l 1,6,-1
 18 140 l 1,7,-1
 26 216 l 1,8,-1
 372 649 l 1,9,-1
 432 649 l 1,10,-1
 386 216 l 1,11,-1
 491 216 l 1,12,-1
 483 140 l 1,13,-1
 378 140 l 1,3,-1
EndSplineSet
EndChar

StartChar: five
Encoding: 53 53 24
Width: 536
Flags: W
LayerCount: 2
Fore
SplineSet
222 -34 m 0,0,1
 167 -34 167 -34 107.5 -2 c 128,-1,2
 48 30 48 30 27 70 c 1,3,-1
 65 124 l 1,4,5
 93 87 93 87 140 59 c 0,6,7
 192 27 192 27 237 27 c 0,8,9
 303 27 303 27 352 73 c 128,-1,10
 401 119 401 119 407 181 c 0,11,12
 414 247 414 247 375.5 294 c 128,-1,13
 337 341 337 341 283 341 c 0,14,15
 252 341 252 341 214 323 c 0,16,17
 168 300 168 300 149 263 c 1,18,-1
 89 295 l 1,19,-1
 126 638 l 1,20,-1
 479 638 l 1,21,-1
 470 557 l 1,22,-1
 192 557 l 1,23,-1
 169 344 l 1,24,25
 208 408 208 408 299 409 c 0,26,27
 386 410 386 410 438.5 358.5 c 128,-1,28
 491 307 491 307 491 218 c 0,29,30
 491 106 491 106 414 36 c 128,-1,31
 337 -34 337 -34 222 -34 c 0,0,1
EndSplineSet
EndChar

StartChar: six
Encoding: 54 54 25
Width: 536
Flags: W
LayerCount: 2
Fore
SplineSet
287 372 m 0,0,1
 216 372 216 372 164.5 319.5 c 128,-1,2
 113 267 113 267 113 197 c 0,3,4
 113 134 113 134 148 91 c 0,5,6
 187 42 187 42 254 42 c 256,7,8
 321 42 321 42 372 102 c 0,9,10
 420 159 420 159 420 227 c 0,11,12
 420 294 420 294 383 333 c 128,-1,13
 346 372 346 372 287 372 c 0,0,1
247 -22 m 0,14,15
 152 -22 152 -22 94 31 c 0,16,17
 26 93 26 93 26 215 c 0,18,19
 26 240 26 240 29 267 c 0,20,21
 46 435 46 435 129 540 c 0,22,23
 221 657 221 657 371 657 c 0,24,25
 451 657 451 657 527 619 c 1,26,-1
 489 558 l 1,27,28
 426 591 426 591 363 591 c 0,29,30
 272 591 272 591 203 511 c 0,31,32
 137 435 137 435 120 325 c 1,33,34
 158 383 158 383 214 413 c 0,35,36
 263 440 263 440 312 440 c 0,37,38
 387 440 387 440 440 384 c 0,39,40
 497 325 497 325 497 236 c 0,41,42
 497 130 497 130 425 54 c 128,-1,43
 353 -22 353 -22 247 -22 c 0,14,15
EndSplineSet
EndChar

StartChar: seven
Encoding: 55 55 26
Width: 536
Flags: W
LayerCount: 2
Fore
SplineSet
501 573 m 1,0,-1
 152 -29 l 1,1,-1
 72 -7 l 1,2,-1
 410 574 l 1,3,-1
 109 574 l 1,4,-1
 115 634 l 1,5,-1
 507 634 l 1,6,-1
 501 573 l 1,0,-1
EndSplineSet
EndChar

StartChar: eight
Encoding: 56 56 27
Width: 536
Flags: W
LayerCount: 2
Fore
SplineSet
265 313 m 1,0,1
 183 275 183 275 162 260 c 0,2,3
 113 224 113 224 107 168 c 0,4,5
 100 100 100 100 152 62 c 0,6,7
 192 33 192 33 242 33 c 0,8,9
 303 33 303 33 346.5 69.5 c 128,-1,10
 390 106 390 106 397 168 c 0,11,12
 403 225 403 225 361 262 c 0,13,14
 336 283 336 283 265 313 c 1,0,1
293 608 m 0,15,16
 250 608 250 608 216 580 c 0,17,18
 178 550 178 550 168 498 c 1,19,20
 171 455 171 455 199 428 c 0,21,22
 220 408 220 408 267 388 c 1,23,24
 394 432 394 432 401 501 c 0,25,26
 406 547 406 547 371 579 c 0,27,28
 338 608 338 608 293 608 c 0,15,16
229 -28 m 0,29,30
 141 -28 141 -28 84 14 c 0,31,32
 23 61 23 61 23 144 c 0,33,34
 23 215 23 215 78 273 c 0,35,36
 124 322 124 322 199 352 c 1,37,38
 138 392 138 392 120 412 c 0,39,40
 88 449 88 449 93 498 c 0,41,42
 101 576 101 576 171 624 c 0,43,44
 233 665 233 665 309 665 c 0,45,46
 380 665 380 665 428 625 c 0,47,48
 482 580 482 580 474 510 c 0,49,50
 464 418 464 418 338 356 c 1,51,52
 494 295 494 295 480 171 c 0,53,54
 471 85 471 85 409 31 c 0,55,56
 341 -28 341 -28 229 -28 c 0,29,30
EndSplineSet
EndChar

StartChar: nine
Encoding: 57 57 28
Width: 536
Flags: W
LayerCount: 2
Fore
SplineSet
290 586 m 0,0,1
 230 586 230 586 188 534 c 0,2,3
 151 489 151 489 145 428 c 0,4,5
 138 368 138 368 168 324 c 0,6,7
 201 275 201 275 261 275 c 0,8,9
 335 275 335 275 383.5 321 c 128,-1,10
 432 367 432 367 432 440 c 0,11,12
 432 501 432 501 397 541 c 0,13,14
 358 586 358 586 290 586 c 0,0,1
223 -36 m 0,15,16
 100 -36 100 -36 31 35 c 1,17,-1
 68 96 l 1,18,19
 135 30 135 30 238 30 c 0,20,21
 324 30 324 30 378 130 c 0,22,23
 420 207 420 207 434 320 c 1,24,25
 392 259 392 259 359 237 c 0,26,27
 316 208 316 208 251 209 c 0,28,29
 165 210 165 210 114 266 c 0,30,31
 66 319 66 319 66 399 c 0,32,33
 66 504 66 504 128 575 c 0,34,35
 193 650 193 650 296 650 c 0,36,37
 385 650 385 650 445 596 c 0,38,39
 517 532 517 532 517 412 c 0,40,41
 517 390 517 390 514 366 c 0,42,43
 497 207 497 207 443 107 c 0,44,45
 366 -36 366 -36 223 -36 c 0,15,16
EndSplineSet
EndChar

StartChar: colon
Encoding: 58 58 29
Width: 244
Flags: W
LayerCount: 2
Fore
SplineSet
145 360 m 0,0,1
 119 360 119 360 100.5 381 c 128,-1,2
 82 402 82 402 86 433 c 0,3,4
 89 464 89 464 111.5 485 c 128,-1,5
 134 506 134 506 160 506 c 0,6,7
 187 506 187 506 205 485 c 128,-1,8
 223 464 223 464 220 433 c 0,9,10
 216 402 216 402 194 381 c 128,-1,11
 172 360 172 360 145 360 c 0,0,1
106 -9 m 256,12,13
 79 -9 79 -9 61 12 c 128,-1,14
 43 33 43 33 46 64 c 0,15,16
 50 95 50 95 72.5 116 c 128,-1,17
 95 137 95 137 121 137 c 0,18,19
 148 137 148 137 166 116 c 128,-1,20
 184 95 184 95 180 64 c 0,21,22
 177 33 177 33 155 12 c 128,-1,23
 133 -9 133 -9 106 -9 c 256,12,13
EndSplineSet
EndChar

StartChar: semicolon
Encoding: 59 59 30
Width: 254
Flags: W
LayerCount: 2
Fore
SplineSet
163 361 m 0,0,1
 135 361 135 361 116.5 381.5 c 128,-1,2
 98 402 98 402 102 432 c 0,3,4
 105 462 105 462 127.5 483 c 128,-1,5
 150 504 150 504 178 504 c 0,6,7
 205 504 205 504 222.5 483.5 c 128,-1,8
 240 463 240 463 237 432 c 0,9,10
 233 402 233 402 211.5 381.5 c 128,-1,11
 190 361 190 361 163 361 c 0,0,1
35 -72 m 1,12,-1
 78 -84 l 1,13,14
 181 35 181 35 191 120 c 1,15,-1
 94 120 l 1,16,17
 90 76 90 76 69 12 c 0,18,19
 50 -47 50 -47 35 -72 c 1,12,-1
EndSplineSet
EndChar

StartChar: less
Encoding: 60 60 31
Width: 366
Flags: W
LayerCount: 2
Fore
SplineSet
132 285 m 1,0,-1
 319 45 l 1,1,-1
 246 42 l 1,2,-1
 27 289 l 1,3,-1
 245 529 l 1,4,-1
 319 526 l 1,5,-1
 132 285 l 1,0,-1
EndSplineSet
EndChar

StartChar: equal
Encoding: 61 61 32
Width: 441
Flags: W
LayerCount: 2
Fore
SplineSet
51 287 m 1,0,-1
 51 352 l 1,1,-1
 389 352 l 1,2,-1
 389 287 l 1,3,-1
 51 287 l 1,0,-1
51 135 m 1,4,-1
 51 200 l 1,5,-1
 389 200 l 1,6,-1
 389 135 l 1,7,-1
 51 135 l 1,4,-1
EndSplineSet
EndChar

StartChar: greater
Encoding: 62 62 33
Width: 365
Flags: W
LayerCount: 2
Fore
SplineSet
99 42 m 1,0,-1
 25 45 l 1,1,-1
 212 285 l 1,2,-1
 24 526 l 1,3,-1
 99 529 l 1,4,-1
 316 289 l 1,5,-1
 99 42 l 1,0,-1
EndSplineSet
EndChar

StartChar: question
Encoding: 63 63 34
Width: 484
Flags: W
LayerCount: 2
Fore
SplineSet
347 371 m 0,0,1
 320 352 320 352 294 333 c 0,2,3
 265 309 265 309 253 276 c 0,4,5
 245 257 245 257 236 238 c 0,6,7
 234 232 234 232 234 189 c 1,8,-1
 165 189 l 1,9,10
 163 266 163 266 179 304 c 0,11,12
 197 348 197 348 258 396 c 0,13,14
 308 435 308 435 317 445 c 0,15,16
 348 476 348 476 352 509 c 0,17,18
 356 555 356 555 330 582 c 128,-1,19
 304 609 304 609 262 609 c 0,20,21
 168 609 168 609 123 505 c 1,22,-1
 60 540 l 1,23,24
 132 681 132 681 267 681 c 0,25,26
 350 681 350 681 396 625 c 0,27,28
 436 574 436 574 429 508 c 0,29,30
 421 429 421 429 347 371 c 0,0,1
182 -13 m 0,31,32
 159 -13 159 -13 144.5 3.5 c 128,-1,33
 130 20 130 20 132 44 c 0,34,35
 135 68 135 68 153 85 c 128,-1,36
 171 102 171 102 194 102 c 0,37,38
 219 102 219 102 234.5 85 c 128,-1,39
 250 68 250 68 247 44 c 0,40,41
 245 20 245 20 226 3.5 c 128,-1,42
 207 -13 207 -13 182 -13 c 0,31,32
EndSplineSet
EndChar

StartChar: at
Encoding: 64 64 35
Width: 1010
Flags: W
LayerCount: 2
Fore
SplineSet
493 -232 m 0,0,1
 305 -232 305 -232 178 -92 c 0,2,3
 53 44 53 44 53 238 c 0,4,5
 53 429 53 429 187.5 563.5 c 128,-1,6
 322 698 322 698 513 698 c 0,7,8
 702 698 702 698 816 579 c 128,-1,9
 930 460 930 460 930 268 c 0,10,11
 930 162 930 162 857 80 c 0,12,13
 826 45 826 45 773 18 c 0,14,15
 715 -12 715 -12 669 -12 c 0,16,17
 632 -12 632 -12 610 16.5 c 128,-1,18
 588 45 588 45 592 87 c 1,19,20
 517 -11 517 -11 424 -11 c 0,21,22
 271 -11 271 -11 271 200 c 0,23,24
 271 313 271 313 340 407 c 0,25,26
 416 512 416 512 529 512 c 0,27,28
 560 512 560 512 592 501 c 0,29,30
 633 487 633 487 650 461 c 1,31,-1
 653 502 l 1,32,-1
 726 502 l 1,33,-1
 662 94 l 1,34,35
 663 82 663 82 674 71.5 c 128,-1,36
 685 61 685 61 699 60 c 0,37,38
 714 59 714 59 748 78.5 c 128,-1,39
 782 98 782 98 799 117 c 0,40,41
 825 145 825 145 843 193 c 0,42,43
 861 237 861 237 861 268 c 0,44,45
 861 431 861 431 767.5 530 c 128,-1,46
 674 629 674 629 513 629 c 0,47,48
 351 629 351 629 236.5 514.5 c 128,-1,49
 122 400 122 400 122 238 c 0,50,51
 122 73 122 73 226 -44 c 0,52,53
 334 -163 334 -163 493 -163 c 0,54,55
 648 -163 648 -163 749 -112 c 0,56,57
 841 -65 841 -65 901 32 c 1,58,-1
 968 -11 l 1,59,60
 893 -137 893 -137 766 -189 c 0,61,62
 660 -232 660 -232 493 -232 c 0,0,1
638 398 m 1,63,64
 625 423 625 423 586 438 c 0,65,66
 555 450 555 450 526 450 c 0,67,68
 481 450 481 450 430 407 c 0,69,70
 354 342 354 342 354 215 c 0,71,72
 354 149 354 149 366 120 c 0,73,74
 389 64 389 64 459 64 c 0,75,76
 499 64 499 64 546.5 110.5 c 128,-1,77
 594 157 594 157 603 205 c 2,78,-1
 638 398 l 1,63,64
EndSplineSet
EndChar

StartChar: A
Encoding: 65 65 36
Width: 568
Flags: W
LayerCount: 2
Fore
SplineSet
418 -10 m 1,0,-1
 379 179 l 1,1,-1
 154 179 l 1,2,-1
 76 -10 l 1,3,-1
 -5 0 l 1,4,-1
 277 654 l 1,5,-1
 357 654 l 1,6,-1
 504 4 l 1,7,-1
 418 -10 l 1,0,-1
305 551 m 1,8,-1
 182 248 l 1,9,-1
 366 248 l 1,10,-1
 305 551 l 1,8,-1
EndSplineSet
EndChar

StartChar: B
Encoding: 66 66 37
Width: 524
Flags: W
LayerCount: 2
Fore
SplineSet
232 0 m 2,0,-1
 29 2 l 1,1,-1
 97 641 l 1,2,-1
 263 644 l 2,3,4
 264 644 264 644 277 645 c 0,5,6
 289 645 289 645 290 645 c 0,7,8
 364 645 364 645 404.5 611 c 128,-1,9
 445 577 445 577 445 514 c 0,10,11
 445 457 445 457 428 423 c 0,12,13
 412 393 412 393 389.5 378 c 128,-1,14
 367 363 367 363 321 351 c 1,15,16
 458 321 458 321 458 207 c 0,17,18
 458 196 458 196 456 184 c 0,19,20
 447 96 447 96 385.5 47.5 c 128,-1,21
 324 -1 324 -1 232 0 c 2,0,-1
263 585 m 0,22,23
 249 585 249 585 180 582 c 1,24,-1
 158 375 l 1,25,-1
 226 374 l 2,26,27
 284 373 284 373 321.5 403 c 128,-1,28
 359 433 359 433 364 482 c 0,29,30
 374 585 374 585 263 585 c 0,22,23
243 312 m 2,31,-1
 151 312 l 1,32,-1
 125 67 l 1,33,-1
 219 67 l 2,34,35
 358 67 358 67 370 185 c 0,36,37
 376 237 376 237 342 274.5 c 128,-1,38
 308 312 308 312 243 312 c 2,31,-1
EndSplineSet
EndChar

StartChar: C
Encoding: 67 67 38
Width: 539
Flags: W
LayerCount: 2
Fore
SplineSet
276 -8 m 0,0,1
 153 -8 153 -8 87 78 c 0,2,3
 29 155 29 155 29 278 c 0,4,5
 29 428 29 428 111 538 c 0,6,7
 202 659 202 659 348 660 c 0,8,9
 397 660 397 660 457 639 c 0,10,11
 504 623 504 623 533 605 c 1,12,-1
 486 526 l 1,13,14
 401 582 401 582 345 582 c 0,15,16
 245 582 245 582 181 487 c 0,17,18
 130 413 130 413 120 317 c 0,19,20
 118 298 118 298 118 280 c 0,21,22
 118 188 118 188 164 130 c 128,-1,23
 210 72 210 72 283 72 c 0,24,25
 368 72 368 72 448 115 c 1,26,-1
 480 50 l 1,27,28
 414 16 414 16 379 6 c 0,29,30
 334 -8 334 -8 276 -8 c 0,0,1
EndSplineSet
EndChar

StartChar: D
Encoding: 68 68 39
Width: 565
Flags: W
LayerCount: 2
Fore
SplineSet
181 -2 m 0,0,1
 152 -2 152 -2 106.5 0 c 128,-1,2
 61 2 61 2 29 2 c 1,3,-1
 97 644 l 1,4,5
 166 647 166 647 243 647 c 0,6,7
 393 647 393 647 463 587 c 0,8,9
 537 525 537 525 537 388 c 0,10,11
 537 358 537 358 533 323 c 0,12,13
 517 169 517 169 430 85 c 0,14,15
 339 -2 339 -2 181 -2 c 0,0,1
437 312 m 0,16,17
 441 348 441 348 441 379 c 0,18,19
 441 583 441 583 263 583 c 0,20,21
 234 583 234 583 179 581 c 1,22,-1
 126 74 l 1,23,-1
 216 74 l 2,24,25
 311 74 311 74 372 149 c 0,26,27
 427 215 427 215 437 312 c 0,16,17
EndSplineSet
EndChar

StartChar: E
Encoding: 69 69 40
Width: 489
Flags: W
LayerCount: 2
Fore
SplineSet
178 568 m 1,0,-1
 158 375 l 1,1,-1
 410 375 l 1,2,-1
 402 300 l 1,3,-1
 150 301 l 1,4,-1
 126 76 l 1,5,-1
 393 77 l 1,6,-1
 385 0 l 1,7,-1
 29 0 l 1,8,-1
 97 640 l 1,9,-1
 456 640 l 1,10,-1
 448 568 l 1,11,-1
 178 568 l 1,0,-1
EndSplineSet
EndChar

StartChar: F
Encoding: 70 70 41
Width: 490
Flags: W
LayerCount: 2
Fore
SplineSet
178 568 m 1,0,-1
 158 375 l 1,1,-1
 412 375 l 1,2,-1
 404 300 l 1,3,-1
 150 300 l 1,4,-1
 118 0 l 1,5,-1
 29 0 l 1,6,-1
 97 640 l 1,7,-1
 457 640 l 1,8,-1
 449 568 l 1,9,-1
 178 568 l 1,0,-1
EndSplineSet
EndChar

StartChar: G
Encoding: 71 71 42
Width: 582
Flags: W
LayerCount: 2
Fore
SplineSet
491 61 m 1,0,1
 426 24 426 24 386 11 c 0,2,3
 335 -6 335 -6 270 -6 c 0,4,5
 152 -6 152 -6 87 81 c 0,6,7
 28 158 28 158 28 278 c 0,8,9
 28 301 28 301 31 323 c 0,10,11
 43 446 43 446 119 544 c 0,12,13
 208 660 208 660 336 660 c 0,14,15
 382 660 382 660 440 644 c 0,16,17
 504 625 504 625 532 600 c 1,18,-1
 487 525 l 1,19,20
 410 582 410 582 337 582 c 0,21,22
 243 582 243 582 180 485 c 0,23,24
 131 409 131 409 121 317 c 0,25,26
 119 298 119 298 119 279 c 0,27,28
 119 189 119 189 162 130.5 c 128,-1,29
 205 72 205 72 275 72 c 0,30,31
 346 72 346 72 407 103 c 1,32,-1
 428 301 l 1,33,-1
 286 301 l 1,34,-1
 294 375 l 1,35,-1
 524 375 l 1,36,-1
 491 61 l 1,0,1
EndSplineSet
EndChar

StartChar: H
Encoding: 72 72 43
Width: 582
Flags: W
LayerCount: 2
Fore
SplineSet
397 0 m 1,0,-1
 429 300 l 1,1,-1
 150 300 l 1,2,-1
 118 0 l 1,3,-1
 29 0 l 1,4,-1
 97 640 l 1,5,-1
 186 640 l 1,6,-1
 158 375 l 1,7,-1
 437 375 l 1,8,-1
 465 640 l 1,9,-1
 553 640 l 1,10,-1
 485 0 l 1,11,-1
 397 0 l 1,0,-1
EndSplineSet
EndChar

StartChar: I
Encoding: 73 73 44
Width: 215
Flags: W
LayerCount: 2
Fore
SplineSet
29 0 m 1,0,-1
 97 642 l 1,1,-1
 186 642 l 1,2,-1
 118 0 l 1,3,-1
 29 0 l 1,0,-1
EndSplineSet
EndChar

StartChar: J
Encoding: 74 74 45
Width: 215
Flags: W
LayerCount: 2
Fore
SplineSet
134 69 m 2,0,1
 123 -31 123 -31 74 -90 c 0,2,3
 16 -159 16 -159 -90 -159 c 0,4,5
 -150 -159 -150 -159 -185 -109 c 1,6,-1
 -132 -42 l 1,7,8
 -121 -56 -121 -56 -101 -66.5 c 128,-1,9
 -81 -77 -81 -77 -69 -77 c 0,10,11
 29 -77 29 -77 44 61 c 2,12,-1
 105 638 l 1,13,-1
 194 638 l 1,14,-1
 134 69 l 2,0,1
EndSplineSet
EndChar

StartChar: K
Encoding: 75 75 46
Width: 531
Flags: W
LayerCount: 2
Fore
SplineSet
384 -21 m 1,0,1
 308 96 308 96 194 276 c 1,2,-1
 140 206 l 1,3,-1
 118 0 l 1,4,-1
 29 0 l 1,5,-1
 97 640 l 1,6,-1
 186 640 l 1,7,-1
 152 325 l 1,8,9
 336 537 336 537 438 665 c 1,10,-1
 503 615 l 1,11,12
 409 512 409 512 257 335 c 1,13,14
 290 271 290 271 372 160 c 0,15,16
 492 2 l 1,17,-1
 384 -21 l 1,0,1
EndSplineSet
EndChar

StartChar: L
Encoding: 76 76 47
Width: 501
Flags: W
LayerCount: 2
Fore
SplineSet
29 0 m 1,0,-1
 97 641 l 1,1,-1
 186 641 l 1,2,-1
 126 72 l 1,3,-1
 412 72 l 1,4,-1
 404 0 l 1,5,-1
 29 0 l 1,0,-1
EndSplineSet
EndChar

StartChar: M
Encoding: 77 77 48
Width: 793
Flags: W
LayerCount: 2
Fore
SplineSet
596 0 m 1,0,-1
 650 511 l 1,1,-1
 402 -1 l 1,2,-1
 319 -1 l 1,3,-1
 177 515 l 1,4,-1
 122 0 l 1,5,-1
 40 0 l 1,6,-1
 108 642 l 1,7,-1
 235 642 l 1,8,-1
 378 127 l 1,9,-1
 636 642 l 1,10,-1
 753 642 l 1,11,-1
 685 0 l 1,12,-1
 596 0 l 1,0,-1
EndSplineSet
EndChar

StartChar: N
Encoding: 78 78 49
Width: 582
Flags: W
LayerCount: 2
Fore
SplineSet
421 -11 m 1,0,1
 348 151 348 151 162 464 c 1,2,-1
 113 1 l 1,3,-1
 29 0 l 1,4,-1
 98 644 l 1,5,-1
 172 644 l 1,6,-1
 423 189 l 1,7,-1
 471 640 l 1,8,-1
 553 640 l 1,9,-1
 487 11 l 1,10,-1
 421 -11 l 1,0,1
EndSplineSet
EndChar

StartChar: O
Encoding: 79 79 50
Width: 644
Flags: W
LayerCount: 2
Fore
SplineSet
284 -16 m 0,0,1
 170 -16 170 -16 102 55 c 0,2,3
 30 131 30 131 30 266 c 0,4,5
 30 293 30 293 33 322 c 0,6,7
 48 463 48 463 140.5 554.5 c 128,-1,8
 233 646 233 646 361 646 c 0,9,10
 477 646 477 646 546.5 569 c 128,-1,11
 616 492 616 492 616 368 c 0,12,13
 616 345 616 345 614 322 c 0,14,15
 597 162 597 162 500 70 c 0,16,17
 411 -16 411 -16 284 -16 c 0,0,1
351 572 m 0,18,19
 246 572 246 572 176 475 c 0,20,21
 113 388 113 388 113 278 c 0,22,23
 113 185 113 185 162.5 123 c 128,-1,24
 212 61 212 61 292 61 c 0,25,26
 397 61 397 61 468 155 c 0,27,28
 533 242 533 242 533 349 c 0,29,30
 533 445 533 445 485 507 c 0,31,32
 434 572 434 572 351 572 c 0,18,19
EndSplineSet
EndChar

StartChar: P
Encoding: 80 80 51
Width: 459
Flags: W
LayerCount: 2
Fore
SplineSet
238 264 m 0,0,1
 200 264 200 264 146 268 c 1,2,-1
 118 0 l 1,3,-1
 29 0 l 1,4,-1
 97 640 l 1,5,-1
 286 644 l 2,6,7
 359 646 359 646 401 602 c 128,-1,8
 443 558 443 558 443 486 c 0,9,10
 443 399 443 399 385 333 c 0,11,12
 324 264 324 264 238 264 c 0,0,1
268 585 m 2,13,-1
 180 583 l 1,14,-1
 153 330 l 1,15,-1
 231 331 l 2,16,17
 290 332 290 332 324 381 c 0,18,19
 355 424 355 424 355 485 c 0,20,21
 355 587 355 587 268 585 c 2,13,-1
EndSplineSet
EndChar

StartChar: Q
Encoding: 81 81 52
Width: 658
Flags: W
LayerCount: 2
Fore
SplineSet
569 -70 m 1,0,-1
 458 37 l 1,1,2
 378 -16 378 -16 286 -16 c 0,3,4
 173 -16 173 -16 104 56 c 0,5,6
 32 132 32 132 32 267 c 0,7,8
 32 294 32 294 35 323 c 0,9,10
 50 464 50 464 142.5 555 c 128,-1,11
 235 646 235 646 364 646 c 0,12,13
 480 646 480 646 549 570.5 c 128,-1,14
 618 495 618 495 618 372 c 0,15,16
 618 300 618 300 594 221 c 0,17,18
 566 133 566 133 522 92 c 1,19,-1
 628 -11 l 1,20,-1
 569 -70 l 1,0,-1
353 571 m 0,21,22
 247 571 247 571 178 476 c 0,23,24
 115 390 115 390 115 280 c 0,25,26
 115 187 115 187 163.5 124 c 128,-1,27
 212 61 212 61 291 61 c 0,28,29
 346 61 346 61 401 93 c 1,30,-1
 333 159 l 1,31,-1
 393 217 l 1,32,-1
 463 149 l 1,33,34
 523 222 523 222 533 316 c 0,35,36
 535 335 535 335 535 353 c 0,37,38
 535 447 535 447 487 508 c 0,39,40
 436 571 436 571 353 571 c 0,21,22
EndSplineSet
EndChar

StartChar: R
Encoding: 82 82 53
Width: 530
Flags: W
LayerCount: 2
Fore
SplineSet
379 -10 m 1,0,1
 333 42 333 42 277 137 c 0,2,3
 241 198 241 198 193 291 c 1,4,-1
 149 289 l 1,5,-1
 118 0 l 1,6,-1
 29 0 l 1,7,-1
 97 641 l 1,8,9
 299 644 299 644 300 644 c 0,10,11
 456 642 456 642 456 501 c 0,12,13
 456 485 456 485 454 467 c 0,14,15
 445 394 445 394 393 348 c 0,16,17
 348 309 348 309 283 296 c 1,18,19
 310 251 310 251 376 152 c 0,20,21
 410 100 410 100 492 10 c 1,22,-1
 379 -10 l 1,0,1
267 583 m 2,23,-1
 180 581 l 1,24,-1
 156 356 l 1,25,-1
 221 356 l 2,26,27
 301 356 301 356 337.5 389.5 c 128,-1,28
 374 423 374 423 374 501 c 0,29,30
 374 585 374 585 267 583 c 2,23,-1
EndSplineSet
EndChar

StartChar: S
Encoding: 83 83 54
Width: 492
Flags: W
LayerCount: 2
Fore
SplineSet
203 -10 m 0,0,1
 143 -10 143 -10 90.5 12.5 c 128,-1,2
 38 35 38 35 14 73 c 1,3,-1
 67 137 l 1,4,5
 120 66 120 66 214 66 c 0,6,7
 267 66 267 66 303 94 c 0,8,9
 343 126 343 126 349 183 c 0,10,11
 355 247 355 247 285 280 c 0,12,13
 218 309 218 309 151 337 c 0,14,15
 77 380 77 380 77 466 c 0,16,17
 77 480 77 480 79 495 c 0,18,19
 87 569 87 569 150 618 c 0,20,21
 210 666 210 666 290 666 c 0,22,23
 382 666 382 666 452 605 c 1,24,-1
 404 542 l 1,25,26
 356 590 356 590 282 590 c 0,27,28
 180 590 180 590 169 489 c 0,29,30
 162 426 162 426 263 391 c 0,31,32
 360 357 360 357 391 332 c 0,33,34
 437 295 437 295 437 220 c 0,35,36
 437 204 437 204 435 185 c 0,37,38
 425 87 425 87 353 35 c 0,39,40
 291 -10 291 -10 203 -10 c 0,0,1
EndSplineSet
EndChar

StartChar: T
Encoding: 84 84 55
Width: 536
Flags: W
LayerCount: 2
Fore
SplineSet
345 572 m 1,0,-1
 284 0 l 1,1,-1
 195 0 l 1,2,-1
 256 572 l 1,3,-1
 58 572 l 1,4,-1
 65 639 l 1,5,-1
 538 639 l 1,6,-1
 531 572 l 1,7,-1
 345 572 l 1,0,-1
EndSplineSet
EndChar

StartChar: U
Encoding: 85 85 56
Width: 571
Flags: W
LayerCount: 2
Fore
SplineSet
499 230 m 2,0,1
 486 105 486 105 406 39 c 0,2,3
 337 -17 337 -17 242 -17 c 0,4,5
 160 -17 160 -17 109 30 c 0,6,7
 52 83 52 83 52 187 c 0,8,9
 52 207 52 207 54 230 c 2,10,-1
 98 640 l 1,11,-1
 187 640 l 1,12,-1
 143 230 l 2,13,14
 141 210 141 210 141 191 c 0,15,16
 141 58 141 58 252 58 c 0,17,18
 311 58 311 58 351 95 c 0,19,20
 400 140 400 140 409 230 c 2,21,-1
 453 640 l 1,22,-1
 543 640 l 1,23,-1
 499 230 l 2,0,1
EndSplineSet
EndChar

StartChar: V
Encoding: 86 86 57
Width: 548
Flags: W
LayerCount: 2
Fore
SplineSet
276 -10 m 1,0,-1
 211 -10 l 1,1,-1
 74 630 l 1,2,-1
 161 653 l 1,3,-1
 265 131 l 1,4,-1
 479 653 l 1,5,-1
 551 630 l 1,6,-1
 276 -10 l 1,0,-1
EndSplineSet
EndChar

StartChar: W
Encoding: 87 87 58
Width: 789
Flags: W
LayerCount: 2
Fore
SplineSet
557 -6 m 1,0,-1
 505 -6 l 1,1,-1
 412 459 l 1,2,-1
 221 -6 l 1,3,-1
 158 -6 l 1,4,-1
 48 626 l 1,5,-1
 137 645 l 1,6,-1
 217 146 l 1,7,-1
 403 635 l 1,8,-1
 467 635 l 1,9,-1
 547 147 l 1,10,-1
 735 645 l 1,11,-1
 801 626 l 1,12,-1
 557 -6 l 1,0,-1
EndSplineSet
EndChar

StartChar: X
Encoding: 88 88 59
Width: 552
Flags: W
LayerCount: 2
Fore
SplineSet
386 -15 m 1,0,-1
 260 263 l 1,1,-1
 92 -15 l 1,2,-1
 3 5 l 1,3,-1
 222 317 l 1,4,-1
 81 626 l 1,5,-1
 174 645 l 1,6,-1
 282 402 l 1,7,-1
 437 646 l 1,8,-1
 510 626 l 1,9,-1
 314 334 l 1,10,-1
 483 5 l 1,11,-1
 386 -15 l 1,0,-1
EndSplineSet
EndChar

StartChar: Y
Encoding: 89 89 60
Width: 503
Flags: W
LayerCount: 2
Fore
SplineSet
290 272 m 1,0,-1
 262 0 l 1,1,-1
 172 0 l 1,2,-1
 200 272 l 1,3,-1
 61 627 l 1,4,-1
 143 650 l 1,5,-1
 257 353 l 1,6,-1
 431 650 l 1,7,-1
 505 627 l 1,8,-1
 290 272 l 1,0,-1
EndSplineSet
EndChar

StartChar: Z
Encoding: 90 90 61
Width: 544
Flags: W
LayerCount: 2
Fore
SplineSet
135 76 m 1,0,-1
 452 76 l 1,1,-1
 444 0 l 1,2,-1
 36 0 l 1,3,-1
 37 77 l 1,4,-1
 412 574 l 1,5,-1
 107 572 l 1,6,-1
 114 639 l 1,7,-1
 507 639 l 1,8,-1
 507 567 l 1,9,-1
 135 76 l 1,0,-1
EndSplineSet
EndChar

StartChar: bracketleft
Encoding: 91 91 62
Width: 269
Flags: W
LayerCount: 2
Fore
SplineSet
11 -114 m 1,0,-1
 101 740 l 1,1,-1
 254 740 l 1,2,-1
 249 689 l 1,3,-1
 178 689 l 1,4,-1
 100 -44 l 1,5,-1
 181 -44 l 1,6,-1
 174 -114 l 1,7,-1
 11 -114 l 1,0,-1
EndSplineSet
EndChar

StartChar: backslash
Encoding: 92 92 63
Width: 385
Flags: W
LayerCount: 2
Fore
SplineSet
262 -170 m 1,0,-1
 57 687 l 1,1,-1
 138 704 l 1,2,-1
 344 -153 l 1,3,-1
 262 -170 l 1,0,-1
EndSplineSet
EndChar

StartChar: bracketright
Encoding: 93 93 64
Width: 266
Flags: W
LayerCount: 2
Fore
SplineSet
5 -114 m 1,0,-1
 12 -44 l 1,1,-1
 93 -44 l 1,2,-1
 171 689 l 1,3,-1
 99 689 l 1,4,-1
 104 740 l 1,5,-1
 255 740 l 1,6,-1
 165 -114 l 1,7,-1
 5 -114 l 1,0,-1
EndSplineSet
EndChar

StartChar: asciicircum
Encoding: 94 94 65
Width: 536
Flags: W
LayerCount: 2
Fore
SplineSet
270 592 m 1,0,-1
 140 453 l 1,1,-1
 104 505 l 1,2,-1
 279 678 l 1,3,-1
 420 505 l 1,4,-1
 372 453 l 1,5,-1
 270 592 l 1,0,-1
EndSplineSet
EndChar

StartChar: underscore
Encoding: 95 95 66
Width: 536
Flags: W
LayerCount: 2
Fore
SplineSet
2 -109 m 1,0,-1
 8 -50 l 1,1,-1
 533 -50 l 1,2,-1
 527 -109 l 1,3,-1
 2 -109 l 1,0,-1
EndSplineSet
EndChar

StartChar: grave
Encoding: 96 96 67
Width: 329
Flags: W
LayerCount: 2
Fore
SplineSet
258 556 m 1,0,-1
 58 646 l 1,1,-1
 112 711 l 1,2,-1
 312 615 l 1,3,-1
 258 556 l 1,0,-1
EndSplineSet
EndChar

StartChar: a
Encoding: 97 97 68
Width: 493
Flags: W
LayerCount: 2
Fore
SplineSet
365 437 m 1,0,1
 321 445 321 445 290 445 c 0,2,3
 205 445 205 445 156 370 c 0,4,5
 113 304 113 304 113 210 c 0,6,7
 113 64 113 64 203 64 c 0,8,9
 238 64 238 64 286 123.5 c 128,-1,10
 334 183 334 183 341 242 c 2,11,-1
 365 437 l 1,0,1
450 502 m 1,12,-1
 409 141 l 2,13,14
 407 125 407 125 407 105 c 0,15,16
 407 55 407 55 418 0 c 1,17,-1
 333 0 l 1,18,-1
 331 119 l 1,19,20
 309 82 309 82 287 44 c 0,21,22
 244 -11 244 -11 180 -11 c 0,23,24
 104 -11 104 -11 63 58 c 0,25,26
 30 115 30 115 30 197 c 0,27,28
 30 325 30 325 109 416 c 0,29,30
 191 511 191 511 317 511 c 0,31,32
 349 511 349 511 384 506.5 c 128,-1,33
 419 502 419 502 450 502 c 1,12,-1
EndSplineSet
EndChar

StartChar: b
Encoding: 98 98 69
Width: 515
Flags: W
LayerCount: 2
Fore
SplineSet
234 -10 m 0,0,1
 170 -10 170 -10 111 40 c 1,2,-1
 92 0 l 1,3,-1
 27 0 l 1,4,-1
 102 700 l 1,5,-1
 181 700 l 1,6,-1
 154 448 l 1,7,8
 229 512 229 512 286 512 c 0,9,10
 377 512 377 512 428 447 c 0,11,12
 474 389 474 389 474 296 c 0,13,14
 474 278 474 278 472 259 c 0,15,16
 458 128 458 128 392 57 c 0,17,18
 330 -10 330 -10 234 -10 c 0,0,1
277 443 m 0,19,20
 186 443 186 443 146 371 c 1,21,-1
 118 108 l 1,22,23
 133 84 133 84 168 70 c 0,24,25
 200 56 200 56 233 56 c 0,26,27
 360 56 360 56 382 256 c 0,28,29
 384 275 384 275 384 293 c 0,30,31
 384 443 384 443 277 443 c 0,19,20
EndSplineSet
EndChar

StartChar: c
Encoding: 99 99 70
Width: 479
Flags: W
LayerCount: 2
Fore
SplineSet
241 -12 m 0,0,1
 125 -12 125 -12 73 67 c 0,2,3
 37 124 37 124 37 209 c 0,4,5
 37 226 37 226 38 242 c 0,6,7
 53 377 53 377 135 448 c 0,8,9
 205 508 205 508 298 507 c 0,10,11
 386 506 386 506 450 454 c 1,12,-1
 401 388 l 1,13,14
 366 416 366 416 345 426 c 0,15,16
 317 439 317 439 280 439 c 0,17,18
 213 439 213 439 169 378 c 0,19,20
 130 323 130 323 121 238 c 0,21,22
 119 223 119 223 119 209 c 0,23,24
 119 137 119 137 159 95 c 0,25,26
 195 57 195 57 249 57 c 0,27,28
 321 57 321 57 389 112 c 1,29,-1
 422 60 l 1,30,31
 341 -12 341 -12 241 -12 c 0,0,1
EndSplineSet
EndChar

StartChar: d
Encoding: 100 100 71
Width: 511
Flags: W
LayerCount: 2
Fore
SplineSet
412 0 m 1,0,-1
 346 0 l 1,1,-1
 338 42 l 1,2,3
 251 -13 251 -13 193 -13 c 0,4,5
 112 -13 112 -13 66 55 c 0,6,7
 25 115 25 115 25 206 c 0,8,9
 25 326 25 326 86 413 c 0,10,11
 155 512 155 512 270 512 c 0,12,13
 340 512 340 512 382 454 c 1,14,-1
 408 697 l 1,15,-1
 486 697 l 1,16,-1
 412 0 l 1,0,-1
374 380 m 1,17,18
 351 417 351 417 328 430 c 128,-1,19
 305 443 305 443 259 443 c 0,20,21
 185 443 185 443 146 363 c 0,22,23
 115 299 115 299 115 217 c 0,24,25
 115 148 115 148 142 106 c 0,26,27
 171 61 171 61 227 61 c 0,28,29
 288 61 288 61 345 106 c 1,30,-1
 374 380 l 1,17,18
EndSplineSet
EndChar

StartChar: e
Encoding: 101 101 72
Width: 484
Flags: W
LayerCount: 2
Fore
SplineSet
378 378 m 0,0,1
 378 413 378 413 356 427 c 128,-1,2
 334 441 334 441 283 441 c 0,3,4
 202 441 202 441 157 374 c 0,5,6
 129 332 129 332 121 285 c 1,7,8
 186 282 186 282 292 303 c 0,9,10
 379 320 379 320 378 378 c 0,0,1
115 227 m 1,11,12
 113 213 113 213 114 187 c 0,13,14
 115 158 115 158 129.5 124 c 128,-1,15
 144 90 144 90 182 71 c 0,16,17
 214 56 214 56 249 56 c 0,18,19
 306 56 306 56 388 120 c 1,20,-1
 421 64 l 1,21,22
 331 -12 331 -12 234 -12 c 0,23,24
 42 -12 42 -12 31 184 c 0,25,26
 24 312 24 312 91 404 c 0,27,28
 165 507 165 507 297 507 c 0,29,30
 365 507 365 507 407 475 c 0,31,32
 454 439 454 439 454 369 c 0,33,34
 454 325 454 325 413 288 c 0,35,36
 377 257 377 257 332 247 c 0,37,38
 229 224 229 224 165 224 c 0,39,40
 141 224 141 224 115 227 c 1,11,12
EndSplineSet
EndChar

StartChar: f
Encoding: 102 102 73
Width: 324
Flags: W
LayerCount: 2
Fore
SplineSet
365 651 m 1,0,1
 322 681 322 681 283 682 c 0,2,3
 248 683 248 683 224 651 c 0,4,5
 197 617 197 617 192 558 c 2,6,7
 185 495 l 1,8,-1
 324 495 l 1,9,-1
 317 430 l 1,10,-1
 178 430 l 1,11,-1
 111 -172 l 1,12,-1
 35 -172 l 1,13,-1
 102 430 l 1,14,-1
 24 430 l 1,15,-1
 31 495 l 1,16,-1
 109 495 l 1,17,-1
 116 561 l 2,18,19
 123 630 123 630 157 679 c 0,20,21
 204 746 204 746 289 746 c 0,22,23
 333 746 333 746 356 736 c 0,24,25
 363 733 363 733 409 702 c 1,26,-1
 365 651 l 1,0,1
EndSplineSet
EndChar

StartChar: g
Encoding: 103 103 74
Width: 511
Flags: W
LayerCount: 2
Fore
SplineSet
436 62 m 2,0,1
 420 -93 420 -93 384 -155 c 0,2,3
 330 -249 330 -249 198 -249 c 0,4,5
 83 -249 83 -249 12 -155 c 1,6,-1
 60 -99 l 1,7,8
 115 -179 115 -179 214 -179 c 0,9,10
 287 -179 287 -179 318 -112 c 0,11,12
 333 -81 333 -81 344 0 c 2,13,-1
 358 99 l 1,14,15
 304 -10 304 -10 233 -10 c 0,16,17
 144 -10 144 -10 93 51 c 0,18,19
 46 107 46 107 46 195 c 0,20,21
 46 221 46 221 51 248 c 0,22,23
 68 347 68 347 121 415 c 0,24,25
 192 505 192 505 307 505 c 0,26,27
 355 505 355 505 380 502.5 c 128,-1,28
 405 500 405 500 434 500 c 2,29,-1
 482 500 l 1,30,-1
 436 62 l 2,0,1
396 434 m 1,31,32
 351 442 351 442 307 442 c 0,33,34
 221 441 221 441 173 364 c 0,35,36
 132 299 132 299 132 208 c 0,37,38
 132 148 132 148 157 107 c 0,39,40
 187 60 187 60 240 60 c 0,41,42
 281 60 281 60 326 115 c 0,43,44
 363 161 363 161 366 188.5 c 128,-1,45
 369 216 369 216 396 434 c 1,31,32
EndSplineSet
EndChar

StartChar: h
Encoding: 104 104 75
Width: 512
Flags: W
LayerCount: 2
Fore
SplineSet
334 0 m 1,0,-1
 369 325 l 2,1,2
 370 336 370 336 370 346 c 0,3,4
 370 395 370 395 343 421 c 0,5,6
 321 443 321 443 287 443 c 0,7,8
 242 443 242 443 193 407 c 128,-1,9
 144 371 144 371 141 340 c 2,10,-1
 105 0 l 1,11,-1
 26 0 l 1,12,-1
 100 696 l 1,13,-1
 179 696 l 1,14,-1
 152 439 l 1,15,16
 200 480 200 480 232 495.5 c 128,-1,17
 264 511 264 511 302 511 c 0,18,19
 362 511 362 511 404 470 c 0,20,21
 449 426 449 426 449 359 c 0,22,23
 449 348 449 348 448 338 c 2,24,-1
 412 0 l 1,25,-1
 334 0 l 1,0,-1
EndSplineSet
EndChar

StartChar: i
Encoding: 105 105 76
Width: 233
Flags: W
LayerCount: 2
Fore
SplineSet
143 602 m 256,0,1
 121 602 121 602 106.5 617.5 c 128,-1,2
 92 633 92 633 95 657 c 0,3,4
 97 680 97 680 114.5 695.5 c 128,-1,5
 132 711 132 711 155 711 c 0,6,7
 176 711 176 711 190 695.5 c 128,-1,8
 204 680 204 680 202 657 c 0,9,10
 199 633 199 633 182 617.5 c 128,-1,11
 165 602 165 602 143 602 c 256,0,1
33 0 m 1,12,-1
 86 495 l 1,13,-1
 167 495 l 1,14,-1
 114 0 l 1,15,-1
 33 0 l 1,12,-1
EndSplineSet
EndChar

StartChar: j
Encoding: 106 106 77
Width: 233
Flags: W
LayerCount: 2
Fore
SplineSet
168 604 m 256,0,1
 146 604 146 604 131.5 619.5 c 128,-1,2
 117 635 117 635 120 658 c 0,3,4
 122 681 122 681 139.5 696.5 c 128,-1,5
 157 712 157 712 179 712 c 0,6,7
 202 712 202 712 216 696.5 c 128,-1,8
 230 681 230 681 228 658 c 0,9,10
 225 635 225 635 207.5 619.5 c 128,-1,11
 190 604 190 604 168 604 c 256,0,1
20 -109 m 0,12,13
 -11 -131 -11 -131 -54 -143 c 1,14,-1
 -30 -218 l 1,15,16
 27 -197 27 -197 63 -172 c 0,17,18
 122 -131 122 -131 130 -65 c 2,19,20
 146 90 l 1,21,-1
 189 495 l 1,22,-1
 110 495 l 1,23,-1
 56 -21 l 2,24,25
 52 -54 52 -54 48 -69 c 0,26,27
 39 -96 39 -96 20 -109 c 0,12,13
EndSplineSet
EndChar

StartChar: k
Encoding: 107 107 78
Width: 476
Flags: W
LayerCount: 2
Fore
SplineSet
357 -25 m 1,0,-1
 164 226 l 1,1,-1
 127 192 l 1,2,-1
 106 0 l 1,3,-1
 27 0 l 1,4,-1
 101 697 l 1,5,-1
 180 697 l 1,6,-1
 136 276 l 1,7,-1
 380 521 l 1,8,-1
 443 475 l 1,9,-1
 223 272 l 1,10,-1
 431 18 l 1,11,-1
 357 -25 l 1,0,-1
EndSplineSet
EndChar

StartChar: l
Encoding: 108 108 79
Width: 234
Flags: W
LayerCount: 2
Fore
SplineSet
119 0 m 1,0,-1
 41 0 l 1,1,-1
 115 698 l 1,2,-1
 193 698 l 1,3,-1
 119 0 l 1,0,-1
EndSplineSet
EndChar

StartChar: m
Encoding: 109 109 80
Width: 776
Flags: W
LayerCount: 2
Fore
SplineSet
607 0 m 1,0,-1
 644 346 l 2,1,2
 654 443 654 443 566 443 c 0,3,4
 538 443 538 443 493 411 c 0,5,6
 438 373 438 373 433 322 c 2,7,-1
 399 0 l 1,8,-1
 321 0 l 1,9,-1
 358 351 l 2,10,11
 363 397 363 397 340 421 c 0,12,13
 320 442 320 442 286 442 c 0,14,15
 245 442 245 442 199.5 404.5 c 128,-1,16
 154 367 154 367 150 331 c 2,17,-1
 115 0 l 1,18,-1
 36 0 l 1,19,-1
 88 495 l 1,20,-1
 167 495 l 1,21,-1
 160 425 l 1,22,23
 245 507 245 507 309 507 c 0,24,25
 347 507 347 507 378 482 c 128,-1,26
 409 457 409 457 422 416 c 1,27,28
 516 512 516 512 590 512 c 0,29,30
 654 512 654 512 693 460 c 0,31,32
 729 411 729 411 723 351 c 2,33,-1
 686 0 l 1,34,-1
 607 0 l 1,0,-1
EndSplineSet
EndChar

StartChar: n
Encoding: 110 110 81
Width: 512
Flags: W
LayerCount: 2
Fore
SplineSet
344 0 m 1,0,-1
 378 325 l 2,1,2
 380 336 380 336 380 346 c 0,3,4
 380 395 380 395 353 421 c 0,5,6
 331 443 331 443 297 443 c 0,7,8
 257 443 257 443 209 411 c 0,9,10
 155 374 155 374 150 328 c 2,11,-1
 115 0 l 1,12,-1
 36 0 l 1,13,-1
 88 495 l 1,14,-1
 167 495 l 1,15,-1
 161 439 l 1,16,17
 210 480 210 480 242 495.5 c 128,-1,18
 274 511 274 511 313 511 c 0,19,20
 371 511 371 511 413 470 c 0,21,22
 459 425 459 425 459 358 c 0,23,24
 459 348 459 348 458 338 c 2,25,-1
 422 0 l 1,26,-1
 344 0 l 1,0,-1
EndSplineSet
EndChar

StartChar: o
Encoding: 111 111 82
Width: 546
Flags: W
LayerCount: 2
Fore
SplineSet
247 -11 m 0,0,1
 129 -11 129 -11 76 68 c 0,2,3
 37 124 37 124 37 213 c 0,4,5
 37 233 37 233 39 252 c 0,6,7
 53 381 53 381 141 453 c 0,8,9
 214 512 214 512 304 512 c 0,10,11
 385 512 385 512 442 461 c 0,12,13
 509 401 509 401 509 291 c 0,14,15
 509 272 509 272 507 252 c 0,16,17
 498 163 498 163 444 89 c 0,18,19
 370 -11 370 -11 247 -11 c 0,0,1
302 445 m 0,20,21
 214 445 214 445 165 369 c 0,22,23
 123 304 123 304 123 213 c 0,24,25
 123 144 123 144 152 102 c 0,26,27
 186 54 186 54 250 54 c 0,28,29
 335 54 335 54 383 131 c 0,30,31
 423 196 423 196 423 286 c 0,32,33
 423 355 423 355 395 397 c 0,34,35
 363 445 363 445 302 445 c 0,20,21
EndSplineSet
EndChar

StartChar: p
Encoding: 112 112 83
Width: 517
Flags: W
LayerCount: 2
Fore
SplineSet
240 -13 m 0,0,1
 177 -13 177 -13 130 44 c 1,2,-1
 104 -197 l 1,3,-1
 25 -197 l 1,4,-1
 99 495 l 1,5,-1
 178 495 l 1,6,-1
 173 448 l 1,7,8
 246 512 246 512 297 512 c 0,9,10
 494 512 494 512 494 315 c 0,11,12
 494 183 494 183 436 93 c 0,13,14
 367 -13 367 -13 240 -13 c 0,0,1
288 445 m 0,15,16
 252 445 252 445 214.5 421.5 c 128,-1,17
 177 398 177 398 164 364 c 1,18,-1
 136 101 l 1,19,20
 192 54 192 54 252 54 c 0,21,22
 316 54 316 54 360 124 c 0,23,24
 396 182 396 182 403 253 c 0,25,26
 405 276 405 276 405 296 c 0,27,28
 405 445 405 445 288 445 c 0,15,16
EndSplineSet
EndChar

StartChar: q
Encoding: 113 113 84
Width: 511
Flags: W
LayerCount: 2
Fore
SplineSet
330 -197 m 1,0,-1
 357 54 l 1,1,2
 257 -13 257 -13 207 -13 c 0,3,4
 133 -13 133 -13 89 49.5 c 128,-1,5
 45 112 45 112 45 211 c 0,6,7
 45 233 45 233 48 257 c 0,8,9
 58 358 58 358 110 426 c 0,10,11
 176 513 176 513 291 512 c 0,12,13
 322 512 322 512 356 492 c 0,14,15
 386 475 386 475 400 455 c 1,16,-1
 404 495 l 1,17,-1
 484 495 l 1,18,-1
 410 -197 l 1,19,-1
 330 -197 l 1,0,-1
390 365 m 1,20,21
 383 400 383 400 354 423 c 128,-1,22
 325 446 325 446 287 446 c 0,23,24
 209 446 209 446 166 368 c 0,25,26
 131 304 131 304 131 220 c 0,27,28
 131 152 131 152 163 106.5 c 128,-1,29
 195 61 195 61 247 61 c 0,30,31
 300 61 300 61 363 106 c 1,32,-1
 390 365 l 1,20,21
EndSplineSet
EndChar

StartChar: r
Encoding: 114 114 85
Width: 342
Flags: W
LayerCount: 2
Fore
SplineSet
315 410 m 1,0,1
 274 422 274 422 262 422 c 0,2,3
 229 421 229 421 186 368 c 0,4,5
 148 320 148 320 146 299 c 2,6,-1
 115 0 l 1,7,-1
 36 0 l 1,8,-1
 89 495 l 1,9,-1
 168 495 l 1,10,-1
 156 395 l 1,11,12
 238 506 238 506 293 506 c 0,13,14
 310 506 310 506 347 490 c 1,15,-1
 315 410 l 1,0,1
EndSplineSet
EndChar

StartChar: s
Encoding: 115 115 86
Width: 437
Flags: W
LayerCount: 2
Fore
SplineSet
186 -14 m 0,0,1
 83 -14 83 -14 26 44 c 1,2,-1
 73 105 l 1,3,4
 119 55 119 55 201 55 c 0,5,6
 241 55 241 55 273 85 c 0,7,8
 302 112 302 112 305 141 c 0,9,10
 311 194 311 194 235 217 c 0,11,12
 192 227 192 227 119 255 c 0,13,14
 64 285 64 285 71 357 c 0,15,16
 79 435 79 435 136 477 c 0,17,18
 185 515 185 515 253 514 c 256,19,20
 321 513 321 513 392 468 c 1,21,-1
 359 405 l 1,22,23
 294 450 294 450 243 450 c 0,24,25
 156 450 156 450 148 377 c 0,26,27
 144 339 144 339 183 323 c 0,28,29
 252 299 252 299 322 276 c 0,30,31
 397 239 397 239 389 159 c 0,32,33
 381 75 381 75 319 28 c 0,34,35
 264 -14 264 -14 186 -14 c 0,0,1
EndSplineSet
EndChar

StartChar: t
Encoding: 116 116 87
Width: 351
Flags: W
LayerCount: 2
Fore
SplineSet
182 -8 m 0,0,1
 139 -8 139 -8 111 26.5 c 128,-1,2
 83 61 83 61 83 119 c 0,3,4
 83 132 83 132 84 145 c 2,5,-1
 114 430 l 1,6,-1
 35 430 l 1,7,-1
 42 496 l 1,8,-1
 121 496 l 1,9,-1
 132 597 l 1,10,-1
 211 597 l 1,11,-1
 200 496 l 1,12,-1
 349 496 l 1,13,-1
 342 429 l 1,14,-1
 193 430 l 1,15,-1
 162 133 l 2,16,17
 155 66 155 66 212 66 c 0,18,19
 243 66 243 66 295 111 c 1,20,-1
 328 57 l 1,21,22
 265 -8 265 -8 182 -8 c 0,0,1
EndSplineSet
EndChar

StartChar: u
Encoding: 117 117 88
Width: 511
Flags: W
LayerCount: 2
Fore
SplineSet
421 0 m 1,0,-1
 350 0 l 1,1,-1
 344 52 l 1,2,3
 263 -18 263 -18 184 -18 c 0,4,5
 130 -18 130 -18 93 22 c 0,6,7
 53 64 53 64 53 134 c 0,8,9
 53 147 53 147 55 160 c 2,10,-1
 90 495 l 1,11,-1
 169 495 l 1,12,-1
 134 164 l 2,13,14
 133 152 133 152 133 141 c 0,15,16
 133 53 133 53 210 53 c 0,17,18
 257 53 257 53 306.5 90.5 c 128,-1,19
 356 128 356 128 360 164 c 2,20,-1
 395 495 l 1,21,-1
 473 495 l 1,22,-1
 421 0 l 1,0,-1
EndSplineSet
EndChar

StartChar: v
Encoding: 118 118 89
Width: 464
Flags: W
LayerCount: 2
Fore
SplineSet
234 -12 m 1,0,-1
 180 -12 l 1,1,-1
 47 479 l 1,2,-1
 128 501 l 1,3,-1
 223 115 l 1,4,-1
 393 501 l 1,5,-1
 467 479 l 1,6,-1
 234 -12 l 1,0,-1
EndSplineSet
EndChar

StartChar: w
Encoding: 119 119 90
Width: 735
Flags: W
LayerCount: 2
Fore
SplineSet
534 -9 m 1,0,-1
 473 -9 l 1,1,-1
 382 361 l 1,2,-1
 211 -9 l 1,3,-1
 148 -9 l 1,4,-1
 52 479 l 1,5,-1
 131 499 l 1,6,-1
 200 104 l 1,7,-1
 364 492 l 1,8,-1
 434 492 l 1,9,-1
 521 105 l 1,10,-1
 668 499 l 1,11,-1
 739 479 l 1,12,-1
 534 -9 l 1,0,-1
EndSplineSet
EndChar

StartChar: x
Encoding: 120 120 91
Width: 492
Flags: W
LayerCount: 2
Fore
SplineSet
383 -26 m 1,0,-1
 242 190 l 1,1,-1
 58 -24 l 1,2,-1
 -4 21 l 1,3,-1
 201 246 l 1,4,-1
 62 464 l 1,5,-1
 140 508 l 1,6,-1
 260 310 l 1,7,-1
 427 507 l 1,8,-1
 485 472 l 1,9,-1
 293 251 l 1,10,-1
 455 20 l 1,11,-1
 383 -26 l 1,0,-1
EndSplineSet
EndChar

StartChar: y
Encoding: 121 121 92
Width: 480
Flags: W
LayerCount: 2
Fore
SplineSet
224 -84 m 2,0,1
 203 -127 203 -127 159 -159 c 0,2,3
 109 -196 109 -196 54 -196 c 0,4,5
 39 -196 39 -196 -13 -178 c 1,6,-1
 20 -107 l 1,7,8
 45 -120 45 -120 68 -121 c 0,9,10
 114 -122 114 -122 156 -62 c 0,11,12
 159 -57 159 -57 205 26 c 1,13,-1
 65 478 l 1,14,-1
 144 499 l 1,15,-1
 252 129 l 1,16,-1
 424 498 l 1,17,-1
 493 481 l 1,18,-1
 224 -84 l 2,0,1
EndSplineSet
EndChar

StartChar: z
Encoding: 122 122 93
Width: 482
Flags: W
LayerCount: 2
Fore
SplineSet
27 0 m 1,0,-1
 34 66 l 1,1,-1
 294 369 l 2,2,3
 317 395 317 395 351 430 c 1,4,-1
 82 430 l 1,5,-1
 89 494 l 1,6,-1
 451 494 l 1,7,-1
 444 424 l 1,8,-1
 192 125 l 2,9,10
 179 110 179 110 141 70 c 1,11,-1
 420 70 l 1,12,-1
 413 0 l 1,13,-1
 27 0 l 1,0,-1
EndSplineSet
EndChar

StartChar: braceleft
Encoding: 123 123 94
Width: 536
Flags: W
LayerCount: 2
Fore
SplineSet
444 748 m 1,0,1
 404 761 404 761 388 761 c 0,2,3
 343 761 343 761 326 740 c 0,4,5
 306 713 306 713 296 625 c 0,6,7
 294 599 294 599 291.5 554 c 128,-1,8
 289 509 289 509 288 494 c 0,9,10
 280 422 280 422 190 348 c 1,11,-1
 187 323 l 1,12,13
 216 300 216 300 236 260 c 0,14,15
 261 212 261 212 261 160 c 0,16,17
 261 150 261 150 260 139 c 0,18,19
 258 116 258 116 247.5 57.5 c 128,-1,20
 237 -1 237 -1 235 -23 c 0,21,22
 229 -82 229 -82 232 -97 c 0,23,24
 239 -126 239 -126 275 -126 c 0,25,26
 319 -126 319 -126 346 -105 c 1,27,-1
 358 -180 l 1,28,29
 295 -199 295 -199 264 -197 c 0,30,31
 192 -193 192 -193 165 -145 c 0,32,33
 144 -108 144 -108 146 -36 c 0,34,35
 147 -9 147 -9 154 51 c 0,36,37
 155 65 155 65 161.5 106.5 c 128,-1,38
 168 148 168 148 170 172 c 0,39,40
 175 214 175 214 156 257 c 0,41,42
 140 294 140 294 112 319 c 1,43,-1
 117 359 l 1,44,45
 160 398 160 398 173 417 c 0,46,47
 200 453 200 453 205 497 c 0,48,49
 207 521 207 521 209 567 c 128,-1,50
 211 613 211 613 213 633 c 0,51,52
 235 834 235 834 394 834 c 0,53,54
 419 834 419 834 466 823 c 1,55,-1
 444 748 l 1,0,1
EndSplineSet
EndChar

StartChar: bar
Encoding: 124 124 95
Width: 229
Flags: W
LayerCount: 2
Fore
SplineSet
37 -220 m 1,0,-1
 133 686 l 1,1,-1
 221 686 l 1,2,-1
 125 -220 l 1,3,-1
 37 -220 l 1,0,-1
EndSplineSet
EndChar

StartChar: braceright
Encoding: 125 125 96
Width: 536
Flags: W
LayerCount: 2
Fore
SplineSet
341 172 m 0,0,1
 339 148 339 148 336.5 106.5 c 128,-1,2
 334 65 334 65 333 51 c 0,3,4
 327 -5 327 -5 322 -32 c 0,5,6
 313 -81 313 -81 298 -113 c 0,7,8
 261 -193 261 -193 169 -197 c 0,9,10
 138 -198 138 -198 79 -180 c 1,11,-1
 107 -105 l 1,12,13
 130 -126 130 -126 174 -126 c 0,14,15
 224 -126 224 -126 231 -64 c 0,16,17
 233 -51 233 -51 236 -23 c 0,18,19
 238 0 238 0 240.5 58.5 c 128,-1,20
 243 117 243 117 245 139 c 0,21,22
 251 197 251 197 289 252 c 0,23,24
 320 298 320 298 356 323 c 1,25,-1
 359 348 l 1,26,27
 285 422 285 422 293 494 c 0,28,29
 294 507 294 507 306 589 c 0,30,31
 315 647 315 647 315 685 c 0,32,33
 315 733 315 733 299 749 c 0,34,35
 286 761 286 761 249 761 c 0,36,37
 233 761 233 761 191 748 c 1,38,-1
 183 823 l 1,39,40
 233 834 233 834 259 834 c 0,41,42
 399 834 399 834 399 677 c 0,43,44
 399 642 399 642 390 587 c 0,45,46
 378 513 378 513 376 497 c 0,47,48
 371 453 371 453 390 417 c 0,49,50
 400 398 400 398 434 359 c 1,51,-1
 431 319 l 1,52,53
 351 259 351 259 341 172 c 0,0,1
EndSplineSet
EndChar

StartChar: asciitilde
Encoding: 126 126 97
Width: 395
Flags: W
LayerCount: 2
Fore
SplineSet
273 379 m 0,0,1
 249 379 249 379 217 406.5 c 128,-1,2
 185 434 185 434 167 434 c 0,3,4
 138 434 138 434 96 381 c 1,5,-1
 85 453 l 1,6,7
 126 497 126 497 176 497 c 0,8,9
 211 497 211 497 255 463 c 0,10,11
 273 449 273 449 288 449 c 0,12,13
 304 449 304 449 322 469 c 0,14,15
 330 476 330 476 340 486 c 1,16,-1
 351 416 l 1,17,18
 310 379 310 379 273 379 c 0,0,1
EndSplineSet
EndChar

StartChar: Adieresis
Encoding: 196 196 98
Width: 580
Flags: W
LayerCount: 2
Fore
SplineSet
415 -10 m 1,0,-1
 376 179 l 1,1,-1
 151 179 l 1,2,-1
 74 -10 l 1,3,-1
 -7 0 l 1,4,-1
 275 654 l 1,5,-1
 356 654 l 1,6,-1
 502 4 l 1,7,-1
 415 -10 l 1,0,-1
304 551 m 1,8,-1
 180 248 l 1,9,-1
 364 248 l 1,10,-1
 304 551 l 1,8,-1
428 694 m 0,11,12
 403 694 403 694 391 711 c 0,13,14
 381 725 381 725 383 746 c 0,15,16
 385 766 385 766 400 781.5 c 128,-1,17
 415 797 415 797 439 797 c 0,18,19
 462 797 462 797 473.5 781 c 128,-1,20
 485 765 485 765 483 746 c 0,21,22
 481 726 481 726 466 710 c 128,-1,23
 451 694 451 694 428 694 c 0,11,12
218 694 m 0,24,25
 193 694 193 694 181 711 c 0,26,27
 171 725 171 725 173 746 c 0,28,29
 175 766 175 766 190 781.5 c 128,-1,30
 205 797 205 797 229 797 c 0,31,32
 252 797 252 797 263.5 781 c 128,-1,33
 275 765 275 765 273 746 c 0,34,35
 271 726 271 726 256 710 c 128,-1,36
 241 694 241 694 218 694 c 0,24,25
EndSplineSet
EndChar

StartChar: Aring
Encoding: 197 197 99
Width: 580
Flags: W
LayerCount: 2
Fore
SplineSet
412 -10 m 1,0,-1
 373 179 l 1,1,-1
 148 179 l 1,2,-1
 71 -10 l 1,3,-1
 -10 0 l 1,4,-1
 271 654 l 1,5,-1
 352 654 l 1,6,-1
 498 4 l 1,7,-1
 412 -10 l 1,0,-1
300 551 m 1,8,-1
 176 248 l 1,9,-1
 360 248 l 1,10,-1
 300 551 l 1,8,-1
321 686 m 256,11,12
 281 686 281 686 258 710.5 c 128,-1,13
 235 735 235 735 239 773 c 0,14,15
 243 810 243 810 271 834.5 c 128,-1,16
 299 859 299 859 339 859 c 256,17,18
 379 859 379 859 402 834.5 c 128,-1,19
 425 810 425 810 421 773 c 0,20,21
 417 735 417 735 389 710.5 c 128,-1,22
 361 686 361 686 321 686 c 256,11,12
334 816 m 256,23,24
 291 816 291 816 287 773 c 0,25,26
 282 729 282 729 325 729 c 256,27,28
 368 729 368 729 373 773 c 0,29,30
 377 816 377 816 334 816 c 256,23,24
EndSplineSet
EndChar

StartChar: Ccedilla
Encoding: 199 199 100
Width: 570
Flags: W
LayerCount: 2
Fore
SplineSet
301 -219 m 0,0,1
 237 -219 237 -219 220 -171 c 1,2,-1
 260 -137 l 1,3,4
 285 -169 285 -169 308 -169 c 0,5,6
 343 -169 343 -169 346 -135 c 0,7,8
 350 -96 350 -96 317 -96 c 0,9,10
 303 -96 303 -96 281 -111 c 1,11,-1
 237 -90 l 1,12,-1
 251 -5 l 1,13,14
 149 8 149 8 94 91 c 0,15,16
 46 165 46 165 46 277 c 0,17,18
 46 427 46 427 128 537 c 0,19,20
 218 659 218 659 365 660 c 0,21,22
 414 660 414 660 474 639 c 0,23,24
 520 623 520 623 549 605 c 1,25,-1
 502 526 l 1,26,27
 417 582 417 582 361 582 c 0,28,29
 261 582 261 582 197 487 c 0,30,31
 146 413 146 413 136 317 c 0,32,33
 134 298 134 298 134 280 c 0,34,35
 134 188 134 188 180.5 130 c 128,-1,36
 227 72 227 72 299 72 c 0,37,38
 384 72 384 72 465 115 c 1,39,-1
 496 50 l 1,40,41
 434 19 434 19 401 8 c 0,42,43
 359 -6 359 -6 308 -8 c 1,44,-1
 301 -47 l 1,45,46
 310 -43 310 -43 326 -43 c 0,47,48
 368 -43 368 -43 391 -72 c 0,49,50
 410 -97 410 -97 407 -132 c 0,51,52
 403 -167 403 -167 377 -192 c 0,53,54
 347 -219 347 -219 301 -219 c 0,0,1
EndSplineSet
EndChar

StartChar: Eacute
Encoding: 201 201 101
Width: 469
Flags: W
LayerCount: 2
Fore
SplineSet
173 568 m 1,0,-1
 152 375 l 1,1,-1
 404 375 l 1,2,-1
 396 300 l 1,3,-1
 144 301 l 1,4,-1
 120 76 l 1,5,-1
 388 77 l 1,6,-1
 379 0 l 1,7,-1
 23 0 l 1,8,-1
 91 640 l 1,9,-1
 450 640 l 1,10,-1
 443 568 l 1,11,-1
 173 568 l 1,0,-1
200 687 m 1,12,-1
 160 746 l 1,13,-1
 381 842 l 1,14,-1
 421 777 l 1,15,-1
 200 687 l 1,12,-1
EndSplineSet
EndChar

StartChar: Ntilde
Encoding: 209 209 102
Width: 570
Flags: W
LayerCount: 2
Fore
SplineSet
418 -11 m 1,0,1
 345 151 345 151 159 464 c 1,2,-1
 110 1 l 1,3,-1
 26 0 l 1,4,-1
 95 644 l 1,5,-1
 169 644 l 1,6,-1
 420 189 l 1,7,-1
 468 640 l 1,8,-1
 550 640 l 1,9,-1
 484 11 l 1,10,-1
 418 -11 l 1,0,1
413 659 m 0,11,12
 386 659 386 659 343.5 693.5 c 128,-1,13
 301 728 301 728 286 728 c 0,14,15
 246 728 246 728 211 686 c 1,16,-1
 190 745 l 1,17,18
 207 766 207 766 239 780 c 0,19,20
 268 794 268 794 293 795 c 0,21,22
 320 796 320 796 359 761.5 c 128,-1,23
 398 727 398 727 418 727 c 0,24,25
 443 727 443 727 471 752 c 1,26,-1
 491 692 l 1,27,28
 481 681 481 681 453.5 670 c 128,-1,29
 426 659 426 659 413 659 c 0,11,12
EndSplineSet
EndChar

StartChar: Odieresis
Encoding: 214 214 103
Width: 648
Flags: W
LayerCount: 2
Fore
SplineSet
281 -16 m 0,0,1
 167 -16 167 -16 99 55 c 0,2,3
 26 131 26 131 26 266 c 0,4,5
 26 293 26 293 30 322 c 0,6,7
 45 463 45 463 137.5 554.5 c 128,-1,8
 230 646 230 646 358 646 c 0,9,10
 474 646 474 646 543.5 569 c 128,-1,11
 613 492 613 492 613 368 c 0,12,13
 613 345 613 345 611 322 c 0,14,15
 594 162 594 162 498 70 c 0,16,17
 408 -16 408 -16 281 -16 c 0,0,1
348 572 m 0,18,19
 242 572 242 572 173 475 c 0,20,21
 110 388 110 388 110 278 c 0,22,23
 110 185 110 185 159.5 123 c 128,-1,24
 209 61 209 61 289 61 c 0,25,26
 393 61 393 61 464 155 c 0,27,28
 530 242 530 242 530 349 c 0,29,30
 530 445 530 445 480.5 508.5 c 128,-1,31
 431 572 431 572 348 572 c 0,18,19
471 696 m 0,32,33
 447 696 447 696 436 712 c 128,-1,34
 425 728 425 728 427 748 c 256,35,36
 429 768 429 768 443.5 784 c 128,-1,37
 458 800 458 800 482 800 c 0,38,39
 505 800 505 800 517 783.5 c 128,-1,40
 529 767 529 767 527 748 c 0,41,42
 525 728 525 728 509.5 712 c 128,-1,43
 494 696 494 696 471 696 c 0,32,33
261 696 m 0,44,45
 237 696 237 696 226 712 c 128,-1,46
 215 728 215 728 217 748 c 256,47,48
 219 768 219 768 233.5 784 c 128,-1,49
 248 800 248 800 272 800 c 0,50,51
 295 800 295 800 307 783.5 c 128,-1,52
 319 767 319 767 317 748 c 0,53,54
 315 728 315 728 299.5 712 c 128,-1,55
 284 696 284 696 261 696 c 0,44,45
EndSplineSet
EndChar

StartChar: Udieresis
Encoding: 220 220 104
Width: 521
Flags: W
LayerCount: 2
Fore
SplineSet
496 230 m 2,0,1
 483 105 483 105 402 39 c 0,2,3
 334 -17 334 -17 239 -17 c 0,4,5
 156 -17 156 -17 106 30 c 0,6,7
 48 83 48 83 48 187 c 0,8,9
 48 207 48 207 51 230 c 2,10,-1
 94 640 l 1,11,-1
 183 640 l 1,12,-1
 140 230 l 2,13,14
 138 210 138 210 138 191 c 0,15,16
 138 58 138 58 250 58 c 0,17,18
 308 58 308 58 348 95 c 0,19,20
 396 140 396 140 406 230 c 2,21,-1
 449 640 l 1,22,-1
 539 640 l 1,23,-1
 496 230 l 2,0,1
418 696 m 0,24,25
 394 696 394 696 383 712 c 128,-1,26
 372 728 372 728 374 748 c 256,27,28
 376 768 376 768 390.5 784 c 128,-1,29
 405 800 405 800 429 800 c 0,30,31
 452 800 452 800 464 783.5 c 128,-1,32
 476 767 476 767 474 748 c 0,33,34
 472 728 472 728 456.5 712 c 128,-1,35
 441 696 441 696 418 696 c 0,24,25
209 696 m 0,36,37
 185 696 185 696 174 712 c 128,-1,38
 163 728 163 728 165 748 c 256,39,40
 167 768 167 768 181.5 784 c 128,-1,41
 196 800 196 800 220 800 c 0,42,43
 243 800 243 800 254.5 784 c 128,-1,44
 266 768 266 768 264 748 c 256,45,46
 262 728 262 728 247 712 c 128,-1,47
 232 696 232 696 209 696 c 0,36,37
EndSplineSet
EndChar

StartChar: aacute
Encoding: 225 225 105
Width: 491
Flags: W
LayerCount: 2
Fore
SplineSet
265 557 m 1,0,-1
 228 616 l 1,1,-1
 453 712 l 1,2,-1
 489 647 l 1,3,-1
 265 557 l 1,0,-1
365 437 m 1,4,5
 321 445 321 445 290 445 c 0,6,7
 205 445 205 445 156 370 c 0,8,9
 113 304 113 304 113 210 c 0,10,11
 113 64 113 64 203 64 c 0,12,13
 238 64 238 64 286 123.5 c 128,-1,14
 334 183 334 183 341 242 c 2,15,-1
 365 437 l 1,4,5
450 502 m 1,16,-1
 409 141 l 2,17,18
 407 125 407 125 407 105 c 0,19,20
 407 55 407 55 418 0 c 1,21,-1
 333 0 l 1,22,-1
 331 119 l 1,23,24
 309 82 309 82 287 44 c 0,25,26
 244 -11 244 -11 180 -11 c 0,27,28
 104 -11 104 -11 63 58 c 0,29,30
 30 115 30 115 30 197 c 0,31,32
 30 325 30 325 109 416 c 0,33,34
 191 511 191 511 317 511 c 0,35,36
 349 511 349 511 384 506.5 c 128,-1,37
 419 502 419 502 450 502 c 1,16,-1
EndSplineSet
EndChar

StartChar: agrave
Encoding: 224 224 106
Width: 491
Flags: W
LayerCount: 2
Fore
SplineSet
406 556 m 1,0,-1
 212 646 l 1,1,-1
 269 711 l 1,2,-1
 464 615 l 1,3,-1
 406 556 l 1,0,-1
365 437 m 1,4,5
 321 445 321 445 290 445 c 0,6,7
 205 445 205 445 156 370 c 0,8,9
 113 304 113 304 113 210 c 0,10,11
 113 64 113 64 203 64 c 0,12,13
 238 64 238 64 286 123.5 c 128,-1,14
 334 183 334 183 341 242 c 2,15,-1
 365 437 l 1,4,5
450 502 m 1,16,-1
 409 141 l 2,17,18
 407 125 407 125 407 105 c 0,19,20
 407 55 407 55 418 0 c 1,21,-1
 333 0 l 1,22,-1
 331 119 l 1,23,24
 309 82 309 82 287 44 c 0,25,26
 244 -11 244 -11 180 -11 c 0,27,28
 104 -11 104 -11 63 58 c 0,29,30
 30 115 30 115 30 197 c 0,31,32
 30 325 30 325 109 416 c 0,33,34
 191 511 191 511 317 511 c 0,35,36
 349 511 349 511 384 506.5 c 128,-1,37
 419 502 419 502 450 502 c 1,16,-1
EndSplineSet
EndChar

StartChar: acircumflex
Encoding: 226 226 107
Width: 491
Flags: W
LayerCount: 2
Fore
SplineSet
315 619 m 1,0,-1
 163 526 l 1,1,-1
 174 597 l 1,2,-1
 329 710 l 1,3,-1
 454 597 l 1,4,-1
 442 526 l 1,5,-1
 315 619 l 1,0,-1
365 437 m 1,6,7
 321 445 321 445 290 445 c 0,8,9
 205 445 205 445 156 370 c 0,10,11
 113 304 113 304 113 210 c 0,12,13
 113 64 113 64 203 64 c 0,14,15
 238 64 238 64 286 123.5 c 128,-1,16
 334 183 334 183 341 242 c 2,17,-1
 365 437 l 1,6,7
450 502 m 1,18,-1
 409 141 l 2,19,20
 407 125 407 125 407 105 c 0,21,22
 407 55 407 55 418 0 c 1,23,-1
 333 0 l 1,24,-1
 331 119 l 1,25,26
 309 82 309 82 287 44 c 0,27,28
 244 -11 244 -11 180 -11 c 0,29,30
 104 -11 104 -11 63 58 c 0,31,32
 30 115 30 115 30 197 c 0,33,34
 30 325 30 325 109 416 c 0,35,36
 191 511 191 511 317 511 c 0,37,38
 349 511 349 511 384 506.5 c 128,-1,39
 419 502 419 502 450 502 c 1,18,-1
EndSplineSet
EndChar

StartChar: adieresis
Encoding: 228 228 108
Width: 491
Flags: W
LayerCount: 2
Fore
SplineSet
424 546 m 0,0,1
 400 546 400 546 389.5 562 c 128,-1,2
 379 578 379 578 382 598 c 256,3,4
 385 618 385 618 400.5 634 c 128,-1,5
 416 650 416 650 440 650 c 0,6,7
 463 650 463 650 474 633.5 c 128,-1,8
 485 617 485 617 482 598 c 0,9,10
 479 578 479 578 463 562 c 128,-1,11
 447 546 447 546 424 546 c 0,0,1
214 546 m 0,12,13
 190 546 190 546 179.5 562 c 128,-1,14
 169 578 169 578 172 598 c 256,15,16
 175 618 175 618 190.5 634 c 128,-1,17
 206 650 206 650 230 650 c 256,18,19
 254 650 254 650 264.5 633.5 c 128,-1,20
 275 617 275 617 272 598 c 0,21,22
 269 578 269 578 253 562 c 128,-1,23
 237 546 237 546 214 546 c 0,12,13
365 437 m 1,24,25
 321 445 321 445 290 445 c 0,26,27
 205 445 205 445 156 370 c 0,28,29
 113 304 113 304 113 210 c 0,30,31
 113 64 113 64 203 64 c 0,32,33
 238 64 238 64 286 123.5 c 128,-1,34
 334 183 334 183 341 242 c 2,35,-1
 365 437 l 1,24,25
450 502 m 1,36,-1
 409 141 l 2,37,38
 407 125 407 125 407 105 c 0,39,40
 407 55 407 55 418 0 c 1,41,-1
 333 0 l 1,42,-1
 331 119 l 1,43,44
 309 82 309 82 287 44 c 0,45,46
 244 -11 244 -11 180 -11 c 0,47,48
 104 -11 104 -11 63 58 c 0,49,50
 30 115 30 115 30 197 c 0,51,52
 30 325 30 325 109 416 c 0,53,54
 191 511 191 511 317 511 c 0,55,56
 349 511 349 511 384 506.5 c 128,-1,57
 419 502 419 502 450 502 c 1,36,-1
EndSplineSet
EndChar

StartChar: atilde
Encoding: 227 227 109
Width: 525
Flags: W
LayerCount: 2
Fore
SplineSet
381 549 m 0,0,1
 353 549 353 549 312 583.5 c 128,-1,2
 271 618 271 618 256 618 c 0,3,4
 217 618 217 618 179 576 c 1,5,-1
 162 635 l 1,6,7
 180 656 180 656 211 670 c 128,-1,8
 242 684 242 684 267 685 c 0,9,10
 295 686 295 686 332 651.5 c 128,-1,11
 369 617 369 617 389 617 c 0,12,13
 413 617 413 617 443 642 c 1,14,-1
 460 582 l 1,15,16
 449 571 449 571 421 560 c 128,-1,17
 393 549 393 549 381 549 c 0,0,1
365 437 m 1,18,19
 321 445 321 445 290 445 c 0,20,21
 205 445 205 445 156 370 c 0,22,23
 113 304 113 304 113 210 c 0,24,25
 113 64 113 64 203 64 c 0,26,27
 238 64 238 64 286 123.5 c 128,-1,28
 334 183 334 183 341 242 c 2,29,-1
 365 437 l 1,18,19
450 502 m 1,30,-1
 409 141 l 2,31,32
 407 125 407 125 407 105 c 0,33,34
 407 55 407 55 418 0 c 1,35,-1
 333 0 l 1,36,-1
 331 119 l 1,37,38
 309 82 309 82 287 44 c 0,39,40
 244 -11 244 -11 180 -11 c 0,41,42
 104 -11 104 -11 63 58 c 0,43,44
 30 115 30 115 30 197 c 0,45,46
 30 325 30 325 109 416 c 0,47,48
 191 511 191 511 317 511 c 0,49,50
 349 511 349 511 384 506.5 c 128,-1,51
 419 502 419 502 450 502 c 1,30,-1
EndSplineSet
EndChar

StartChar: aring
Encoding: 229 229 110
Width: 491
Flags: W
LayerCount: 2
Fore
SplineSet
247 566 m 0,0,1
 211 566 211 566 190 585.5 c 128,-1,2
 169 605 169 605 169 637 c 0,3,4
 169 680 169 680 199.5 709.5 c 128,-1,5
 230 739 230 739 274 739 c 0,6,7
 310 739 310 739 331 719 c 128,-1,8
 352 699 352 699 352 668 c 0,9,10
 352 625 352 625 321 595.5 c 128,-1,11
 290 566 290 566 247 566 c 0,0,1
267 696 m 0,12,13
 225 696 225 696 218 653 c 0,14,15
 211 609 211 609 254 609 c 0,16,17
 296 609 296 609 303 653 c 0,18,19
 310 696 310 696 267 696 c 0,12,13
365 437 m 1,20,21
 321 445 321 445 290 445 c 0,22,23
 205 445 205 445 156 370 c 0,24,25
 113 304 113 304 113 210 c 0,26,27
 113 64 113 64 203 64 c 0,28,29
 238 64 238 64 286 123.5 c 128,-1,30
 334 183 334 183 341 242 c 2,31,-1
 365 437 l 1,20,21
450 502 m 1,32,-1
 409 141 l 2,33,34
 407 125 407 125 407 105 c 0,35,36
 407 55 407 55 418 0 c 1,37,-1
 333 0 l 1,38,-1
 331 119 l 1,39,40
 309 82 309 82 287 44 c 0,41,42
 244 -11 244 -11 180 -11 c 0,43,44
 104 -11 104 -11 63 58 c 0,45,46
 30 115 30 115 30 197 c 0,47,48
 30 325 30 325 109 416 c 0,49,50
 191 511 191 511 317 511 c 0,51,52
 349 511 349 511 384 506.5 c 128,-1,53
 419 502 419 502 450 502 c 1,32,-1
EndSplineSet
EndChar

StartChar: ccedilla
Encoding: 231 231 111
Width: 483
Flags: W
LayerCount: 2
Fore
SplineSet
224 -219 m 0,0,1
 160 -219 160 -219 146 -171 c 1,2,-1
 188 -137 l 1,3,4
 211 -169 211 -169 233 -169 c 0,5,6
 270 -169 270 -169 275 -135 c 0,7,8
 281 -96 281 -96 248 -96 c 0,9,10
 233 -96 233 -96 210 -111 c 1,11,-1
 168 -90 l 1,12,-1
 187 -6 l 1,13,14
 51 24 51 24 42 188 c 0,15,16
 35 313 35 313 103 406 c 0,17,18
 178 508 178 508 306 507 c 0,19,20
 393 507 393 507 456 454 c 1,21,-1
 407 388 l 1,22,23
 347 439 347 439 287 439 c 0,24,25
 207 439 207 439 160 352 c 0,26,27
 121 278 121 278 125 194 c 0,28,29
 128 129 128 129 167 91 c 0,30,31
 202 57 202 57 253 57 c 0,32,33
 325 57 325 57 392 112 c 1,34,-1
 426 60 l 1,35,36
 343 -12 343 -12 245 -12 c 2,37,-1
 243 -12 l 1,38,-1
 234 -47 l 1,39,40
 243 -43 243 -43 259 -43 c 0,41,42
 296 -43 296 -43 318 -66 c 0,43,44
 336 -87 336 -87 336 -117 c 0,45,46
 336 -162 336 -162 302.5 -190.5 c 128,-1,47
 269 -219 269 -219 224 -219 c 0,0,1
EndSplineSet
EndChar

StartChar: eacute
Encoding: 233 233 112
Width: 497
Flags: W
LayerCount: 2
Fore
SplineSet
275 557 m 1,0,-1
 238 616 l 1,1,-1
 463 712 l 1,2,-1
 500 647 l 1,3,-1
 275 557 l 1,0,-1
378 378 m 0,4,5
 378 413 378 413 356 427 c 128,-1,6
 334 441 334 441 283 441 c 0,7,8
 202 441 202 441 157 374 c 0,9,10
 129 332 129 332 121 285 c 1,11,12
 186 282 186 282 292 303 c 0,13,14
 379 320 379 320 378 378 c 0,4,5
115 227 m 1,15,16
 113 213 113 213 114 187 c 0,17,18
 115 158 115 158 129.5 124 c 128,-1,19
 144 90 144 90 182 71 c 0,20,21
 214 56 214 56 249 56 c 0,22,23
 306 56 306 56 388 120 c 1,24,-1
 421 64 l 1,25,26
 331 -12 331 -12 234 -12 c 0,27,28
 42 -12 42 -12 31 184 c 0,29,30
 24 312 24 312 91 404 c 0,31,32
 165 507 165 507 297 507 c 0,33,34
 365 507 365 507 407 475 c 0,35,36
 454 439 454 439 454 369 c 0,37,38
 454 325 454 325 413 288 c 0,39,40
 377 257 377 257 332 247 c 0,41,42
 229 224 229 224 165 224 c 0,43,44
 141 224 141 224 115 227 c 1,15,16
EndSplineSet
EndChar

StartChar: egrave
Encoding: 232 232 113
Width: 497
Flags: W
LayerCount: 2
Fore
SplineSet
418 556 m 1,0,-1
 223 646 l 1,1,-1
 280 711 l 1,2,-1
 475 615 l 1,3,-1
 418 556 l 1,0,-1
378 378 m 0,4,5
 378 413 378 413 356 427 c 128,-1,6
 334 441 334 441 283 441 c 0,7,8
 202 441 202 441 157 374 c 0,9,10
 129 332 129 332 121 285 c 1,11,12
 186 282 186 282 292 303 c 0,13,14
 379 320 379 320 378 378 c 0,4,5
115 227 m 1,15,16
 113 213 113 213 114 187 c 0,17,18
 115 158 115 158 129.5 124 c 128,-1,19
 144 90 144 90 182 71 c 0,20,21
 214 56 214 56 249 56 c 0,22,23
 306 56 306 56 388 120 c 1,24,-1
 421 64 l 1,25,26
 331 -12 331 -12 234 -12 c 0,27,28
 42 -12 42 -12 31 184 c 0,29,30
 24 312 24 312 91 404 c 0,31,32
 165 507 165 507 297 507 c 0,33,34
 365 507 365 507 407 475 c 0,35,36
 454 439 454 439 454 369 c 0,37,38
 454 325 454 325 413 288 c 0,39,40
 377 257 377 257 332 247 c 0,41,42
 229 224 229 224 165 224 c 0,43,44
 141 224 141 224 115 227 c 1,15,16
EndSplineSet
EndChar

StartChar: ecircumflex
Encoding: 234 234 114
Width: 497
Flags: W
LayerCount: 2
Fore
SplineSet
337 619 m 1,0,-1
 185 526 l 1,1,-1
 196 597 l 1,2,-1
 351 710 l 1,3,-1
 476 597 l 1,4,-1
 464 526 l 1,5,-1
 337 619 l 1,0,-1
378 378 m 0,6,7
 378 413 378 413 356 427 c 128,-1,8
 334 441 334 441 283 441 c 0,9,10
 202 441 202 441 157 374 c 0,11,12
 129 332 129 332 121 285 c 1,13,14
 186 282 186 282 292 303 c 0,15,16
 379 320 379 320 378 378 c 0,6,7
115 227 m 1,17,18
 113 213 113 213 114 187 c 0,19,20
 115 158 115 158 129.5 124 c 128,-1,21
 144 90 144 90 182 71 c 0,22,23
 214 56 214 56 249 56 c 0,24,25
 306 56 306 56 388 120 c 1,26,-1
 421 64 l 1,27,28
 331 -12 331 -12 234 -12 c 0,29,30
 42 -12 42 -12 31 184 c 0,31,32
 24 312 24 312 91 404 c 0,33,34
 165 507 165 507 297 507 c 0,35,36
 365 507 365 507 407 475 c 0,37,38
 454 439 454 439 454 369 c 0,39,40
 454 325 454 325 413 288 c 0,41,42
 377 257 377 257 332 247 c 0,43,44
 229 224 229 224 165 224 c 0,45,46
 141 224 141 224 115 227 c 1,17,18
EndSplineSet
EndChar

StartChar: edieresis
Encoding: 235 235 115
Width: 497
Flags: W
LayerCount: 2
Fore
SplineSet
445 546 m 0,0,1
 421 546 421 546 410.5 562 c 128,-1,2
 400 578 400 578 403 598 c 256,3,4
 406 618 406 618 421.5 634 c 128,-1,5
 437 650 437 650 461 650 c 0,6,7
 484 650 484 650 495 633.5 c 128,-1,8
 506 617 506 617 503 598 c 0,9,10
 500 578 500 578 484 562 c 128,-1,11
 468 546 468 546 445 546 c 0,0,1
235 546 m 0,12,13
 211 546 211 546 200.5 562 c 128,-1,14
 190 578 190 578 193 598 c 256,15,16
 196 618 196 618 211.5 634 c 128,-1,17
 227 650 227 650 251 650 c 256,18,19
 275 650 275 650 285.5 633.5 c 128,-1,20
 296 617 296 617 293 598 c 0,21,22
 290 578 290 578 274 562 c 128,-1,23
 258 546 258 546 235 546 c 0,12,13
378 378 m 0,24,25
 378 413 378 413 356 427 c 128,-1,26
 334 441 334 441 283 441 c 0,27,28
 202 441 202 441 157 374 c 0,29,30
 129 332 129 332 121 285 c 1,31,32
 186 282 186 282 292 303 c 0,33,34
 379 320 379 320 378 378 c 0,24,25
115 227 m 1,35,36
 113 213 113 213 114 187 c 0,37,38
 115 158 115 158 129.5 124 c 128,-1,39
 144 90 144 90 182 71 c 0,40,41
 214 56 214 56 249 56 c 0,42,43
 306 56 306 56 388 120 c 1,44,-1
 421 64 l 1,45,46
 331 -12 331 -12 234 -12 c 0,47,48
 42 -12 42 -12 31 184 c 0,49,50
 24 312 24 312 91 404 c 0,51,52
 165 507 165 507 297 507 c 0,53,54
 365 507 365 507 407 475 c 0,55,56
 454 439 454 439 454 369 c 0,57,58
 454 325 454 325 413 288 c 0,59,60
 377 257 377 257 332 247 c 0,61,62
 229 224 229 224 165 224 c 0,63,64
 141 224 141 224 115 227 c 1,35,36
EndSplineSet
EndChar

StartChar: iacute
Encoding: 237 237 116
Width: 234
Flags: W
LayerCount: 2
Fore
SplineSet
39 0 m 1,0,-1
 92 495 l 1,1,-1
 172 495 l 1,2,-1
 119 0 l 1,3,-1
 39 0 l 1,0,-1
67 557 m 1,4,-1
 28 616 l 1,5,-1
 248 712 l 1,6,-1
 288 647 l 1,7,-1
 67 557 l 1,4,-1
EndSplineSet
EndChar

StartChar: igrave
Encoding: 236 236 117
Width: 249
Flags: W
LayerCount: 2
Fore
SplineSet
39 0 m 1,0,-1
 92 495 l 1,1,-1
 172 495 l 1,2,-1
 119 0 l 1,3,-1
 39 0 l 1,0,-1
229 556 m 1,4,-1
 31 646 l 1,5,-1
 84 711 l 1,6,-1
 284 615 l 1,7,-1
 229 556 l 1,4,-1
EndSplineSet
EndChar

StartChar: icircumflex
Encoding: 238 238 118
Width: 210
Flags: W
LayerCount: 2
Fore
SplineSet
39 0 m 1,0,-1
 92 495 l 1,1,-1
 172 495 l 1,2,-1
 119 0 l 1,3,-1
 39 0 l 1,0,-1
143 619 m 1,4,-1
 -4 526 l 1,5,-1
 4 597 l 1,6,-1
 153 710 l 1,7,-1
 283 597 l 1,8,-1
 275 526 l 1,9,-1
 143 619 l 1,4,-1
EndSplineSet
EndChar

StartChar: idieresis
Encoding: 239 239 119
Width: 207
Flags: W
LayerCount: 2
Fore
SplineSet
43 0 m 1,0,-1
 95 495 l 1,1,-1
 175 495 l 1,2,-1
 123 0 l 1,3,-1
 43 0 l 1,0,-1
238 546 m 256,4,5
 214 546 214 546 203 562 c 128,-1,6
 192 578 192 578 194 598 c 256,7,8
 196 618 196 618 210.5 634 c 128,-1,9
 225 650 225 650 249 650 c 0,10,11
 272 650 272 650 284 633.5 c 128,-1,12
 296 617 296 617 294 598 c 0,13,14
 292 578 292 578 277 562 c 128,-1,15
 262 546 262 546 238 546 c 256,4,5
28 546 m 0,16,17
 5 546 5 546 -6 562 c 128,-1,18
 -17 578 -17 578 -15 598 c 256,19,20
 -13 618 -13 618 1.5 634 c 128,-1,21
 16 650 16 650 39 650 c 0,22,23
 63 650 63 650 74.5 634 c 128,-1,24
 86 618 86 618 84 598 c 256,25,26
 82 578 82 578 67 562 c 128,-1,27
 52 546 52 546 28 546 c 0,16,17
EndSplineSet
EndChar

StartChar: ntilde
Encoding: 241 241 120
Width: 486
Flags: W
LayerCount: 2
Fore
SplineSet
340 0 m 1,0,-1
 374 325 l 2,1,2
 375 336 375 336 375 346 c 0,3,4
 375 395 375 395 349 421 c 0,5,6
 326 443 326 443 293 443 c 0,7,8
 252 443 252 443 204 411 c 0,9,10
 150 374 150 374 145 328 c 2,11,-1
 111 0 l 1,12,-1
 32 0 l 1,13,-1
 84 495 l 1,14,-1
 163 495 l 1,15,-1
 157 439 l 1,16,17
 206 480 206 480 238 495.5 c 128,-1,18
 270 511 270 511 309 511 c 0,19,20
 367 511 367 511 410 470 c 0,21,22
 456 425 456 425 456 358 c 0,23,24
 456 348 456 348 455 338 c 2,25,-1
 419 0 l 1,26,-1
 340 0 l 1,0,-1
355 549 m 0,27,28
 327 549 327 549 284.5 583.5 c 128,-1,29
 242 618 242 618 226 618 c 0,30,31
 187 618 187 618 152 576 c 1,32,-1
 132 635 l 1,33,34
 148 656 148 656 180 670 c 0,35,36
 209 684 209 684 233 685 c 0,37,38
 261 686 261 686 300.5 651.5 c 128,-1,39
 340 617 340 617 360 617 c 0,40,41
 383 617 383 617 413 642 c 1,42,-1
 432 582 l 1,43,44
 421 571 421 571 394 560 c 128,-1,45
 367 549 367 549 355 549 c 0,27,28
EndSplineSet
EndChar

StartChar: oacute
Encoding: 243 243 121
Width: 543
Flags: W
LayerCount: 2
Fore
SplineSet
242 -11 m 0,0,1
 123 -11 123 -11 70 68 c 0,2,3
 32 125 32 125 32 214 c 0,4,5
 32 233 32 233 34 252 c 0,6,7
 47 381 47 381 136 453 c 0,8,9
 209 512 209 512 299 512 c 0,10,11
 379 512 379 512 437 461 c 0,12,13
 505 401 505 401 505 291 c 0,14,15
 505 272 505 272 503 252 c 0,16,17
 493 163 493 163 439 89 c 0,18,19
 365 -11 365 -11 242 -11 c 0,0,1
296 445 m 0,20,21
 209 445 209 445 159 369 c 0,22,23
 117 304 117 304 117 213 c 0,24,25
 117 144 117 144 147 102 c 0,26,27
 180 54 180 54 245 54 c 0,28,29
 329 54 329 54 377 131 c 0,30,31
 417 196 417 196 417 286 c 0,32,33
 417 355 417 355 389 397 c 0,34,35
 357 445 357 445 296 445 c 0,20,21
247 557 m 1,36,-1
 206 616 l 1,37,-1
 426 712 l 1,38,-1
 466 647 l 1,39,-1
 247 557 l 1,36,-1
EndSplineSet
EndChar

StartChar: ograve
Encoding: 242 242 122
Width: 543
Flags: W
LayerCount: 2
Fore
SplineSet
242 -11 m 0,0,1
 123 -11 123 -11 70 68 c 0,2,3
 32 125 32 125 32 214 c 0,4,5
 32 233 32 233 34 252 c 0,6,7
 47 381 47 381 136 453 c 0,8,9
 209 512 209 512 299 512 c 0,10,11
 380 512 380 512 437 461 c 0,12,13
 505 401 505 401 505 291 c 0,14,15
 505 272 505 272 503 252 c 0,16,17
 493 163 493 163 439 89 c 0,18,19
 365 -11 365 -11 242 -11 c 0,0,1
296 445 m 0,20,21
 209 445 209 445 159 369 c 0,22,23
 117 304 117 304 117 213 c 0,24,25
 117 144 117 144 147 102 c 0,26,27
 180 54 180 54 245 54 c 0,28,29
 329 54 329 54 377 131 c 0,30,31
 417 196 417 196 417 286 c 0,32,33
 417 355 417 355 389 397 c 0,34,35
 357 445 357 445 296 445 c 0,20,21
409 556 m 1,36,-1
 209 646 l 1,37,-1
 263 711 l 1,38,-1
 463 615 l 1,39,-1
 409 556 l 1,36,-1
EndSplineSet
EndChar

StartChar: ocircumflex
Encoding: 244 244 123
Width: 543
Flags: W
LayerCount: 2
Fore
SplineSet
242 -11 m 0,0,1
 123 -11 123 -11 70 68 c 0,2,3
 32 125 32 125 32 214 c 0,4,5
 32 233 32 233 34 252 c 0,6,7
 47 381 47 381 136 453 c 0,8,9
 209 512 209 512 299 512 c 0,10,11
 380 512 380 512 437 461 c 0,12,13
 505 401 505 401 505 291 c 0,14,15
 505 272 505 272 503 252 c 0,16,17
 493 163 493 163 439 89 c 0,18,19
 365 -11 365 -11 242 -11 c 0,0,1
296 445 m 0,20,21
 209 445 209 445 159 369 c 0,22,23
 117 304 117 304 117 213 c 0,24,25
 117 144 117 144 147 102 c 0,26,27
 180 54 180 54 245 54 c 0,28,29
 329 54 329 54 377 131 c 0,30,31
 417 196 417 196 417 286 c 0,32,33
 417 355 417 355 389 397 c 0,34,35
 358 445 358 445 296 445 c 0,20,21
312 619 m 1,36,-1
 165 526 l 1,37,-1
 172 597 l 1,38,-1
 321 710 l 1,39,-1
 451 597 l 1,40,-1
 444 526 l 1,41,-1
 312 619 l 1,36,-1
EndSplineSet
EndChar

StartChar: odieresis
Encoding: 246 246 124
Width: 543
Flags: W
LayerCount: 2
Fore
SplineSet
245 -11 m 0,0,1
 127 -11 127 -11 73 68 c 0,2,3
 35 125 35 125 35 214 c 0,4,5
 35 233 35 233 37 252 c 0,6,7
 50 381 50 381 139 453 c 0,8,9
 212 512 212 512 302 512 c 0,10,11
 383 512 383 512 440 461 c 0,12,13
 508 401 508 401 508 291 c 0,14,15
 508 272 508 272 506 252 c 0,16,17
 496 163 496 163 442 89 c 0,18,19
 368 -11 368 -11 245 -11 c 0,0,1
299 445 m 0,20,21
 212 445 212 445 163 369 c 0,22,23
 120 304 120 304 120 213 c 0,24,25
 120 144 120 144 150 102 c 0,26,27
 183 54 183 54 248 54 c 0,28,29
 333 54 333 54 380 131 c 0,30,31
 421 196 421 196 421 286 c 0,32,33
 421 355 421 355 393 397 c 0,34,35
 361 445 361 445 299 445 c 0,20,21
410 546 m 0,36,37
 386 546 386 546 374.5 562 c 128,-1,38
 363 578 363 578 366 598 c 0,39,40
 368 618 368 618 382.5 634 c 128,-1,41
 397 650 397 650 421 650 c 0,42,43
 444 650 444 650 456 633.5 c 128,-1,44
 468 617 468 617 466 598 c 0,45,46
 463 578 463 578 448 562 c 128,-1,47
 433 546 433 546 410 546 c 0,36,37
201 546 m 0,48,49
 177 546 177 546 165.5 562 c 128,-1,50
 154 578 154 578 157 598 c 0,51,52
 159 618 159 618 173.5 634 c 128,-1,53
 188 650 188 650 212 650 c 0,54,55
 235 650 235 650 246.5 634 c 128,-1,56
 258 618 258 618 256 598 c 0,57,58
 253 578 253 578 240 563 c 0,59,60
 224 546 224 546 201 546 c 0,48,49
EndSplineSet
EndChar

StartChar: otilde
Encoding: 245 245 125
Width: 543
Flags: W
LayerCount: 2
Fore
SplineSet
243 -11 m 0,0,1
 125 -11 125 -11 72 68 c 0,2,3
 33 125 33 125 33 214 c 0,4,5
 33 233 33 233 35 252 c 0,6,7
 49 381 49 381 137 453 c 0,8,9
 210 512 210 512 301 512 c 0,10,11
 381 512 381 512 438 461 c 0,12,13
 506 401 506 401 506 291 c 0,14,15
 506 272 506 272 504 252 c 0,16,17
 495 163 495 163 440 89 c 0,18,19
 367 -11 367 -11 243 -11 c 0,0,1
297 445 m 0,20,21
 210 445 210 445 161 369 c 0,22,23
 119 304 119 304 119 213 c 0,24,25
 119 144 119 144 148 102 c 0,26,27
 182 54 182 54 246 54 c 0,28,29
 331 54 331 54 378 131 c 0,30,31
 419 196 419 196 419 286 c 0,32,33
 419 355 419 355 391 397 c 0,34,35
 359 445 359 445 297 445 c 0,20,21
386 549 m 0,36,37
 359 549 359 549 316.5 583.5 c 128,-1,38
 274 618 274 618 259 618 c 0,39,40
 220 618 220 618 184 576 c 1,41,-1
 164 635 l 1,42,43
 180 656 180 656 212 670 c 0,44,45
 241 684 241 684 266 685 c 0,46,47
 293 686 293 686 332.5 651.5 c 128,-1,48
 372 617 372 617 392 617 c 0,49,50
 417 617 417 617 444 642 c 1,51,-1
 464 582 l 1,52,53
 454 571 454 571 426.5 560 c 128,-1,54
 399 549 399 549 386 549 c 0,36,37
EndSplineSet
EndChar

StartChar: uacute
Encoding: 250 250 126
Width: 482
Flags: W
LayerCount: 2
Fore
SplineSet
414 0 m 1,0,-1
 343 0 l 1,1,2
 342 14 342 14 339 52 c 1,3,4
 256 -18 256 -18 177 -18 c 0,5,6
 123 -18 123 -18 85 23 c 128,-1,7
 47 64 47 64 47 134 c 0,8,9
 47 147 47 147 48 160 c 2,10,-1
 84 495 l 1,11,-1
 163 495 l 1,12,-1
 128 164 l 2,13,14
 126 152 126 152 126 141 c 0,15,16
 126 53 126 53 204 53 c 0,17,18
 251 53 251 53 300.5 90.5 c 128,-1,19
 350 128 350 128 354 164 c 2,20,-1
 389 495 l 1,21,-1
 467 495 l 1,22,-1
 414 0 l 1,0,-1
205 557 m 1,23,-1
 165 616 l 1,24,-1
 385 712 l 1,25,-1
 425 647 l 1,26,-1
 205 557 l 1,23,-1
EndSplineSet
EndChar

StartChar: ugrave
Encoding: 249 249 127
Width: 482
Flags: W
LayerCount: 2
Fore
SplineSet
414 0 m 1,0,-1
 343 0 l 1,1,2
 342 14 342 14 339 52 c 1,3,4
 256 -18 256 -18 177 -18 c 0,5,6
 123 -18 123 -18 87 22 c 0,7,8
 47 64 47 64 47 134 c 0,9,10
 47 147 47 147 48 160 c 2,11,-1
 84 495 l 1,12,-1
 163 495 l 1,13,-1
 128 164 l 2,14,15
 126 152 126 152 126 141 c 0,16,17
 126 53 126 53 204 53 c 0,18,19
 251 53 251 53 300.5 90.5 c 128,-1,20
 350 128 350 128 354 164 c 2,21,-1
 389 495 l 1,22,-1
 467 495 l 1,23,-1
 414 0 l 1,0,-1
377 556 m 1,24,-1
 179 646 l 1,25,-1
 232 711 l 1,26,-1
 432 615 l 1,27,-1
 377 556 l 1,24,-1
EndSplineSet
EndChar

StartChar: ucircumflex
Encoding: 251 251 128
Width: 482
Flags: W
LayerCount: 2
Fore
SplineSet
414 0 m 1,0,-1
 343 0 l 1,1,2
 342 14 342 14 339 52 c 1,3,4
 256 -18 256 -18 177 -18 c 0,5,6
 124 -18 124 -18 87 22 c 0,7,8
 47 64 47 64 47 134 c 0,9,10
 47 147 47 147 48 160 c 2,11,-1
 84 495 l 1,12,-1
 163 495 l 1,13,-1
 128 164 l 2,14,15
 126 152 126 152 126 141 c 0,16,17
 126 53 126 53 204 53 c 0,18,19
 251 53 251 53 300.5 90.5 c 128,-1,20
 350 128 350 128 354 164 c 2,21,-1
 389 495 l 1,22,-1
 467 495 l 1,23,-1
 414 0 l 1,0,-1
291 619 m 1,24,-1
 144 526 l 1,25,-1
 152 597 l 1,26,-1
 301 710 l 1,27,-1
 431 597 l 1,28,-1
 423 526 l 1,29,-1
 291 619 l 1,24,-1
EndSplineSet
EndChar

StartChar: udieresis
Encoding: 252 252 129
Width: 482
Flags: W
LayerCount: 2
Fore
SplineSet
418 0 m 1,0,-1
 347 0 l 1,1,2
 345 14 345 14 342 52 c 1,3,4
 259 -18 259 -18 181 -18 c 0,5,6
 127 -18 127 -18 90 22 c 0,7,8
 50 64 50 64 50 134 c 0,9,10
 50 147 50 147 51 160 c 2,11,-1
 87 495 l 1,12,-1
 166 495 l 1,13,-1
 131 164 l 2,14,15
 130 152 130 152 130 141 c 0,16,17
 130 53 130 53 207 53 c 0,18,19
 254 53 254 53 303.5 90.5 c 128,-1,20
 353 128 353 128 357 164 c 2,21,-1
 392 495 l 1,22,-1
 470 495 l 1,23,-1
 418 0 l 1,0,-1
389 546 m 256,24,25
 365 546 365 546 354 562 c 128,-1,26
 343 578 343 578 345 598 c 256,27,28
 347 618 347 618 361.5 634 c 128,-1,29
 376 650 376 650 400 650 c 0,30,31
 423 650 423 650 435 633.5 c 128,-1,32
 447 617 447 617 445 598 c 0,33,34
 443 578 443 578 428 562 c 128,-1,35
 413 546 413 546 389 546 c 256,24,25
180 546 m 0,36,37
 156 546 156 546 145 562 c 128,-1,38
 134 578 134 578 136 598 c 256,39,40
 138 618 138 618 152.5 634 c 128,-1,41
 167 650 167 650 191 650 c 0,42,43
 214 650 214 650 225.5 634 c 128,-1,44
 237 618 237 618 235 598 c 256,45,46
 233 578 233 578 218 562 c 128,-1,47
 203 546 203 546 180 546 c 0,36,37
EndSplineSet
EndChar

StartChar: dagger
Encoding: 257 8224 130
Width: 221
Flags: W
LayerCount: 2
Fore
SplineSet
192 559 m 1,0,-1
 122 559 l 1,1,-1
 122 333 l 1,2,-1
 83 333 l 1,3,-1
 83 559 l 1,4,-1
 23 559 l 1,5,-1
 23 593 l 1,6,-1
 83 593 l 1,7,-1
 83 655 l 1,8,-1
 122 655 l 1,9,-1
 122 593 l 1,10,-1
 192 593 l 1,11,-1
 192 559 l 1,0,-1
EndSplineSet
EndChar

StartChar: degree
Encoding: 176 176 131
Width: 273
Flags: W
LayerCount: 2
Fore
SplineSet
152 712 m 0,0,1
 208 712 208 712 241 674.5 c 128,-1,2
 274 637 274 637 268 582 c 256,3,4
 262 527 262 527 221 489.5 c 128,-1,5
 180 452 180 452 124 452 c 256,6,7
 68 452 68 452 33.5 490 c 128,-1,8
 -1 528 -1 528 5 582 c 256,9,10
 11 636 11 636 53 674 c 128,-1,11
 95 712 95 712 152 712 c 0,0,1
146 662 m 256,12,13
 112 662 112 662 87 639 c 128,-1,14
 62 616 62 616 58 582 c 256,15,16
 54 548 54 548 74.5 525 c 128,-1,17
 95 502 95 502 130 502 c 0,18,19
 163 502 163 502 187 525 c 128,-1,20
 211 548 211 548 215 582 c 256,21,22
 219 616 219 616 199.5 639 c 128,-1,23
 180 662 180 662 146 662 c 256,12,13
EndSplineSet
EndChar

StartChar: cent
Encoding: 162 162 132
Width: 479
Flags: W
LayerCount: 2
Fore
SplineSet
197 -10 m 1,0,1
 106 4 106 4 65 79 c 0,2,3
 35 133 35 133 35 208 c 0,4,5
 35 226 35 226 37 242 c 0,6,7
 50 360 50 360 115 430 c 0,8,9
 170 490 170 490 252 504 c 1,10,-1
 261 590 l 1,11,-1
 350 590 l 1,12,-1
 341 505 l 1,13,14
 403 494 403 494 451 454 c 1,15,-1
 400 386 l 1,16,17
 343 435 343 435 280 435 c 0,18,19
 213 435 213 435 170 376 c 0,20,21
 131 323 131 323 122 238 c 0,22,23
 120 223 120 223 120 209 c 0,24,25
 120 137 120 137 160 97 c 0,26,27
 195 61 195 61 249 61 c 0,28,29
 324 61 324 61 389 114 c 1,30,-1
 423 60 l 1,31,32
 359 3 359 3 286 -9 c 1,33,-1
 278 -89 l 1,34,-1
 189 -89 l 1,35,-1
 197 -10 l 1,0,1
EndSplineSet
EndChar

StartChar: sterling
Encoding: 163 163 133
Width: 476
Flags: W
LayerCount: 2
Fore
SplineSet
391 -7 m 1,0,1
 340 7 340 7 264 7 c 0,2,3
 132 7 132 7 44 -14 c 1,4,-1
 41 54 l 1,5,6
 56 58 56 58 81 67 c 0,7,8
 87 69 87 69 99 80 c 0,9,10
 137 113 137 113 143 171 c 0,11,12
 150 236 150 236 143 301 c 1,13,-1
 83 301 l 1,14,-1
 90 370 l 1,15,-1
 143 370 l 1,16,17
 138 460 138 460 139 476 c 0,18,19
 148 553 148 553 194 602 c 0,20,21
 244 656 244 656 325 656 c 0,22,23
 387 656 387 656 439 624 c 1,24,-1
 403 563 l 1,25,26
 345 592 345 592 324 592 c 0,27,28
 278 592 278 592 246.5 555.5 c 128,-1,29
 215 519 215 519 210 472 c 0,30,31
 208 451 208 451 211 421 c 0,32,33
 213 395 213 395 216 370 c 1,34,-1
 352 370 l 1,35,-1
 345 301 l 1,36,37
 227 301 227 301 226 301 c 1,38,39
 225 240 225 240 219 178 c 0,40,41
 211 101 211 101 178 76 c 1,42,43
 258 87 258 87 288 87 c 0,44,45
 356 87 356 87 415 70 c 1,46,-1
 391 -7 l 1,0,1
EndSplineSet
EndChar

StartChar: section
Encoding: 167 167 134
Width: 392
Flags: W
LayerCount: 2
Fore
SplineSet
157 -87 m 0,0,1
 80 -87 80 -87 32 -35 c 1,2,-1
 69 14 l 1,3,4
 108 -31 108 -31 168 -31 c 0,5,6
 195 -31 195 -31 218 -11 c 0,7,8
 238 8 238 8 240 27 c 0,9,10
 242 52 242 52 223 66 c 0,11,12
 211 74 211 74 181 82 c 0,13,14
 168 85 168 85 144 92 c 0,15,16
 134 94 134 94 127 98 c 1,17,18
 65 120 65 120 71 183 c 0,19,20
 78 243 78 243 127 274 c 1,21,22
 83 298 83 298 89 351 c 0,23,24
 95 408 95 408 137 439 c 0,25,26
 174 467 174 467 222 466 c 0,27,28
 275 465 275 465 327 431 c 1,29,-1
 299 381 l 1,30,31
 249 415 249 415 215 415 c 0,32,33
 182 415 182 415 168 402 c 128,-1,34
 154 389 154 389 151 357 c 0,35,36
 149 340 149 340 175 328 c 0,37,38
 195 322 195 322 237 310 c 0,39,40
 331 282 331 282 323 208 c 0,41,42
 316 147 316 147 272 117 c 1,43,44
 310 93 310 93 305 40 c 0,45,46
 299 -22 299 -22 254 -56 c 0,47,48
 214 -87 214 -87 157 -87 c 0,0,1
189 253 m 1,49,50
 139 247 139 247 133 189 c 0,51,52
 131 167 131 167 183 152 c 0,53,54
 193 149 193 149 213 143 c 1,55,56
 254 160 254 160 258 195 c 0,57,58
 260 221 260 221 240 234 c 0,59,60
 227 243 227 243 189 253 c 1,49,50
EndSplineSet
EndChar

StartChar: bullet
Encoding: 258 8226 135
Width: 282
Flags: W
LayerCount: 2
Fore
SplineSet
129 190 m 256,0,1
 91 190 91 190 67 218.5 c 128,-1,2
 43 247 43 247 48 291 c 0,3,4
 53 334 53 334 83 362.5 c 128,-1,5
 113 391 113 391 151 391 c 0,6,7
 188 391 188 391 212 362.5 c 128,-1,8
 236 334 236 334 231 291 c 256,9,10
 226 248 226 248 196.5 219 c 128,-1,11
 167 190 167 190 129 190 c 256,0,1
EndSplineSet
EndChar

StartChar: paragraph
Encoding: 182 182 136
Width: 507
Flags: W
LayerCount: 2
Fore
SplineSet
437 0 m 1,0,-1
 368 0 l 1,1,-1
 368 642 l 1,2,-1
 437 642 l 1,3,-1
 437 0 l 1,0,-1
297 0 m 1,4,-1
 228 0 l 1,5,-1
 228 337 l 1,6,-1
 203 337 l 2,7,8
 49 337 49 337 50 493 c 0,9,10
 50 575 50 575 89 610 c 0,11,12
 125 642 125 642 206 642 c 2,13,-1
 297 642 l 1,14,-1
 297 0 l 1,4,-1
EndSplineSet
EndChar

StartChar: germandbls
Encoding: 223 223 137
Width: 549
Flags: W
LayerCount: 2
Fore
SplineSet
295 -15 m 0,0,1
 233 -15 233 -15 195 -1 c 0,2,3
 152 16 152 16 119 58 c 1,4,-1
 168 123 l 1,5,6
 193 82 193 82 224 69 c 0,7,8
 248 59 248 59 298 59 c 0,9,10
 336 59 336 59 365.5 82 c 128,-1,11
 395 105 395 105 399 138 c 0,12,13
 404 190 404 190 329 216 c 0,14,15
 290 229 290 229 251 241 c 0,16,17
 206 258 206 258 186 281 c 0,18,19
 160 311 160 311 165 360 c 0,20,21
 174 445 174 445 231 484 c 0,22,23
 274 514 274 514 336 514 c 0,24,25
 356 514 356 514 375 511 c 1,26,27
 383 521 383 521 391 538 c 1,28,29
 391 545 391 545 392 564 c 0,30,31
 396 601 396 601 360.5 625 c 128,-1,32
 325 649 325 649 281 649 c 0,33,34
 228 649 228 649 194 620 c 0,35,36
 156 588 156 588 150 529 c 2,37,-1
 94 0 l 1,38,-1
 16 0 l 1,39,-1
 72 529 l 2,40,41
 92 715 92 715 293 715 c 0,42,43
 376 715 376 715 423.5 673.5 c 128,-1,44
 471 632 471 632 471 560 c 0,45,46
 471 540 471 540 467 521 c 0,47,48
 460 481 460 481 422 428 c 1,49,50
 378 444 378 444 328 447 c 0,51,52
 296 449 296 449 271 428 c 128,-1,53
 246 407 246 407 243 375 c 0,54,55
 240 351 240 351 266 334 c 0,56,57
 284 323 284 323 332 307 c 0,58,59
 397 286 397 286 409 281 c 0,60,61
 453 261 453 261 469 233 c 0,62,63
 487 199 487 199 481 144 c 0,64,65
 474 79 474 79 418 32 c 128,-1,66
 362 -15 362 -15 295 -15 c 0,0,1
EndSplineSet
EndChar

StartChar: registered
Encoding: 174 174 138
Width: 796
Flags: W
LayerCount: 2
Fore
SplineSet
133 316 m 1,0,-1
 132 316 l 1,1,2
 132 206 132 206 210 128 c 128,-1,3
 288 50 288 50 398 50 c 256,4,5
 508 50 508 50 586 128 c 128,-1,6
 664 206 664 206 664 316 c 256,7,8
 664 426 664 426 586 504 c 128,-1,9
 508 582 508 582 398 582 c 256,10,11
 288 582 288 582 210.5 504 c 128,-1,12
 133 426 133 426 133 316 c 1,0,-1
67 316 m 256,13,14
 67 453 67 453 164 550 c 128,-1,15
 261 647 261 647 398 647 c 256,16,17
 535 647 535 647 632 550 c 128,-1,18
 729 453 729 453 729 316 c 256,19,20
 729 179 729 179 632 82 c 128,-1,21
 535 -15 535 -15 398 -15 c 256,22,23
 261 -15 261 -15 164 82 c 128,-1,24
 67 179 67 179 67 316 c 256,13,14
491 108 m 1,25,26
 457 142 457 142 415 202 c 0,27,28
 388 241 388 241 352 300 c 1,29,-1
 323 299 l 1,30,-1
 323 114 l 1,31,-1
 266 114 l 1,32,-1
 266 524 l 1,33,34
 363 526 363 526 395 526 c 0,35,36
 507 525 507 525 506 413 c 0,37,38
 505 322 505 322 408 304 c 1,39,40
 442 257 442 257 477 211 c 0,41,42
 501 180 501 180 562 121 c 1,43,-1
 491 108 l 1,25,26
379 487 m 2,44,-1
 323 486 l 1,45,-1
 323 342 l 1,46,-1
 365 342 l 2,47,48
 416 342 416 342 435 361 c 128,-1,49
 454 380 454 380 454 420 c 0,50,51
 454 488 454 488 379 487 c 2,44,-1
EndSplineSet
EndChar

StartChar: copyright
Encoding: 169 169 139
Width: 796
Flags: W
LayerCount: 2
Fore
SplineSet
396 102 m 0,0,1
 309 102 309 102 260 169 c 0,2,3
 217 228 217 228 217 318 c 0,4,5
 217 403 217 403 261 462 c 0,6,7
 311 529 311 529 398 530 c 0,8,9
 458 530 458 530 519 495 c 1,10,-1
 495 444 l 1,11,12
 436 480 436 480 401 480 c 0,13,14
 337 480 337 480 302 419 c 0,15,16
 275 371 275 371 275 310 c 0,17,18
 275 242 275 242 310 197.5 c 128,-1,19
 345 153 345 153 396 153 c 0,20,21
 449 153 449 153 498 181 c 1,22,-1
 523 139 l 1,23,24
 453 102 453 102 396 102 c 0,0,1
132 316 m 256,25,26
 132 206 132 206 210 128 c 128,-1,27
 288 50 288 50 398 50 c 256,28,29
 508 50 508 50 586 128 c 128,-1,30
 664 206 664 206 664 316 c 256,31,32
 664 426 664 426 586 504 c 128,-1,33
 508 582 508 582 398 582 c 256,34,35
 288 582 288 582 210 504 c 128,-1,36
 132 426 132 426 132 316 c 256,25,26
67 316 m 256,37,38
 67 453 67 453 164 550 c 128,-1,39
 261 647 261 647 398 647 c 256,40,41
 535 647 535 647 632 550 c 128,-1,42
 729 453 729 453 729 316 c 256,43,44
 729 179 729 179 632 82 c 128,-1,45
 535 -15 535 -15 398 -15 c 256,46,47
 261 -15 261 -15 164 82 c 128,-1,48
 67 179 67 179 67 316 c 256,37,38
EndSplineSet
EndChar

StartChar: trademark
Encoding: 259 8482 140
Width: 641
Flags: W
LayerCount: 2
Fore
SplineSet
157 315 m 1,0,-1
 93 315 l 1,1,-1
 122 590 l 1,2,-1
 27 590 l 1,3,-1
 32 642 l 1,4,-1
 280 642 l 1,5,-1
 275 590 l 1,6,-1
 186 590 l 1,7,-1
 157 315 l 1,0,-1
559 514 m 1,8,-1
 462 315 l 1,9,-1
 408 315 l 1,10,-1
 352 516 l 1,11,-1
 331 315 l 1,12,-1
 271 315 l 1,13,-1
 305 644 l 1,14,-1
 383 644 l 1,15,-1
 448 415 l 1,16,-1
 561 644 l 1,17,-1
 636 644 l 1,18,-1
 602 315 l 1,19,-1
 538 315 l 1,20,-1
 559 514 l 1,8,-1
EndSplineSet
EndChar

StartChar: acute
Encoding: 260 180 141
Width: 329
Flags: W
LayerCount: 2
Fore
SplineSet
96 557 m 1,0,-1
 55 616 l 1,1,-1
 275 712 l 1,2,-1
 315 647 l 1,3,-1
 96 557 l 1,0,-1
EndSplineSet
EndChar

StartChar: dieresis
Encoding: 261 168 142
Width: 306
Flags: W
LayerCount: 2
Fore
SplineSet
249 546 m 256,0,1
 225 546 225 546 214 562 c 128,-1,2
 203 578 203 578 205 598 c 256,3,4
 207 618 207 618 221.5 634 c 128,-1,5
 236 650 236 650 261 650 c 0,6,7
 284 650 284 650 295.5 633.5 c 128,-1,8
 307 617 307 617 305 598 c 0,9,10
 303 578 303 578 288 562 c 128,-1,11
 273 546 273 546 249 546 c 256,0,1
39 546 m 0,12,13
 16 546 16 546 4.5 562 c 128,-1,14
 -7 578 -7 578 -5 598 c 256,15,16
 -3 618 -3 618 12 634 c 128,-1,17
 27 650 27 650 51 650 c 0,18,19
 74 650 74 650 85.5 634 c 128,-1,20
 97 618 97 618 95 598 c 256,21,22
 93 578 93 578 78 562 c 128,-1,23
 63 546 63 546 39 546 c 0,12,13
EndSplineSet
EndChar

StartChar: notequal
Encoding: 262 8800 143
Width: 441
Flags: W
LayerCount: 2
Fore
SplineSet
134 -15 m 1,0,-1
 75 6 l 1,1,-1
 133 135 l 1,2,-1
 38 135 l 1,3,-1
 45 200 l 1,4,-1
 162 200 l 1,5,-1
 201 287 l 1,6,-1
 54 287 l 1,7,-1
 61 352 l 1,8,-1
 231 352 l 1,9,-1
 313 534 l 1,10,-1
 372 513 l 1,11,-1
 300 352 l 1,12,-1
 399 352 l 1,13,-1
 392 287 l 1,14,-1
 270 287 l 1,15,-1
 231 200 l 1,16,-1
 383 200 l 1,17,-1
 376 135 l 1,18,-1
 202 135 l 1,19,-1
 134 -15 l 1,0,-1
EndSplineSet
EndChar

StartChar: AE
Encoding: 198 198 144
Width: 862
Flags: W
LayerCount: 2
Fore
SplineSet
305 551 m 1,0,-1
 182 248 l 1,1,-1
 366 248 l 1,2,-1
 305 551 l 1,0,-1
578 568 m 1,3,-1
 558 375 l 1,4,-1
 810 375 l 1,5,-1
 802 300 l 1,6,-1
 550 301 l 1,7,-1
 526 76 l 1,8,-1
 793 77 l 1,9,-1
 785 0 l 1,10,-1
 415 0 l 1,11,-1
 379 179 l 1,12,-1
 154 179 l 1,13,-1
 76 -10 l 1,14,-1
 -5 0 l 1,15,-1
 277 654 l 1,16,-1
 357 654 l 1,17,-1
 453 227 l 1,18,-1
 497 640 l 1,19,-1
 856 640 l 1,20,-1
 848 568 l 1,21,-1
 578 568 l 1,3,-1
EndSplineSet
EndChar

StartChar: Oslash
Encoding: 216 216 145
Width: 644
Flags: W
LayerCount: 2
Fore
SplineSet
194 93 m 1,0,-1
 390 568 l 1,1,2
 374 572 374 572 352 572 c 0,3,4
 247 572 247 572 177 475 c 0,5,6
 114 388 114 388 114 279 c 0,7,8
 114 153 114 153 194 93 c 1,0,-1
461 533 m 1,9,-1
 267 63 l 1,10,11
 285 61 285 61 293 61 c 0,12,13
 397 61 397 61 468 155 c 0,14,15
 534 242 534 242 534 349 c 0,16,17
 534 470 534 470 461 533 c 1,9,-1
437 682 m 1,18,-1
 512 658 l 1,19,-1
 493 612 l 1,20,21
 617 541 617 541 617 367 c 0,22,23
 617 345 617 345 615 322 c 0,24,25
 598 162 598 162 501 70 c 0,26,27
 412 -16 412 -16 285 -16 c 0,28,29
 257 -16 257 -16 236 -12 c 1,30,-1
 213 -69 l 1,31,-1
 138 -45 l 1,32,-1
 161 12 l 1,33,34
 31 80 31 80 31 266 c 0,35,36
 31 293 31 293 34 322 c 0,37,38
 49 463 49 463 141.5 554.5 c 128,-1,39
 234 646 234 646 362 646 c 0,40,41
 393 646 393 646 419 640 c 1,42,-1
 437 682 l 1,18,-1
EndSplineSet
EndChar

StartChar: infinity
Encoding: 263 8734 146
Width: 536
Flags: W
LayerCount: 2
Fore
SplineSet
369 264 m 0,0,1
 295 264 295 264 260 320 c 1,2,3
 211 264 211 264 138 264 c 0,4,5
 78 264 78 264 40.5 303.5 c 128,-1,6
 3 343 3 343 9 398 c 256,7,8
 15 453 15 453 60.5 492 c 128,-1,9
 106 531 106 531 166 531 c 0,10,11
 239 531 239 531 276 476 c 1,12,13
 324 531 324 531 397 531 c 0,14,15
 456 531 456 531 494 492 c 128,-1,16
 532 453 532 453 526 398 c 256,17,18
 520 343 520 343 474 303.5 c 128,-1,19
 428 264 428 264 369 264 c 0,0,1
392 482 m 0,20,21
 356 482 356 482 327.5 457.5 c 128,-1,22
 299 433 299 433 295 399 c 0,23,24
 291 364 291 364 314.5 339.5 c 128,-1,25
 338 315 338 315 374 315 c 0,26,27
 411 315 411 315 439 339.5 c 128,-1,28
 467 364 467 364 471 399 c 256,29,30
 475 434 475 434 452 458 c 128,-1,31
 429 482 429 482 392 482 c 0,20,21
161 482 m 0,32,33
 125 482 125 482 96.5 457.5 c 128,-1,34
 68 433 68 433 64 399 c 0,35,36
 60 360 60 360 84 338.5 c 128,-1,37
 108 317 108 317 143 317 c 0,38,39
 179 317 179 317 207.5 338.5 c 128,-1,40
 236 360 236 360 240 399 c 0,41,42
 244 434 244 434 221 458 c 128,-1,43
 198 482 198 482 161 482 c 0,32,33
EndSplineSet
EndChar

StartChar: plusminus
Encoding: 177 177 147
Width: 501
Flags: W
LayerCount: 2
Fore
SplineSet
279 280 m 1,0,-1
 279 95 l 1,1,-1
 217 95 l 1,2,-1
 217 279 l 1,3,-1
 53 280 l 1,4,-1
 53 342 l 1,5,-1
 217 342 l 1,6,-1
 217 517 l 1,7,-1
 279 517 l 1,8,-1
 279 342 l 1,9,-1
 446 342 l 1,10,-1
 446 280 l 1,11,-1
 279 280 l 1,0,-1
66 12 m 1,12,-1
 66 66 l 1,13,-1
 440 66 l 1,14,-1
 440 12 l 1,15,-1
 66 12 l 1,12,-1
EndSplineSet
EndChar

StartChar: lessequal
Encoding: 264 8804 148
Width: 250
Flags: W
LayerCount: 2
Fore
SplineSet
112 283 m 1,0,-1
 244 122 l 1,1,-1
 172 119 l 1,2,-1
 19 286 l 1,3,-1
 172 448 l 1,4,-1
 244 445 l 1,5,-1
 112 283 l 1,0,-1
21 34 m 1,6,-1
 21 74 l 1,7,-1
 242 74 l 1,8,-1
 242 34 l 1,9,-1
 21 34 l 1,6,-1
EndSplineSet
EndChar

StartChar: greaterequal
Encoding: 265 8805 149
Width: 250
Flags: W
LayerCount: 2
Fore
SplineSet
90 119 m 1,0,-1
 20 122 l 1,1,-1
 150 283 l 1,2,-1
 20 445 l 1,3,-1
 90 448 l 1,4,-1
 244 286 l 1,5,-1
 90 119 l 1,0,-1
21 34 m 1,6,-1
 21 74 l 1,7,-1
 242 74 l 1,8,-1
 242 34 l 1,9,-1
 21 34 l 1,6,-1
EndSplineSet
EndChar

StartChar: yen
Encoding: 165 165 150
Width: 531
Flags: W
LayerCount: 2
Fore
SplineSet
296 283 m 1,0,-1
 294 265 l 1,1,-1
 380 265 l 1,2,-1
 374 206 l 1,3,-1
 288 206 l 1,4,-1
 281 146 l 1,5,-1
 367 146 l 1,6,-1
 361 87 l 1,7,-1
 275 87 l 1,8,-1
 266 2 l 1,9,-1
 177 2 l 1,10,-1
 186 87 l 1,11,-1
 97 87 l 1,12,-1
 103 146 l 1,13,-1
 192 146 l 1,14,-1
 199 206 l 1,15,-1
 110 206 l 1,16,-1
 116 265 l 1,17,-1
 205 265 l 1,18,-1
 207 283 l 1,19,-1
 67 641 l 1,20,-1
 157 641 l 1,21,-1
 261 377 l 1,22,-1
 421 641 l 1,23,-1
 512 641 l 1,24,-1
 296 283 l 1,0,-1
EndSplineSet
EndChar

StartChar: mu
Encoding: 181 181 151
AltUni2: 0003bc.ffffffff.0
Width: 508
Flags: W
LayerCount: 2
Fore
SplineSet
422 -61 m 1,0,1
 360 -23 360 -23 355 61 c 1,2,3
 320 31 320 31 285 0 c 0,4,5
 256 -22 256 -22 223 -22 c 0,6,7
 194 -22 194 -22 168 -9 c 0,8,9
 139 5 139 5 129 29 c 1,10,-1
 105 -196 l 1,11,-1
 32 -196 l 1,12,-1
 104 486 l 1,13,-1
 177 486 l 1,14,-1
 141 144 l 2,15,16
 131 47 131 47 247 47 c 0,17,18
 286 47 286 47 323 83 c 0,19,20
 359 116 359 116 362 149 c 2,21,-1
 398 487 l 1,22,-1
 478 487 l 1,23,-1
 439 116 l 2,24,25
 433 68 433 68 446 38 c 0,26,27
 455 15 455 15 466 7 c 0,28,29
 484 -5 484 -5 491 -13 c 1,30,-1
 422 -61 l 1,0,1
EndSplineSet
EndChar

StartChar: partialdiff
Encoding: 266 8706 152
Width: 552
Flags: W
LayerCount: 2
Fore
SplineSet
232 -17 m 0,0,1
 135 -17 135 -17 80 51 c 0,2,3
 31 112 31 112 31 203 c 0,4,5
 31 218 31 218 32 233 c 0,6,7
 46 370 46 370 122 438 c 0,8,9
 189 498 189 498 294 498 c 0,10,11
 335 498 335 498 374.5 483 c 128,-1,12
 414 468 414 468 435 446 c 1,13,14
 435 483 435 483 423 521 c 0,15,16
 409 570 409 570 383 590 c 0,17,18
 343 621 343 621 267 621 c 0,19,20
 196 621 196 621 126 592 c 1,21,-1
 112 670 l 1,22,23
 184 690 184 690 255 690 c 0,24,25
 367 690 367 690 425 646 c 0,26,27
 512 579 512 579 512 400 c 0,28,29
 512 353 512 353 506 296 c 0,30,31
 490 147 490 147 433 72 c 0,32,33
 366 -17 366 -17 232 -17 c 0,0,1
432 350 m 1,34,35
 376 440 376 440 287 440 c 0,36,37
 218 440 218 440 174.5 388 c 128,-1,38
 131 336 131 336 121 246 c 0,39,40
 120 231 120 231 120 217 c 0,41,42
 120 146 120 146 153 101 c 0,43,44
 188 52 188 52 250 52 c 0,45,46
 407 52 407 52 429 262 c 0,47,48
 434 306 434 306 432 350 c 1,34,35
EndSplineSet
EndChar

StartChar: summation
Encoding: 267 8721 153
Width: 491
Flags: W
LayerCount: 2
Fore
SplineSet
58 0 m 1,0,-1
 66 70 l 1,1,-1
 312 342 l 1,2,-1
 117 557 l 1,3,-1
 136 633 l 1,4,-1
 482 633 l 1,5,-1
 474 561 l 1,6,-1
 224 561 l 1,7,-1
 416 349 l 1,8,-1
 171 76 l 1,9,-1
 423 77 l 1,10,-1
 414 0 l 1,11,-1
 58 0 l 1,0,-1
EndSplineSet
EndChar

StartChar: product
Encoding: 268 8719 154
Width: 595
Flags: W
LayerCount: 2
Fore
SplineSet
477 0 m 1,0,-1
 381 0 l 1,1,-1
 441 562 l 1,2,-1
 244 562 l 1,3,-1
 184 0 l 1,4,-1
 89 0 l 1,5,-1
 157 642 l 1,6,-1
 545 642 l 1,7,-1
 477 0 l 1,0,-1
EndSplineSet
EndChar

StartChar: pi
Encoding: 269 960 155
Width: 518
Flags: W
LayerCount: 2
Fore
SplineSet
347 0 m 1,0,-1
 394 442 l 1,1,-1
 217 442 l 1,2,-1
 170 0 l 1,3,-1
 82 0 l 1,4,-1
 129 442 l 1,5,-1
 89 442 l 1,6,-1
 96 508 l 1,7,-1
 489 508 l 1,8,-1
 435 0 l 1,9,-1
 347 0 l 1,0,-1
EndSplineSet
EndChar

StartChar: integral
Encoding: 270 8747 156
Width: 303
Flags: W
LayerCount: 2
Fore
SplineSet
315 611 m 1,0,1
 293 630 293 630 269 630 c 0,2,3
 227 630 227 630 204 590 c 0,4,5
 186 557 186 557 186 511 c 256,6,7
 186 465 186 465 215 322 c 128,-1,8
 244 179 244 179 244 101 c 0,9,10
 244 76 244 76 241 53 c 0,11,12
 221 -140 221 -140 58 -140 c 0,13,14
 36 -140 36 -140 -22 -121 c 1,15,-1
 6 -39 l 1,16,17
 49 -64 49 -64 82 -58 c 0,18,19
 138 -48 138 -48 150 69 c 0,20,21
 155 113 155 113 124 256 c 0,22,23
 91 410 91 410 91 489 c 0,24,25
 91 589 91 589 132 646 c 0,26,27
 180 713 180 713 279 713 c 0,28,29
 292 713 292 713 320.5 703.5 c 128,-1,30
 349 694 349 694 361 687 c 1,31,-1
 315 611 l 1,0,1
EndSplineSet
EndChar

StartChar: Omega
Encoding: 271 937 157
AltUni2: 002126.ffffffff.0
Width: 646
Flags: W
LayerCount: 2
Fore
SplineSet
385 130 m 1,0,-1
 378 65 l 1,1,-1
 536 65 l 1,2,-1
 529 0 l 1,3,-1
 323 0 l 1,4,-1
 342 176 l 1,5,6
 403 176 403 176 454 239 c 0,7,8
 499 294 499 294 505 349 c 0,9,10
 508 373 508 373 508 395 c 0,11,12
 508 581 508 581 346 581 c 0,13,14
 253 581 253 581 196 518.5 c 128,-1,15
 139 456 139 456 127 349 c 0,16,17
 121 290 121 290 149 239 c 0,18,19
 183 176 183 176 254 176 c 1,20,-1
 235 0 l 1,21,-1
 28 0 l 1,22,-1
 35 65 l 1,23,-1
 190 65 l 1,24,-1
 197 129 l 1,25,26
 133 139 133 139 88 202 c 128,-1,27
 43 265 43 265 43 338 c 0,28,29
 43 476 43 476 129 556.5 c 128,-1,30
 215 637 215 637 353 637 c 0,31,32
 593 637 593 637 593 409 c 0,33,34
 593 385 593 385 590 359 c 0,35,36
 582 282 582 282 519 210 c 128,-1,37
 456 138 456 138 385 130 c 1,0,-1
EndSplineSet
EndChar

StartChar: ae
Encoding: 230 230 158
Width: 775
Flags: W
LayerCount: 2
Fore
SplineSet
667 332 m 2,0,1
 678 441 678 441 570 441 c 0,2,3
 497 441 497 441 463 405 c 0,4,5
 436 379 436 379 410 300 c 1,6,-1
 664 300 l 1,7,-1
 667 332 l 2,0,1
309 37 m 2,8,9
 291 25 291 25 253 4 c 0,10,11
 207 -16 207 -16 151 -16 c 0,12,13
 97 -16 97 -16 62 16.5 c 128,-1,14
 27 49 27 49 27 107 c 0,15,16
 27 117 27 117 28 127 c 0,17,18
 37 208 37 208 90 244 c 0,19,20
 123 267 123 267 215 288 c 0,21,22
 272 301 272 301 325 306 c 1,23,-1
 332 366 l 2,24,25
 335 399 335 399 312 420 c 128,-1,26
 289 441 289 441 254 441 c 0,27,28
 199 441 199 441 115 377 c 1,29,-1
 80 433 l 1,30,31
 115 462 115 462 176 488 c 0,32,33
 233 512 233 512 262 512 c 0,34,35
 365 512 365 512 399 429 c 1,36,37
 472 507 472 507 585 507 c 0,38,39
 651 507 651 507 697 458 c 0,40,41
 744 406 744 406 744 326 c 0,42,43
 744 312 744 312 742 298 c 2,44,-1
 736 237 l 1,45,-1
 396 237 l 1,46,47
 392 197 392 197 393 179 c 0,48,49
 395 156 395 156 409 125 c 0,50,51
 424 91 424 91 468 71 c 0,52,53
 504 56 504 56 541 56 c 0,54,55
 600 56 600 56 678 120 c 1,56,-1
 713 64 l 1,57,58
 623 -12 623 -12 525 -12 c 0,59,60
 401 -12 401 -12 351 73 c 1,61,-1
 309 37 l 2,8,9
317 233 m 1,62,63
 304 233 304 233 237.5 221.5 c 128,-1,64
 171 210 171 210 149 199 c 0,65,66
 106 177 106 177 100 126 c 0,67,68
 96 93 96 93 112 72 c 0,69,70
 129 47 129 47 169 47 c 0,71,72
 208 47 208 47 251 68 c 0,73,74
 303 93 303 93 307 132 c 2,75,-1
 317 233 l 1,62,63
EndSplineSet
EndChar

StartChar: oslash
Encoding: 248 248 159
Width: 546
Flags: W
LayerCount: 2
Fore
SplineSet
160 92 m 1,0,-1
 304 445 l 1,1,-1
 301 445 l 2,2,3
 214 445 214 445 165 369 c 0,4,5
 122 304 122 304 122 213 c 0,6,7
 122 135 122 135 160 92 c 1,0,-1
378 416 m 1,8,-1
 230 55 l 1,9,10
 236 54 236 54 250 54 c 0,11,12
 335 54 335 54 382 131 c 0,13,14
 423 197 423 197 423 286 c 256,15,16
 423 375 423 375 378 416 c 1,8,-1
359 578 m 1,17,-1
 435 554 l 1,18,-1
 407 486 l 1,19,20
 509 429 509 429 509 292 c 0,21,22
 509 272 509 272 507 252 c 0,23,24
 497 163 497 163 443 89 c 0,25,26
 370 -11 370 -11 247 -11 c 0,27,28
 223 -11 223 -11 204 -8 c 1,29,-1
 179 -69 l 1,30,-1
 103 -45 l 1,31,-1
 129 17 l 1,32,33
 37 72 37 72 37 213 c 0,34,35
 37 233 37 233 39 252 c 0,36,37
 52 381 52 381 141 453 c 0,38,39
 214 512 214 512 303 512 c 0,40,41
 313 512 313 512 331 510 c 1,42,-1
 359 578 l 1,17,-1
EndSplineSet
EndChar

StartChar: questiondown
Encoding: 191 191 160
Width: 459
Flags: W
LayerCount: 2
Fore
SplineSet
102 222 m 0,0,1
 160 261 160 261 184 330 c 0,2,3
 206 391 206 391 207 479 c 1,4,-1
 287 479 l 1,5,6
 288 465 288 465 288 449 c 0,7,8
 288 373 288 373 264 304 c 0,9,10
 236 224 236 224 183.5 182.5 c 128,-1,11
 131 141 131 141 123 133 c 0,12,13
 92 102 92 102 89 69 c 0,14,15
 84 23 84 23 110.5 -4 c 128,-1,16
 137 -31 137 -31 178 -31 c 0,17,18
 272 -31 272 -31 317 72 c 1,19,-1
 381 38 l 1,20,21
 308 -103 308 -103 174 -103 c 0,22,23
 91 -103 91 -103 45 -47 c 0,24,25
 4 4 4 4 11 70 c 0,26,27
 21 169 21 169 102 222 c 0,0,1
268 681 m 0,28,29
 291 681 291 681 305.5 664.5 c 128,-1,30
 320 648 320 648 318 624 c 0,31,32
 315 599 315 599 297 582.5 c 128,-1,33
 279 566 279 566 255 566 c 256,34,35
 231 566 231 566 215.5 583 c 128,-1,36
 200 600 200 600 203 624 c 0,37,38
 205 648 205 648 224 664.5 c 128,-1,39
 243 681 243 681 268 681 c 0,28,29
EndSplineSet
EndChar

StartChar: exclamdown
Encoding: 161 161 161
Width: 235
Flags: W
LayerCount: 2
Fore
SplineSet
89 501 m 1,0,-1
 173 501 l 1,1,-1
 109 -103 l 1,2,-1
 25 -103 l 1,3,-1
 89 501 l 1,0,-1
157 706 m 0,4,5
 182 706 182 706 196.5 689.5 c 128,-1,6
 211 673 211 673 209 649 c 0,7,8
 206 625 206 625 187.5 608 c 128,-1,9
 169 591 169 591 145 591 c 256,10,11
 121 591 121 591 106 608 c 128,-1,12
 91 625 91 625 94 649 c 0,13,14
 96 673 96 673 114.5 689.5 c 128,-1,15
 133 706 133 706 157 706 c 0,4,5
EndSplineSet
EndChar

StartChar: logicalnot
Encoding: 172 172 162
Width: 613
Flags: W
LayerCount: 2
Fore
SplineSet
474 28 m 1,0,-1
 474 250 l 1,1,-1
 88 250 l 1,2,-1
 88 343 l 1,3,-1
 558 343 l 1,4,-1
 558 28 l 1,5,-1
 474 28 l 1,0,-1
EndSplineSet
EndChar

StartChar: radical
Encoding: 272 8730 163
Width: 503
Flags: W
LayerCount: 2
Fore
SplineSet
218 -10 m 1,0,-1
 141 -10 l 1,1,-1
 55 297 l 1,2,-1
 130 337 l 1,3,-1
 173 116 l 1,4,-1
 280 639 l 1,5,-1
 359 639 l 1,6,-1
 218 -10 l 1,0,-1
EndSplineSet
EndChar

StartChar: florin
Encoding: 273 402 164
Width: 361
Flags: W
LayerCount: 2
Fore
SplineSet
393 610 m 1,0,1
 349 641 349 641 310 641 c 0,2,3
 235 641 235 641 215 530 c 2,4,-1
 214 526 l 2,5,6
 208 496 208 496 208 489 c 1,7,-1
 345 489 l 1,8,-1
 332 424 l 1,9,-1
 197 424 l 1,10,-1
 87 -122 l 1,11,-1
 9 -123 l 1,12,-1
 118 422 l 1,13,-1
 38 421 l 1,14,-1
 51 487 l 1,15,-1
 130 488 l 1,16,-1
 138 529 l 2,17,18
 152 598 152 598 188 645 c 0,19,20
 239 710 239 710 323 711 c 0,21,22
 367 711 367 711 390 701 c 0,23,24
 398 697 398 697 441 666 c 1,25,-1
 393 610 l 1,0,1
EndSplineSet
EndChar

StartChar: approxequal
Encoding: 274 8776 165
AltUni2: 0022f2.ffffffff.0
Width: 536
Flags: W
LayerCount: 2
Fore
SplineSet
349 282 m 0,0,1
 325 282 325 282 284 308 c 128,-1,2
 243 334 243 334 224 334 c 0,3,4
 204 334 204 334 176 318 c 128,-1,5
 148 302 148 302 129 279 c 1,6,-1
 112 342 l 1,7,8
 131 362 131 362 169.5 379.5 c 128,-1,9
 208 397 208 397 235 397 c 0,10,11
 268 397 268 397 307 373 c 128,-1,12
 346 349 346 349 361 349 c 0,13,14
 375 349 375 349 396 360 c 128,-1,15
 417 371 417 371 428 382 c 1,16,-1
 449 320 l 1,17,18
 433 306 433 306 401 294 c 128,-1,19
 369 282 369 282 349 282 c 0,0,1
327 82 m 0,20,21
 304 82 304 82 265 108 c 128,-1,22
 226 134 226 134 207 134 c 0,23,24
 186 134 186 134 156 118 c 128,-1,25
 126 102 126 102 108 79 c 1,26,-1
 91 142 l 1,27,28
 110 162 110 162 148.5 179.5 c 128,-1,29
 187 197 187 197 214 197 c 0,30,31
 247 197 247 197 286 173 c 128,-1,32
 325 149 325 149 340 149 c 0,33,34
 354 149 354 149 375 160 c 128,-1,35
 396 171 396 171 407 182 c 1,36,-1
 427 120 l 1,37,38
 412 106 412 106 379.5 94 c 128,-1,39
 347 82 347 82 327 82 c 0,20,21
EndSplineSet
EndChar

StartChar: Delta
Encoding: 275 916 166
AltUni2: 002206.ffffffff.0
Width: 689
Flags: W
LayerCount: 2
Fore
SplineSet
50 0 m 1,0,-1
 365 657 l 1,1,-1
 451 657 l 1,2,-1
 607 0 l 1,3,-1
 50 0 l 1,0,-1
398 565 m 1,4,-1
 169 56 l 1,5,-1
 500 56 l 1,6,-1
 398 565 l 1,4,-1
EndSplineSet
EndChar

StartChar: guillemotleft
Encoding: 171 171 167
Width: 390
Flags: W
LayerCount: 2
Fore
SplineSet
240 286 m 1,0,-1
 371 125 l 1,1,-1
 300 122 l 1,2,-1
 147 289 l 1,3,-1
 300 451 l 1,4,-1
 371 448 l 1,5,-1
 240 286 l 1,0,-1
99 286 m 1,6,-1
 229 125 l 1,7,-1
 159 122 l 1,8,-1
 5 289 l 1,9,-1
 159 451 l 1,10,-1
 229 448 l 1,11,-1
 99 286 l 1,6,-1
EndSplineSet
EndChar

StartChar: guillemotright
Encoding: 187 187 168
Width: 393
Flags: W
LayerCount: 2
Fore
SplineSet
215 122 m 1,0,-1
 144 125 l 1,1,-1
 275 286 l 1,2,-1
 144 448 l 1,3,-1
 215 451 l 1,4,-1
 368 289 l 1,5,-1
 215 122 l 1,0,-1
74 122 m 1,6,-1
 2 125 l 1,7,-1
 133 286 l 1,8,-1
 2 448 l 1,9,-1
 74 451 l 1,10,-1
 226 289 l 1,11,-1
 74 122 l 1,6,-1
EndSplineSet
EndChar

StartChar: ellipsis
Encoding: 276 8230 169
Width: 621
Flags: W
LayerCount: 2
Fore
SplineSet
498 -16 m 0,0,1
 470 -16 470 -16 452.5 2.5 c 128,-1,2
 435 21 435 21 438 53 c 0,3,4
 441 86 441 86 464 105 c 0,5,6
 484 122 484 122 512 122 c 256,7,8
 540 122 540 122 557 104 c 128,-1,9
 574 86 574 86 571 53 c 0,10,11
 568 21 568 21 546.5 2.5 c 128,-1,12
 525 -16 525 -16 498 -16 c 0,0,1
309 -16 m 0,13,14
 281 -16 281 -16 263.5 2.5 c 128,-1,15
 246 21 246 21 249 53 c 0,16,17
 252 86 252 86 275 105 c 0,18,19
 295 122 295 122 323 122 c 256,20,21
 351 122 351 122 368 104 c 128,-1,22
 385 86 385 86 382 53 c 0,23,24
 379 21 379 21 357.5 2.5 c 128,-1,25
 336 -16 336 -16 309 -16 c 0,13,14
120 -16 m 0,26,27
 92 -16 92 -16 74.5 2.5 c 128,-1,28
 57 21 57 21 60 53 c 0,29,30
 63 86 63 86 86 105 c 0,31,32
 106 122 106 122 134 122 c 256,33,34
 162 122 162 122 179 104 c 128,-1,35
 196 86 196 86 193 53 c 0,36,37
 190 21 190 21 168.5 2.5 c 128,-1,38
 147 -16 147 -16 120 -16 c 0,26,27
EndSplineSet
EndChar

StartChar: Agrave
Encoding: 192 192 171
Width: 580
Flags: W
LayerCount: 2
Fore
SplineSet
413 -10 m 1,0,-1
 374 179 l 1,1,-1
 149 179 l 1,2,-1
 72 -10 l 1,3,-1
 -9 0 l 1,4,-1
 272 654 l 1,5,-1
 353 654 l 1,6,-1
 499 4 l 1,7,-1
 413 -10 l 1,0,-1
301 551 m 1,8,-1
 177 248 l 1,9,-1
 361 248 l 1,10,-1
 301 551 l 1,8,-1
394 686 m 1,11,-1
 194 776 l 1,12,-1
 248 841 l 1,13,-1
 448 745 l 1,14,-1
 394 686 l 1,11,-1
EndSplineSet
EndChar

StartChar: Atilde
Encoding: 195 195 172
Width: 580
Flags: W
LayerCount: 2
Fore
SplineSet
415 -10 m 1,0,-1
 376 179 l 1,1,-1
 151 179 l 1,2,-1
 74 -10 l 1,3,-1
 -7 0 l 1,4,-1
 274 654 l 1,5,-1
 355 654 l 1,6,-1
 501 4 l 1,7,-1
 415 -10 l 1,0,-1
303 551 m 1,8,-1
 179 248 l 1,9,-1
 363 248 l 1,10,-1
 303 551 l 1,8,-1
393 669 m 0,11,12
 365 669 365 669 323 703.5 c 128,-1,13
 281 738 281 738 265 738 c 0,14,15
 226 738 226 738 191 696 c 1,16,-1
 170 755 l 1,17,18
 186 776 186 776 218 790 c 0,19,20
 247 804 247 804 272 805 c 0,21,22
 300 806 300 806 339 771.5 c 128,-1,23
 378 737 378 737 398 737 c 0,24,25
 423 737 423 737 451 762 c 1,26,-1
 470 702 l 1,27,28
 460 691 460 691 432.5 680 c 128,-1,29
 405 669 405 669 393 669 c 0,11,12
EndSplineSet
EndChar

StartChar: Otilde
Encoding: 213 213 173
Width: 648
Flags: W
LayerCount: 2
Fore
SplineSet
280 -16 m 0,0,1
 167 -16 167 -16 98 55 c 0,2,3
 26 131 26 131 26 266 c 0,4,5
 26 293 26 293 29 322 c 0,6,7
 44 463 44 463 136.5 554.5 c 128,-1,8
 229 646 229 646 358 646 c 0,9,10
 474 646 474 646 543.5 569 c 128,-1,11
 613 492 613 492 613 368 c 0,12,13
 613 345 613 345 610 322 c 0,14,15
 593 162 593 162 497 70 c 0,16,17
 408 -16 408 -16 280 -16 c 0,0,1
348 572 m 0,18,19
 242 572 242 572 172 475 c 0,20,21
 110 388 110 388 110 278 c 0,22,23
 110 185 110 185 159.5 123 c 128,-1,24
 209 61 209 61 289 61 c 0,25,26
 393 61 393 61 464 155 c 0,27,28
 529 242 529 242 529 349 c 0,29,30
 529 445 529 445 480 508.5 c 128,-1,31
 431 572 431 572 348 572 c 0,18,19
414 669 m 0,32,33
 387 669 387 669 344.5 703.5 c 128,-1,34
 302 738 302 738 286 738 c 0,35,36
 247 738 247 738 212 696 c 1,37,-1
 191 755 l 1,38,39
 208 776 208 776 238.5 790 c 128,-1,40
 269 804 269 804 293 805 c 0,41,42
 321 806 321 806 360 771.5 c 128,-1,43
 399 737 399 737 419 737 c 0,44,45
 444 737 444 737 472 762 c 1,46,-1
 492 702 l 1,47,48
 481 691 481 691 454 680 c 128,-1,49
 427 669 427 669 414 669 c 0,32,33
EndSplineSet
EndChar

StartChar: OE
Encoding: 188 338 174
Width: 1028
Flags: W
LayerCount: 2
Fore
SplineSet
574 0 m 1,0,-1
 598 223 l 1,1,2
 485 -3 485 -3 294 -3 c 0,3,4
 181 -3 181 -3 112 71 c 0,5,6
 40 148 40 148 40 284 c 0,7,8
 40 312 40 312 43 341 c 0,9,10
 58 481 58 481 149.5 569 c 128,-1,11
 241 657 241 657 370 657 c 0,12,13
 556 657 556 657 622 449 c 1,14,-1
 643 649 l 1,15,-1
 998 649 l 1,16,-1
 990 577 l 1,17,-1
 725 577 l 1,18,-1
 705 384 l 1,19,-1
 960 384 l 1,20,-1
 952 309 l 1,21,-1
 694 309 l 1,22,-1
 671 84 l 1,23,-1
 938 84 l 1,24,-1
 929 0 l 1,25,-1
 574 0 l 1,0,-1
361 581 m 0,26,27
 254 581 254 581 186 489 c 0,28,29
 125 405 125 405 125 296 c 0,30,31
 125 201 125 201 174 138 c 128,-1,32
 223 75 223 75 302 75 c 0,33,34
 406 75 406 75 477 172 c 0,35,36
 541 261 541 261 541 368 c 0,37,38
 541 462 541 462 494 520 c 0,39,40
 444 581 444 581 361 581 c 0,26,27
EndSplineSet
EndChar

StartChar: oe
Encoding: 189 339 175
Width: 931
Flags: W
LayerCount: 2
Fore
SplineSet
302 445 m 0,0,1
 214 445 214 445 165 369 c 0,2,3
 123 304 123 304 123 213 c 0,4,5
 123 144 123 144 152 102 c 0,6,7
 186 54 186 54 250 54 c 0,8,9
 335 54 335 54 383 131 c 0,10,11
 423 196 423 196 423 286 c 0,12,13
 423 355 423 355 395 397 c 0,14,15
 363 445 363 445 302 445 c 0,0,1
565 257 m 1,16,17
 556 172 556 172 576 125 c 0,18,19
 590 90 590 90 630 71 c 0,20,21
 661 56 661 56 696 56 c 0,22,23
 755 56 755 56 834 120 c 1,24,-1
 868 64 l 1,25,26
 780 -12 780 -12 682 -12 c 0,27,28
 506 -12 506 -12 481 153 c 1,29,30
 408 -11 408 -11 247 -11 c 0,31,32
 129 -11 129 -11 76 68 c 0,33,34
 37 124 37 124 37 213 c 0,35,36
 37 233 37 233 39 252 c 0,37,38
 53 381 53 381 141 453 c 0,39,40
 214 512 214 512 304 512 c 0,41,42
 372 512 372 512 426 474 c 0,43,44
 488 430 488 430 504 348 c 1,45,46
 535 421 535 421 596.5 464 c 128,-1,47
 658 507 658 507 741 507 c 0,48,49
 810 507 810 507 854 466 c 0,50,51
 903 422 903 422 903 345 c 0,52,53
 903 332 903 332 901 318 c 2,54,-1
 895 257 l 1,55,-1
 565 257 l 1,16,17
824 332 m 2,56,57
 835 441 835 441 727 441 c 0,58,59
 676 441 676 441 645 420 c 0,60,61
 603 391 603 391 578 320 c 1,62,-1
 822 320 l 1,63,-1
 824 332 l 2,56,57
EndSplineSet
EndChar

StartChar: endash
Encoding: 277 8211 176
Width: 500
Flags: W
LayerCount: 2
Fore
SplineSet
34 292 m 1,0,-1
 34 363 l 1,1,-1
 466 363 l 1,2,-1
 466 292 l 1,3,-1
 34 292 l 1,0,-1
EndSplineSet
EndChar

StartChar: emdash
Encoding: 278 8212 177
Width: 1000
Flags: W
LayerCount: 2
Fore
SplineSet
27 292 m 1,0,-1
 27 363 l 1,1,-1
 973 363 l 1,2,-1
 973 292 l 1,3,-1
 27 292 l 1,0,-1
EndSplineSet
EndChar

StartChar: quotedblleft
Encoding: 279 8220 178
Width: 443
Flags: W
LayerCount: 2
Fore
SplineSet
435 708 m 1,0,-1
 392 720 l 1,1,2
 288 601 288 601 278 516 c 1,3,-1
 375 516 l 1,4,5
 380 560 380 560 401 624 c 0,6,7
 420 683 420 683 435 708 c 1,0,-1
235 708 m 1,8,-1
 192 720 l 1,9,10
 88 601 88 601 78 516 c 1,11,-1
 175 516 l 1,12,13
 180 560 180 560 201 624 c 0,14,15
 220 683 220 683 235 708 c 1,8,-1
EndSplineSet
EndChar

StartChar: quotedblright
Encoding: 280 8221 179
Width: 443
Flags: W
LayerCount: 2
Fore
SplineSet
21 528 m 1,0,-1
 64 516 l 1,1,2
 168 635 168 635 178 720 c 1,3,-1
 81 720 l 1,4,5
 76 676 76 676 55 612 c 0,6,7
 36 553 36 553 21 528 c 1,0,-1
221 528 m 1,8,-1
 264 516 l 1,9,10
 368 635 368 635 378 720 c 1,11,-1
 281 720 l 1,12,13
 276 676 276 676 255 612 c 0,14,15
 236 553 236 553 221 528 c 1,8,-1
EndSplineSet
EndChar

StartChar: quoteleft
Encoding: 281 8216 180
Width: 213
Flags: W
LayerCount: 2
Fore
SplineSet
196 708 m 1,0,-1
 153 720 l 1,1,2
 49 601 49 601 39 516 c 1,3,-1
 136 516 l 1,4,5
 141 560 141 560 162 624 c 0,6,7
 181 683 181 683 196 708 c 1,0,-1
EndSplineSet
EndChar

StartChar: quoteright
Encoding: 282 8217 181
Width: 241
Flags: W
LayerCount: 2
Fore
SplineSet
37 528 m 1,0,-1
 80 516 l 1,1,2
 184 635 184 635 194 720 c 1,3,-1
 97 720 l 1,4,5
 92 676 92 676 71 612 c 0,6,7
 52 553 52 553 37 528 c 1,0,-1
EndSplineSet
EndChar

StartChar: divide
Encoding: 247 247 182
Width: 496
Flags: W
LayerCount: 2
Fore
SplineSet
264 397 m 256,0,1
 239 397 239 397 221.5 416 c 128,-1,2
 204 435 204 435 204 463 c 256,3,4
 204 491 204 491 221.5 510 c 128,-1,5
 239 529 239 529 264 529 c 256,6,7
 289 529 289 529 306.5 510 c 128,-1,8
 324 491 324 491 324 463 c 256,9,10
 324 435 324 435 306.5 416 c 128,-1,11
 289 397 289 397 264 397 c 256,0,1
53 275 m 1,12,-1
 53 345 l 1,13,-1
 446 345 l 1,14,-1
 446 275 l 1,15,-1
 53 275 l 1,12,-1
264 93 m 256,16,17
 239 93 239 93 221.5 112 c 128,-1,18
 204 131 204 131 204 159 c 256,19,20
 204 187 204 187 221.5 206 c 128,-1,21
 239 225 239 225 264 225 c 256,22,23
 289 225 289 225 306.5 206 c 128,-1,24
 324 187 324 187 324 159 c 256,25,26
 324 131 324 131 306.5 112 c 128,-1,27
 289 93 289 93 264 93 c 256,16,17
EndSplineSet
EndChar

StartChar: lozenge
Encoding: 283 9674 183
Width: 576
Flags: W
LayerCount: 2
Fore
SplineSet
275 85 m 1,0,-1
 20 333 l 1,1,-1
 275 582 l 1,2,-1
 529 333 l 1,3,-1
 275 85 l 1,0,-1
278 485 m 1,4,-1
 122 332 l 1,5,-1
 278 180 l 1,6,-1
 434 332 l 1,7,-1
 278 485 l 1,4,-1
EndSplineSet
EndChar

StartChar: ydieresis
Encoding: 255 255 184
Width: 467
Flags: W
LayerCount: 2
Fore
SplineSet
221 -84 m 2,0,1
 200 -127 200 -127 156 -159 c 0,2,3
 106 -196 106 -196 52 -196 c 0,4,5
 36 -196 36 -196 -16 -178 c 1,6,-1
 17 -107 l 1,7,8
 42 -120 42 -120 65 -121 c 0,9,10
 111 -122 111 -122 156 -54 c 0,11,12
 182 -6 182 -6 207 42 c 1,13,-1
 63 478 l 1,14,-1
 141 499 l 1,15,-1
 255 145 l 1,16,-1
 422 498 l 1,17,-1
 490 481 l 1,18,-1
 221 -84 l 2,0,1
377 546 m 0,19,20
 352 546 352 546 341 562 c 128,-1,21
 330 578 330 578 332 598 c 256,22,23
 334 618 334 618 349 634 c 128,-1,24
 364 650 364 650 388 650 c 0,25,26
 411 650 411 650 422.5 633.5 c 128,-1,27
 434 617 434 617 432 598 c 0,28,29
 430 578 430 578 415 562 c 128,-1,30
 400 546 400 546 377 546 c 0,19,20
168 546 m 0,31,32
 143 546 143 546 132 562 c 128,-1,33
 121 578 121 578 123 598 c 256,34,35
 125 618 125 618 140 634 c 128,-1,36
 155 650 155 650 179 650 c 0,37,38
 202 650 202 650 213 634 c 128,-1,39
 224 618 224 618 222 598 c 256,40,41
 220 578 220 578 205.5 562 c 128,-1,42
 191 546 191 546 168 546 c 0,31,32
EndSplineSet
EndChar

StartChar: Ydieresis
Encoding: 190 376 185
Width: 482
Flags: W
LayerCount: 2
Fore
SplineSet
287 272 m 1,0,-1
 259 0 l 1,1,-1
 170 0 l 1,2,-1
 198 272 l 1,3,-1
 58 627 l 1,4,-1
 140 650 l 1,5,-1
 254 353 l 1,6,-1
 428 650 l 1,7,-1
 502 627 l 1,8,-1
 287 272 l 1,0,-1
407 696 m 256,9,10
 383 696 383 696 372 712 c 128,-1,11
 361 728 361 728 363 748 c 256,12,13
 365 768 365 768 379.5 784 c 128,-1,14
 394 800 394 800 418 800 c 0,15,16
 441 800 441 800 453 783.5 c 128,-1,17
 465 767 465 767 463 748 c 0,18,19
 461 728 461 728 446 712 c 128,-1,20
 431 696 431 696 407 696 c 256,9,10
197 696 m 256,21,22
 173 696 173 696 162 712 c 128,-1,23
 151 728 151 728 153 748 c 256,24,25
 155 768 155 768 169.5 784 c 128,-1,26
 184 800 184 800 208 800 c 0,27,28
 231 800 231 800 243 783.5 c 128,-1,29
 255 767 255 767 253 748 c 0,30,31
 251 728 251 728 236 712 c 128,-1,32
 221 696 221 696 197 696 c 256,21,22
EndSplineSet
EndChar

StartChar: fraction
Encoding: 284 8260 186
Width: 537
Flags: W
LayerCount: 2
Fore
SplineSet
113 66 m 1,0,-1
 40 116 l 1,1,-1
 461 588 l 1,2,-1
 533 538 l 1,3,-1
 113 66 l 1,0,-1
EndSplineSet
EndChar

StartChar: currency
Encoding: 285 164 187
Width: 489
Flags: W
LayerCount: 2
Fore
SplineSet
408 360 m 1,0,-1
 230 360 l 1,1,-1
 225 315 l 1,2,-1
 403 315 l 1,3,-1
 396 240 l 1,4,-1
 218 240 l 1,5,-1
 200 76 l 1,6,-1
 393 77 l 1,7,-1
 385 0 l 1,8,-1
 103 0 l 1,9,-1
 129 240 l 1,10,-1
 30 240 l 1,11,-1
 36 315 l 1,12,-1
 136 315 l 1,13,-1
 141 361 l 1,14,-1
 42 361 l 1,15,-1
 49 435 l 1,16,-1
 149 435 l 1,17,-1
 171 640 l 1,18,-1
 456 640 l 1,19,-1
 448 568 l 1,20,-1
 252 568 l 1,21,-1
 238 435 l 1,22,-1
 416 435 l 1,23,-1
 408 360 l 1,0,-1
EndSplineSet
EndChar

StartChar: guilsinglleft
Encoding: 286 8249 188
Width: 319
Flags: W
LayerCount: 2
Fore
SplineSet
148 286 m 1,0,-1
 279 125 l 1,1,-1
 208 122 l 1,2,-1
 56 289 l 1,3,-1
 208 451 l 1,4,-1
 279 448 l 1,5,-1
 148 286 l 1,0,-1
EndSplineSet
EndChar

StartChar: guilsinglright
Encoding: 287 8250 189
Width: 317
Flags: W
LayerCount: 2
Fore
SplineSet
118 122 m 1,0,-1
 47 125 l 1,1,-1
 177 286 l 1,2,-1
 47 448 l 1,3,-1
 118 451 l 1,4,-1
 271 289 l 1,5,-1
 118 122 l 1,0,-1
EndSplineSet
EndChar

StartChar: fi
Encoding: 288 61441 190
Width: 484
Flags: W
LayerCount: 2
Fore
SplineSet
311 0 m 1,0,-1
 363 489 l 1,1,-1
 444 489 l 1,2,-1
 392 0 l 1,3,-1
 311 0 l 1,0,-1
365 651 m 1,4,5
 322 681 322 681 283 682 c 0,6,7
 248 683 248 683 224 651 c 0,8,9
 197 617 197 617 192 558 c 2,10,11
 185 495 l 1,12,-1
 324 495 l 1,13,-1
 317 430 l 1,14,-1
 178 430 l 1,15,-1
 111 -172 l 1,16,-1
 35 -172 l 1,17,-1
 102 430 l 1,18,-1
 24 430 l 1,19,-1
 31 495 l 1,20,-1
 109 495 l 1,21,-1
 116 561 l 2,22,23
 123 630 123 630 157 679 c 0,24,25
 204 746 204 746 289 746 c 0,26,27
 333 746 333 746 356 736 c 0,28,29
 363 733 363 733 409 702 c 1,30,-1
 365 651 l 1,4,5
EndSplineSet
EndChar

StartChar: fl
Encoding: 289 61442 191
Width: 495
Flags: W
LayerCount: 2
Fore
SplineSet
407 1 m 1,0,-1
 326 1 l 1,1,-1
 390 602 l 1,2,3
 378 616 378 616 352 639 c 1,4,5
 331 651 331 651 281 652 c 0,6,7
 247 653 247 653 221.5 620 c 128,-1,8
 196 587 196 587 190 528 c 0,9,10
 187 496 187 496 187 491 c 1,11,-1
 325 491 l 1,12,-1
 318 425 l 1,13,-1
 182 425 l 1,14,-1
 115 -172 l 1,15,-1
 37 -172 l 1,16,-1
 104 424 l 1,17,-1
 25 424 l 1,18,-1
 32 490 l 1,19,-1
 111 490 l 1,20,-1
 115 531 l 2,21,22
 123 600 123 600 156 649 c 0,23,24
 203 718 203 718 287 718 c 0,25,26
 325 718 325 718 342 712.5 c 128,-1,27
 359 707 359 707 392 686 c 1,28,-1
 400 698 l 1,29,-1
 481 698 l 1,30,-1
 407 1 l 1,0,-1
EndSplineSet
EndChar

StartChar: daggerdbl
Encoding: 290 8225 192
Width: 221
Flags: W
LayerCount: 2
Fore
SplineSet
183 397 m 1,0,-1
 121 397 l 1,1,-1
 121 245 l 1,2,-1
 84 245 l 1,3,-1
 84 397 l 1,4,-1
 24 397 l 1,5,-1
 24 421 l 1,6,-1
 84 421 l 1,7,-1
 84 549 l 1,8,-1
 24 549 l 1,9,-1
 24 573 l 1,10,-1
 84 573 l 1,11,-1
 84 655 l 1,12,-1
 121 655 l 1,13,-1
 121 573 l 1,14,-1
 183 573 l 1,15,-1
 183 549 l 1,16,-1
 121 549 l 1,17,-1
 121 421 l 1,18,-1
 183 421 l 1,19,-1
 183 397 l 1,0,-1
EndSplineSet
EndChar

StartChar: periodcentered
Encoding: 183 183 193
AltUni2: 002219.ffffffff.0
Width: 236
Flags: W
LayerCount: 2
Fore
SplineSet
120 334 m 0,0,1
 92 334 92 334 75 357 c 128,-1,2
 58 380 58 380 61 413 c 0,3,4
 65 446 65 446 87 469 c 128,-1,5
 109 492 109 492 136 492 c 0,6,7
 164 492 164 492 181 469 c 128,-1,8
 198 446 198 446 194 413 c 0,9,10
 191 380 191 380 169 357 c 128,-1,11
 147 334 147 334 120 334 c 0,0,1
EndSplineSet
EndChar

StartChar: quotesinglbase
Encoding: 291 8218 194
Width: 214
Flags: W
LayerCount: 2
Fore
SplineSet
85 -128 m 1,0,-1
 30 -132 l 1,1,2
 31 -130 31 -130 63 -87 c 0,3,4
 84 -59 84 -59 90 -39 c 1,5,6
 27 -36 27 -36 34 33 c 0,7,8
 37 61 37 61 61 81.5 c 128,-1,9
 85 102 85 102 109 102 c 256,10,11
 133 102 133 102 152.5 81.5 c 128,-1,12
 172 61 172 61 169 33 c 0,13,14
 164 -12 164 -12 139 -54 c 0,15,16
 125 -77 125 -77 85 -128 c 1,0,-1
EndSplineSet
EndChar

StartChar: quotedblbase
Encoding: 292 8222 195
Width: 417
Flags: W
LayerCount: 2
Fore
SplineSet
21 -72 m 1,0,-1
 64 -84 l 1,1,2
 168 35 168 35 178 120 c 1,3,-1
 81 120 l 1,4,5
 76 76 76 76 55 12 c 0,6,7
 36 -47 36 -47 21 -72 c 1,0,-1
221 -72 m 1,8,-1
 264 -84 l 1,9,10
 368 35 368 35 378 120 c 1,11,-1
 281 120 l 1,12,13
 276 76 276 76 255 12 c 0,14,15
 236 -47 236 -47 221 -72 c 1,8,-1
EndSplineSet
EndChar

StartChar: perthousand
Encoding: 293 8240 196
Width: 886
Flags: W
LayerCount: 2
Fore
SplineSet
703 -6 m 0,0,1
 607 -6 607 -6 607 95 c 0,2,3
 607 104 607 104 608 115 c 0,4,5
 613 167 613 167 647.5 200.5 c 128,-1,6
 682 234 682 234 728 234 c 0,7,8
 775 234 775 234 801.5 200.5 c 128,-1,9
 828 167 828 167 823 115 c 0,10,11
 817 55 817 55 784 24.5 c 128,-1,12
 751 -6 751 -6 703 -6 c 0,0,1
142 410 m 0,13,14
 99 410 99 410 73 435.5 c 128,-1,15
 47 461 47 461 47 511 c 0,16,17
 47 520 47 520 48 531 c 0,18,19
 53 583 53 583 87 616.5 c 128,-1,20
 121 650 121 650 168 650 c 0,21,22
 214 650 214 650 241 616.5 c 128,-1,23
 268 583 268 583 263 531 c 0,24,25
 257 472 257 472 223.5 441 c 128,-1,26
 190 410 190 410 142 410 c 0,13,14
426 -6 m 0,27,28
 330 -6 330 -6 330 95 c 0,29,30
 330 104 330 104 331 115 c 0,31,32
 336 167 336 167 370.5 200.5 c 128,-1,33
 405 234 405 234 451 234 c 0,34,35
 498 234 498 234 524.5 200.5 c 128,-1,36
 551 167 551 167 546 115 c 0,37,38
 540 55 540 55 507 24.5 c 128,-1,39
 474 -6 474 -6 426 -6 c 0,27,28
68 -78 m 1,40,-1
 -3 -53 l 1,41,-1
 446 628 l 1,42,-1
 512 602 l 1,43,-1
 68 -78 l 1,40,-1
722 178 m 256,44,45
 706 178 706 178 691 163 c 0,46,47
 673 145 673 145 670 112 c 0,48,49
 666 79 666 79 679 63.5 c 128,-1,50
 692 48 692 48 709 48 c 0,51,52
 725 48 725 48 741.5 63.5 c 128,-1,53
 758 79 758 79 762 112 c 0,54,55
 765 145 765 145 750 163 c 0,56,57
 738 178 738 178 722 178 c 256,44,45
161 594 m 256,58,59
 145 594 145 594 130 579 c 0,60,61
 112 561 112 561 109 528 c 0,62,63
 105 495 105 495 120 478 c 0,64,65
 131 464 131 464 148 464 c 256,66,67
 165 464 165 464 179 478 c 0,68,69
 197 495 197 495 201 528 c 0,70,71
 204 561 204 561 189 579 c 0,72,73
 177 594 177 594 161 594 c 256,58,59
445 178 m 256,74,75
 429 178 429 178 414 163 c 0,76,77
 396 145 396 145 393 112 c 0,78,79
 389 79 389 79 402 63.5 c 128,-1,80
 415 48 415 48 432 48 c 0,81,82
 448 48 448 48 464.5 63.5 c 128,-1,83
 481 79 481 79 485 112 c 0,84,85
 488 145 488 145 473 163 c 0,86,87
 461 178 461 178 445 178 c 256,74,75
EndSplineSet
EndChar

StartChar: Acircumflex
Encoding: 194 194 197
Width: 568
Flags: W
LayerCount: 2
Fore
SplineSet
413 -10 m 1,0,-1
 374 179 l 1,1,-1
 149 179 l 1,2,-1
 72 -10 l 1,3,-1
 -9 0 l 1,4,-1
 272 654 l 1,5,-1
 353 654 l 1,6,-1
 499 4 l 1,7,-1
 413 -10 l 1,0,-1
301 551 m 1,8,-1
 177 248 l 1,9,-1
 361 248 l 1,10,-1
 301 551 l 1,8,-1
318 749 m 1,11,-1
 172 656 l 1,12,-1
 179 727 l 1,13,-1
 328 840 l 1,14,-1
 458 727 l 1,15,-1
 451 656 l 1,16,-1
 318 749 l 1,11,-1
EndSplineSet
EndChar

StartChar: Ecircumflex
Encoding: 202 202 198
Width: 489
Flags: W
LayerCount: 2
Fore
SplineSet
173 568 m 1,0,-1
 152 375 l 1,1,-1
 404 375 l 1,2,-1
 396 300 l 1,3,-1
 144 301 l 1,4,-1
 121 76 l 1,5,-1
 388 77 l 1,6,-1
 379 0 l 1,7,-1
 23 0 l 1,8,-1
 91 640 l 1,9,-1
 450 640 l 1,10,-1
 443 568 l 1,11,-1
 173 568 l 1,0,-1
287 749 m 1,12,-1
 139 656 l 1,13,-1
 147 727 l 1,14,-1
 297 840 l 1,15,-1
 427 727 l 1,16,-1
 419 656 l 1,17,-1
 287 749 l 1,12,-1
EndSplineSet
EndChar

StartChar: Aacute
Encoding: 193 193 199
Width: 568
Flags: W
LayerCount: 2
Fore
SplineSet
413 -10 m 1,0,-1
 374 179 l 1,1,-1
 149 179 l 1,2,-1
 72 -10 l 1,3,-1
 -9 0 l 1,4,-1
 272 654 l 1,5,-1
 353 654 l 1,6,-1
 499 4 l 1,7,-1
 413 -10 l 1,0,-1
301 551 m 1,8,-1
 177 248 l 1,9,-1
 361 248 l 1,10,-1
 301 551 l 1,8,-1
232 687 m 1,11,-1
 191 746 l 1,12,-1
 411 842 l 1,13,-1
 451 777 l 1,14,-1
 232 687 l 1,11,-1
EndSplineSet
EndChar

StartChar: Edieresis
Encoding: 203 203 200
Width: 489
Flags: W
LayerCount: 2
Fore
SplineSet
175 568 m 1,0,-1
 154 375 l 1,1,-1
 406 375 l 1,2,-1
 398 300 l 1,3,-1
 147 301 l 1,4,-1
 123 76 l 1,5,-1
 390 77 l 1,6,-1
 382 0 l 1,7,-1
 26 0 l 1,8,-1
 93 640 l 1,9,-1
 452 640 l 1,10,-1
 445 568 l 1,11,-1
 175 568 l 1,0,-1
396 696 m 256,12,13
 372 696 372 696 361 712 c 128,-1,14
 350 728 350 728 352 748 c 256,15,16
 354 768 354 768 368.5 784 c 128,-1,17
 383 800 383 800 407 800 c 0,18,19
 430 800 430 800 442 783.5 c 128,-1,20
 454 767 454 767 452 748 c 0,21,22
 450 728 450 728 435 712 c 128,-1,23
 420 696 420 696 396 696 c 256,12,13
187 696 m 0,24,25
 163 696 163 696 152 712 c 128,-1,26
 141 728 141 728 143 748 c 256,27,28
 145 768 145 768 159.5 784 c 128,-1,29
 174 800 174 800 198 800 c 0,30,31
 221 800 221 800 232.5 784 c 128,-1,32
 244 768 244 768 242 748 c 256,33,34
 240 728 240 728 225 712 c 128,-1,35
 210 696 210 696 187 696 c 0,24,25
EndSplineSet
EndChar

StartChar: Egrave
Encoding: 200 200 201
Width: 489
Flags: W
LayerCount: 2
Fore
SplineSet
173 568 m 1,0,-1
 152 375 l 1,1,-1
 404 375 l 1,2,-1
 396 300 l 1,3,-1
 144 301 l 1,4,-1
 120 76 l 1,5,-1
 388 77 l 1,6,-1
 379 0 l 1,7,-1
 23 0 l 1,8,-1
 91 640 l 1,9,-1
 450 640 l 1,10,-1
 443 568 l 1,11,-1
 173 568 l 1,0,-1
362 686 m 1,12,-1
 164 776 l 1,13,-1
 217 841 l 1,14,-1
 417 745 l 1,15,-1
 362 686 l 1,12,-1
EndSplineSet
EndChar

StartChar: Iacute
Encoding: 205 205 202
Width: 215
Flags: W
LayerCount: 2
Fore
SplineSet
23 0 m 1,0,-1
 91 642 l 1,1,-1
 180 642 l 1,2,-1
 112 0 l 1,3,-1
 23 0 l 1,0,-1
64 687 m 1,4,-1
 23 746 l 1,5,-1
 244 842 l 1,6,-1
 284 777 l 1,7,-1
 64 687 l 1,4,-1
EndSplineSet
EndChar

StartChar: Icircumflex
Encoding: 206 206 203
Width: 215
Flags: W
LayerCount: 2
Fore
SplineSet
23 0 m 1,0,-1
 92 642 l 1,1,-1
 181 642 l 1,2,-1
 112 0 l 1,3,-1
 23 0 l 1,0,-1
150 749 m 1,4,-1
 3 656 l 1,5,-1
 11 727 l 1,6,-1
 160 840 l 1,7,-1
 290 727 l 1,8,-1
 282 656 l 1,9,-1
 150 749 l 1,4,-1
EndSplineSet
EndChar

StartChar: Idieresis
Encoding: 207 207 204
Width: 215
Flags: W
LayerCount: 2
Fore
SplineSet
26 0 m 1,0,-1
 94 642 l 1,1,-1
 183 642 l 1,2,-1
 115 0 l 1,3,-1
 26 0 l 1,0,-1
249 696 m 256,4,5
 225 696 225 696 214 712 c 128,-1,6
 203 728 203 728 205 748 c 256,7,8
 207 768 207 768 221.5 784 c 128,-1,9
 236 800 236 800 260 800 c 0,10,11
 283 800 283 800 295 783.5 c 128,-1,12
 307 767 307 767 305 748 c 0,13,14
 303 728 303 728 288 712 c 128,-1,15
 273 696 273 696 249 696 c 256,4,5
40 696 m 0,16,17
 16 696 16 696 5 712 c 128,-1,18
 -6 728 -6 728 -4 748 c 256,19,20
 -2 768 -2 768 12.5 784 c 128,-1,21
 27 800 27 800 51 800 c 0,22,23
 74 800 74 800 85.5 784 c 128,-1,24
 97 768 97 768 95 748 c 256,25,26
 93 728 93 728 78 712 c 128,-1,27
 63 696 63 696 40 696 c 0,16,17
EndSplineSet
EndChar

StartChar: Igrave
Encoding: 204 204 205
Width: 215
Flags: W
LayerCount: 2
Fore
SplineSet
23 0 m 1,0,-1
 91 642 l 1,1,-1
 180 642 l 1,2,-1
 112 0 l 1,3,-1
 23 0 l 1,0,-1
226 686 m 1,4,-1
 27 776 l 1,5,-1
 81 841 l 1,6,-1
 280 745 l 1,7,-1
 226 686 l 1,4,-1
EndSplineSet
EndChar

StartChar: Oacute
Encoding: 211 211 206
Width: 644
Flags: W
LayerCount: 2
Fore
SplineSet
279 -16 m 0,0,1
 165 -16 165 -16 96 55 c 0,2,3
 24 131 24 131 24 266 c 0,4,5
 24 293 24 293 27 322 c 0,6,7
 42 463 42 463 135 554.5 c 128,-1,8
 228 646 228 646 356 646 c 0,9,10
 472 646 472 646 541.5 569 c 128,-1,11
 611 492 611 492 611 368 c 0,12,13
 611 345 611 345 608 322 c 0,14,15
 591 162 591 162 495 70 c 0,16,17
 406 -16 406 -16 279 -16 c 0,0,1
346 572 m 0,18,19
 240 572 240 572 170 475 c 0,20,21
 108 388 108 388 108 278 c 0,22,23
 108 185 108 185 157.5 123 c 128,-1,24
 207 61 207 61 287 61 c 0,25,26
 391 61 391 61 462 155 c 0,27,28
 527 242 527 242 527 349 c 0,29,30
 527 445 527 445 478 508.5 c 128,-1,31
 429 572 429 572 346 572 c 0,18,19
275 687 m 1,32,-1
 234 746 l 1,33,-1
 454 842 l 1,34,-1
 495 777 l 1,35,-1
 275 687 l 1,32,-1
EndSplineSet
EndChar

StartChar: Ocircumflex
Encoding: 212 212 207
Width: 644
Flags: W
LayerCount: 2
Fore
SplineSet
278 -16 m 0,0,1
 164 -16 164 -16 96 55 c 0,2,3
 24 131 24 131 24 266 c 0,4,5
 24 293 24 293 27 322 c 0,6,7
 42 463 42 463 134.5 554.5 c 128,-1,8
 227 646 227 646 355 646 c 0,9,10
 471 646 471 646 540.5 569 c 128,-1,11
 610 492 610 492 610 368 c 0,12,13
 610 345 610 345 608 322 c 0,14,15
 591 162 591 162 495 70 c 0,16,17
 405 -16 405 -16 278 -16 c 0,0,1
345 572 m 0,18,19
 240 572 240 572 170 475 c 0,20,21
 107 388 107 388 107 278 c 0,22,23
 107 185 107 185 156.5 123 c 128,-1,24
 206 61 206 61 286 61 c 0,25,26
 391 61 391 61 462 155 c 0,27,28
 527 242 527 242 527 349 c 0,29,30
 527 445 527 445 479 507 c 0,31,32
 428 572 428 572 345 572 c 0,18,19
369 759 m 1,33,-1
 221 666 l 1,34,-1
 229 737 l 1,35,-1
 379 850 l 1,36,-1
 509 737 l 1,37,-1
 501 666 l 1,38,-1
 369 759 l 1,33,-1
EndSplineSet
EndChar

StartChar: apple
Encoding: 294 61440 208
Width: 549
Flags: W
LayerCount: 2
Fore
SplineSet
325 573 m 1,0,-1
 325 629 l 1,1,-1
 396 629 l 1,2,-1
 396 696 l 1,3,-1
 455 696 l 1,4,-1
 455 629 l 1,5,-1
 525 629 l 1,6,-1
 525 573 l 1,7,-1
 455 573 l 1,8,-1
 455 505 l 1,9,-1
 396 505 l 1,10,-1
 396 573 l 1,11,-1
 325 573 l 1,0,-1
34 39 m 1,12,-1
 34 95 l 1,13,-1
 105 95 l 1,14,-1
 105 163 l 1,15,-1
 164 163 l 1,16,-1
 164 95 l 1,17,-1
 235 95 l 1,18,-1
 235 39 l 1,19,-1
 164 39 l 1,20,-1
 164 -28 l 1,21,-1
 105 -28 l 1,22,-1
 105 39 l 1,23,-1
 34 39 l 1,12,-1
165 218 m 1,24,-1
 199 218 l 1,25,-1
 199 172 l 1,26,-1
 165 172 l 1,27,-1
 165 218 l 1,24,-1
203 248 m 1,28,-1
 230 248 l 1,29,-1
 230 228 l 1,30,-1
 203 228 l 1,31,-1
 203 248 l 1,28,-1
233 284 m 1,32,-1
 323 284 l 1,33,-1
 323 258 l 1,34,-1
 233 258 l 1,35,-1
 233 284 l 1,32,-1
195 380 m 1,36,-1
 224 380 l 1,37,-1
 224 297 l 1,38,-1
 195 297 l 1,39,-1
 195 380 l 1,36,-1
391 451 m 1,40,-1
 356 451 l 1,41,-1
 356 497 l 1,42,-1
 391 497 l 1,43,-1
 391 451 l 1,40,-1
353 421 m 1,44,-1
 326 421 l 1,45,-1
 326 441 l 1,46,-1
 353 441 l 1,47,-1
 353 421 l 1,44,-1
323 385 m 1,48,-1
 233 385 l 1,49,-1
 233 411 l 1,50,-1
 323 411 l 1,51,-1
 323 385 l 1,48,-1
361 289 m 1,52,-1
 332 289 l 1,53,-1
 332 372 l 1,54,-1
 361 372 l 1,55,-1
 361 289 l 1,52,-1
EndSplineSet
EndChar

StartChar: Ograve
Encoding: 210 210 209
Width: 644
Flags: W
LayerCount: 2
Fore
SplineSet
279 -16 m 0,0,1
 165 -16 165 -16 96 55 c 0,2,3
 24 131 24 131 24 266 c 0,4,5
 24 293 24 293 27 322 c 0,6,7
 42 463 42 463 135 554.5 c 128,-1,8
 228 646 228 646 356 646 c 0,9,10
 472 646 472 646 541.5 569 c 128,-1,11
 611 492 611 492 611 368 c 0,12,13
 611 345 611 345 608 322 c 0,14,15
 591 162 591 162 495 70 c 0,16,17
 406 -16 406 -16 279 -16 c 0,0,1
346 572 m 0,18,19
 240 572 240 572 171 475 c 0,20,21
 108 388 108 388 108 278 c 0,22,23
 108 185 108 185 157.5 123 c 128,-1,24
 207 61 207 61 287 61 c 0,25,26
 391 61 391 61 462 155 c 0,27,28
 527 242 527 242 527 349 c 0,29,30
 527 445 527 445 478 508.5 c 128,-1,31
 429 572 429 572 346 572 c 0,18,19
437 686 m 1,32,-1
 238 776 l 1,33,-1
 291 841 l 1,34,-1
 491 745 l 1,35,-1
 437 686 l 1,32,-1
EndSplineSet
EndChar

StartChar: Uacute
Encoding: 218 218 210
Width: 571
Flags: W
LayerCount: 2
Fore
SplineSet
494 230 m 2,0,1
 480 105 480 105 400 39 c 0,2,3
 332 -17 332 -17 236 -17 c 0,4,5
 154 -17 154 -17 104 30 c 0,6,7
 46 83 46 83 46 187 c 0,8,9
 46 207 46 207 49 230 c 2,10,-1
 92 640 l 1,11,-1
 181 640 l 1,12,-1
 138 230 l 2,13,14
 135 210 135 210 135 191 c 0,15,16
 135 58 135 58 247 58 c 0,17,18
 305 58 305 58 345 95 c 0,19,20
 394 140 394 140 404 230 c 2,21,-1
 447 640 l 1,22,-1
 537 640 l 1,23,-1
 494 230 l 2,0,1
233 687 m 1,24,-1
 192 746 l 1,25,-1
 413 842 l 1,26,-1
 453 777 l 1,27,-1
 233 687 l 1,24,-1
EndSplineSet
EndChar

StartChar: Ucircumflex
Encoding: 219 219 211
Width: 571
Flags: W
LayerCount: 2
Fore
SplineSet
493 230 m 2,0,1
 480 105 480 105 399 39 c 0,2,3
 331 -17 331 -17 236 -17 c 0,4,5
 153 -17 153 -17 103 30 c 0,6,7
 46 83 46 83 46 187 c 0,8,9
 46 207 46 207 48 230 c 2,10,-1
 92 640 l 1,11,-1
 181 640 l 1,12,-1
 137 230 l 2,13,14
 135 210 135 210 135 191 c 0,15,16
 135 58 135 58 247 58 c 0,17,18
 305 58 305 58 345 95 c 0,19,20
 394 140 394 140 403 230 c 2,21,-1
 447 640 l 1,22,-1
 537 640 l 1,23,-1
 493 230 l 2,0,1
319 759 m 1,24,-1
 171 666 l 1,25,-1
 179 737 l 1,26,-1
 329 850 l 1,27,-1
 459 737 l 1,28,-1
 451 666 l 1,29,-1
 319 759 l 1,24,-1
EndSplineSet
EndChar

StartChar: Ugrave
Encoding: 217 217 212
Width: 571
Flags: W
LayerCount: 2
Fore
SplineSet
494 230 m 2,0,1
 480 105 480 105 400 39 c 0,2,3
 332 -17 332 -17 237 -17 c 0,4,5
 154 -17 154 -17 104 30 c 0,6,7
 46 83 46 83 46 187 c 0,8,9
 46 207 46 207 49 230 c 2,10,-1
 92 640 l 1,11,-1
 181 640 l 1,12,-1
 138 230 l 2,13,14
 136 210 136 210 136 191 c 0,15,16
 136 58 136 58 247 58 c 0,17,18
 305 58 305 58 346 95 c 0,19,20
 394 140 394 140 404 230 c 2,21,-1
 447 640 l 1,22,-1
 537 640 l 1,23,-1
 494 230 l 2,0,1
395 686 m 1,24,-1
 196 776 l 1,25,-1
 249 841 l 1,26,-1
 449 745 l 1,27,-1
 395 686 l 1,24,-1
EndSplineSet
EndChar

StartChar: dotlessi
Encoding: 295 305 213
Width: 233
Flags: W
LayerCount: 2
Fore
SplineSet
45 0 m 1,0,-1
 97 495 l 1,1,-1
 178 495 l 1,2,-1
 126 0 l 1,3,-1
 45 0 l 1,0,-1
EndSplineSet
EndChar

StartChar: circumflex
Encoding: 296 710 214
Width: 337
Flags: W
LayerCount: 2
Fore
SplineSet
173 619 m 1,0,-1
 25 526 l 1,1,-1
 33 597 l 1,2,-1
 183 710 l 1,3,-1
 313 597 l 1,4,-1
 305 526 l 1,5,-1
 173 619 l 1,0,-1
EndSplineSet
EndChar

StartChar: tilde
Encoding: 297 732 215
Width: 375
Flags: W
LayerCount: 2
Fore
SplineSet
268 549 m 0,0,1
 240 549 240 549 197.5 583.5 c 128,-1,2
 155 618 155 618 140 618 c 0,3,4
 101 618 101 618 65 576 c 1,5,-1
 45 635 l 1,6,7
 61 656 61 656 93 670 c 0,8,9
 122 684 122 684 147 685 c 0,10,11
 175 686 175 686 214 651.5 c 128,-1,12
 253 617 253 617 273 617 c 0,13,14
 296 617 296 617 326 642 c 1,15,-1
 345 582 l 1,16,17
 335 571 335 571 307.5 560 c 128,-1,18
 280 549 280 549 268 549 c 0,0,1
EndSplineSet
EndChar

StartChar: macron
Encoding: 175 175 216
AltUni2: 0002c9.ffffffff.0
Width: 406
Flags: W
LayerCount: 2
Fore
SplineSet
102 594 m 1,0,-1
 108 659 l 1,1,-1
 342 659 l 1,2,-1
 336 594 l 1,3,-1
 102 594 l 1,0,-1
EndSplineSet
EndChar

StartChar: breve
Encoding: 298 728 217
Width: 345
Flags: W
LayerCount: 2
Fore
SplineSet
165 538 m 256,0,1
 117 538 117 538 81.5 566 c 128,-1,2
 46 594 46 594 36 643 c 1,3,-1
 86 650 l 1,4,5
 106 587 106 587 169 587 c 0,6,7
 228 587 228 587 261 650 c 1,8,-1
 308 643 l 1,9,10
 290 594 290 594 251.5 566 c 128,-1,11
 213 538 213 538 165 538 c 256,0,1
EndSplineSet
EndChar

StartChar: dotaccent
Encoding: 299 729 218
Width: 237
Flags: W
LayerCount: 2
Fore
SplineSet
123 528 m 256,0,1
 100 528 100 528 86.5 542.5 c 128,-1,2
 73 557 73 557 75 576 c 0,3,4
 77 596 77 596 93.5 610 c 128,-1,5
 110 624 110 624 133 624 c 256,6,7
 156 624 156 624 169.5 610 c 128,-1,8
 183 596 183 596 181 576 c 0,9,10
 179 557 179 557 162.5 542.5 c 128,-1,11
 146 528 146 528 123 528 c 256,0,1
EndSplineSet
EndChar

StartChar: ring
Encoding: 300 730 219
Width: 305
Flags: W
LayerCount: 2
Fore
SplineSet
163 576 m 256,0,1
 123 576 123 576 100 600.5 c 128,-1,2
 77 625 77 625 81 663 c 0,3,4
 85 700 85 700 113 724.5 c 128,-1,5
 141 749 141 749 181 749 c 256,6,7
 221 749 221 749 244 724.5 c 128,-1,8
 267 700 267 700 263 663 c 0,9,10
 259 625 259 625 231 600.5 c 128,-1,11
 203 576 203 576 163 576 c 256,0,1
177 706 m 256,12,13
 134 706 134 706 129 663 c 0,14,15
 124 619 124 619 167 619 c 256,16,17
 210 619 210 619 215 663 c 0,18,19
 220 706 220 706 177 706 c 256,12,13
EndSplineSet
EndChar

StartChar: cedilla
Encoding: 301 184 220
Width: 205
Flags: W
LayerCount: 2
Fore
SplineSet
89 -219 m 0,0,1
 24 -219 24 -219 8 -171 c 1,2,-1
 48 -137 l 1,3,4
 74 -169 74 -169 95 -169 c 0,5,6
 131 -169 131 -169 135 -135 c 0,7,8
 139 -96 139 -96 105 -96 c 0,9,10
 91 -96 91 -96 69 -111 c 1,11,-1
 25 -90 l 1,12,-1
 40 4 l 1,13,-1
 98 5 l 1,14,-1
 88 -47 l 1,15,16
 98 -43 98 -43 114 -43 c 0,17,18
 156 -43 156 -43 178 -72 c 0,19,20
 198 -97 198 -97 194 -132 c 0,21,22
 191 -167 191 -167 163 -193 c 128,-1,23
 135 -219 135 -219 89 -219 c 0,0,1
EndSplineSet
EndChar

StartChar: hungarumlaut
Encoding: 302 733 221
Width: 362
Flags: W
LayerCount: 2
Fore
SplineSet
218 561 m 1,0,-1
 155 561 l 1,1,-1
 260 675 l 1,2,-1
 323 675 l 1,3,-1
 218 561 l 1,0,-1
95 561 m 1,4,-1
 32 561 l 1,5,-1
 137 675 l 1,6,-1
 200 675 l 1,7,-1
 95 561 l 1,4,-1
EndSplineSet
EndChar

StartChar: caron
Encoding: 304 711 222
Width: 337
Flags: W
LayerCount: 2
Fore
SplineSet
178 617 m 1,0,-1
 325 710 l 1,1,-1
 317 639 l 1,2,-1
 168 526 l 1,3,-1
 37 639 l 1,4,-1
 45 710 l 1,5,-1
 178 617 l 1,0,-1
EndSplineSet
EndChar

StartChar: Lslash
Encoding: 305 321 223
Width: 501
Flags: W
LayerCount: 2
Fore
SplineSet
8 335 m 1,0,-1
 67 356 l 1,1,-1
 97 641 l 1,2,-1
 186 641 l 1,3,-1
 159 390 l 1,4,-1
 230 415 l 1,5,-1
 222 337 l 1,6,-1
 151 312 l 1,7,-1
 126 72 l 1,8,-1
 412 72 l 1,9,-1
 404 0 l 1,10,-1
 29 0 l 1,11,-1
 58 278 l 1,12,-1
 -1 257 l 1,13,-1
 8 335 l 1,0,-1
EndSplineSet
EndChar

StartChar: lslash
Encoding: 306 322 224
Width: 282
Flags: W
LayerCount: 2
Fore
SplineSet
170 362 m 1,0,-1
 133 0 l 1,1,-1
 45 0 l 1,2,-1
 78 317 l 1,3,-1
 11 285 l 1,4,-1
 20 363 l 1,5,-1
 87 395 l 1,6,-1
 113 642 l 1,7,-1
 201 642 l 1,8,-1
 180 440 l 1,9,-1
 260 479 l 1,10,-1
 252 401 l 1,11,-1
 170 362 l 1,0,-1
EndSplineSet
EndChar

StartChar: Zcaron
Encoding: 180 381 227
Width: 544
Flags: W
LayerCount: 2
Fore
SplineSet
129 76 m 1,0,-1
 446 76 l 1,1,-1
 438 0 l 1,2,-1
 31 0 l 1,3,-1
 31 77 l 1,4,-1
 407 574 l 1,5,-1
 101 572 l 1,6,-1
 108 639 l 1,7,-1
 501 639 l 1,8,-1
 501 567 l 1,9,-1
 129 76 l 1,0,-1
364 757 m 1,10,-1
 511 850 l 1,11,-1
 504 779 l 1,12,-1
 355 666 l 1,13,-1
 224 779 l 1,14,-1
 231 850 l 1,15,-1
 364 757 l 1,10,-1
EndSplineSet
EndChar

StartChar: zcaron
Encoding: 184 382 228
Width: 482
Flags: W
LayerCount: 2
Fore
SplineSet
20 0 m 1,0,-1
 27 66 l 1,1,-1
 288 369 l 2,2,3
 305 389 305 389 345 430 c 1,4,-1
 76 430 l 1,5,-1
 83 494 l 1,6,-1
 445 494 l 1,7,-1
 437 424 l 1,8,-1
 186 125 l 2,9,10
 173 110 173 110 135 70 c 1,11,-1
 414 70 l 1,12,-1
 406 0 l 1,13,-1
 20 0 l 1,0,-1
335 617 m 1,14,-1
 482 710 l 1,15,-1
 474 639 l 1,16,-1
 325 526 l 1,17,-1
 194 639 l 1,18,-1
 202 710 l 1,19,-1
 335 617 l 1,14,-1
EndSplineSet
EndChar

StartChar: brokenbar
Encoding: 307 166 229
Width: 182
Flags: W
LayerCount: 2
Fore
SplineSet
54 -18 m 1,0,-1
 54 256 l 1,1,-1
 131 256 l 1,2,-1
 131 -18 l 1,3,-1
 54 -18 l 1,0,-1
54 382 m 1,4,-1
 54 656 l 1,5,-1
 131 656 l 1,6,-1
 131 382 l 1,7,-1
 54 382 l 1,4,-1
EndSplineSet
EndChar

StartChar: Eth
Encoding: 208 208 230
Width: 565
Flags: W
LayerCount: 2
Fore
SplineSet
153 335 m 1,0,-1
 221 335 l 1,1,-1
 214 267 l 1,2,-1
 146 267 l 1,3,-1
 126 74 l 1,4,-1
 216 74 l 2,5,6
 311 74 311 74 372 149 c 0,7,8
 427 215 427 215 437 312 c 0,9,10
 441 348 441 348 441 379 c 0,11,12
 441 583 441 583 263 583 c 0,13,14
 234 583 234 583 179 581 c 1,15,-1
 153 335 l 1,0,-1
7 335 m 1,16,-1
 64 335 l 1,17,-1
 97 644 l 1,18,19
 166 647 166 647 243 647 c 0,20,21
 393 647 393 647 463 587 c 0,22,23
 537 525 537 525 537 388 c 0,24,25
 537 358 537 358 533 323 c 0,26,27
 517 169 517 169 430 85 c 0,28,29
 339 -2 339 -2 181 -2 c 0,30,31
 152 -2 152 -2 106.5 0 c 128,-1,32
 61 2 61 2 29 2 c 1,33,-1
 57 267 l 1,34,-1
 0 267 l 1,35,-1
 7 335 l 1,16,-1
EndSplineSet
EndChar

StartChar: eth
Encoding: 240 240 231
Width: 563
Flags: W
LayerCount: 2
Fore
SplineSet
428 358 m 1,0,1
 379 440 379 440 286 440 c 0,2,3
 215 440 215 440 167 392 c 128,-1,4
 119 344 119 344 109 256 c 0,5,6
 107 240 107 240 107 225 c 0,7,8
 107 155 107 155 140 110 c 0,9,10
 175 62 175 62 236 62 c 0,11,12
 316 62 316 62 368 121 c 0,13,14
 417 175 417 175 426 262 c 0,15,16
 431 314 431 314 428 358 c 1,0,1
239 613 m 1,17,-1
 333 613 l 1,18,19
 293 667 293 667 273 686 c 1,20,-1
 345 731 l 1,21,22
 391 681 391 681 431 613 c 1,23,-1
 567 613 l 1,24,-1
 559 544 l 1,25,-1
 465 544 l 1,26,27
 515 430 515 430 515 337 c 0,28,29
 515 321 515 321 514 306 c 0,30,31
 496 159 496 159 429 77 c 0,32,33
 352 -17 352 -17 217 -17 c 0,34,35
 122 -17 122 -17 67 54 c 0,36,37
 18 118 18 118 18 211 c 0,38,39
 18 227 18 227 20 243 c 0,40,41
 34 379 34 379 116 448 c 0,42,43
 187 508 187 508 294 508 c 0,44,45
 371 508 371 508 409 464 c 1,46,47
 402 493 402 493 375 544 c 1,48,-1
 232 544 l 1,49,-1
 239 613 l 1,17,-1
EndSplineSet
EndChar

StartChar: Yacute
Encoding: 221 221 232
Width: 503
Flags: W
LayerCount: 2
Fore
SplineSet
288 272 m 1,0,-1
 260 0 l 1,1,-1
 171 0 l 1,2,-1
 199 272 l 1,3,-1
 59 627 l 1,4,-1
 141 650 l 1,5,-1
 255 353 l 1,6,-1
 429 650 l 1,7,-1
 503 627 l 1,8,-1
 288 272 l 1,0,-1
218 627 m 1,9,-1
 178 686 l 1,10,-1
 398 782 l 1,11,-1
 439 717 l 1,12,-1
 218 627 l 1,9,-1
EndSplineSet
EndChar

StartChar: Thorn
Encoding: 222 222 233
Width: 543
Flags: W
LayerCount: 2
Fore
SplineSet
263 145 m 0,0,1
 241 145 241 145 220 148 c 0,2,3
 181 154 181 154 133 189 c 1,4,-1
 101 -108 l 1,5,-1
 17 -108 l 1,6,-1
 103 700 l 1,7,-1
 187 700 l 1,8,-1
 177 603 l 1,9,10
 232 676 232 676 317 676 c 0,11,12
 410 676 410 676 461 607 c 0,13,14
 508 544 508 544 508 448 c 0,15,16
 508 430 508 430 506 412 c 0,17,18
 492 272 492 272 421 204 c 0,19,20
 359 145 359 145 263 145 c 0,0,1
290 599 m 0,21,22
 211 599 211 599 168 525 c 1,23,-1
 142 273 l 1,24,25
 173 213 173 213 265 213 c 0,26,27
 343 213 343 213 386 288 c 0,28,29
 421 350 421 350 421 435 c 0,30,31
 421 504 421 504 392 548 c 0,32,33
 358 599 358 599 290 599 c 0,21,22
EndSplineSet
EndChar

StartChar: thorn
Encoding: 254 254 234
Width: 522
Flags: W
LayerCount: 2
Fore
SplineSet
245 -10 m 0,0,1
 205 -10 205 -10 180 3 c 0,2,3
 124 41 l 1,4,-1
 99 -195 l 1,5,-1
 13 -195 l 1,6,-1
 107 685 l 1,7,-1
 190 685 l 1,8,-1
 161 419 l 1,9,10
 225 500 225 500 318 500 c 0,11,12
 406 500 406 500 453 442 c 0,13,14
 497 388 497 388 497 299 c 0,15,16
 497 282 497 282 495 264 c 0,17,18
 481 122 481 122 408 51 c 0,19,20
 344 -10 344 -10 245 -10 c 0,0,1
297 430 m 0,21,22
 257 430 257 430 218 405.5 c 128,-1,23
 179 381 179 381 156 341 c 1,24,-1
 131 97 l 1,25,26
 144 77 144 77 185 66 c 0,27,28
 219 56 219 56 252 56 c 0,29,30
 330 56 330 56 374 136 c 0,31,32
 410 202 410 202 410 287 c 0,33,34
 410 430 410 430 297 430 c 0,21,22
EndSplineSet
EndChar

StartChar: minus
Encoding: 173 173 235
AltUni2: 002212.ffffffff.0
Width: 498
Flags: W
LayerCount: 2
Fore
SplineSet
52 285 m 1,0,-1
 52 348 l 1,1,-1
 446 348 l 1,2,-1
 446 285 l 1,3,-1
 52 285 l 1,0,-1
EndSplineSet
EndChar

